<svg width="131" height="134" viewBox="0 0 131 134" fill="none" xmlns="http://www.w3.org/2000/svg">
<path d="M127.123 44.5299C128.095 43.8632 128.818 42.8931 129.18 41.7714C129.542 40.6498 129.522 39.4399 129.122 38.3311C128.723 37.2223 127.967 36.2772 126.974 35.6436C125.98 35.0101 124.804 34.7238 123.63 34.8298C123.444 34.8529 123.259 34.8864 123.076 34.9299C118.088 25.4336 110.837 17.3125 101.965 11.2846C93.0919 5.25674 82.8708 1.50771 72.2048 0.368976C61.5388 -0.769759 50.7566 0.736881 40.8112 4.7557C30.8659 8.77451 22.0638 15.1817 15.1833 23.4108C12.6706 26.428 10.4324 29.6635 8.49532 33.0788C7.33107 32.8296 6.11683 32.9776 5.04659 33.4993C3.97635 34.0211 3.11185 34.8863 2.59102 35.957C2.07019 37.0277 1.9231 38.242 2.1733 39.4061C2.4235 40.5701 3.05662 41.6168 3.97139 42.3789C4.01139 42.4129 4.05637 42.4368 4.09737 42.4688C0.578058 51.9207 -0.700098 62.0603 0.363484 72.0899C1.42707 82.1195 4.80337 91.7656 10.2268 100.269C15.6502 108.773 22.9727 115.902 31.6184 121.096C40.264 126.29 49.9968 129.407 60.0512 130.202C60.3627 131.107 60.9139 131.91 61.6462 132.526C62.1847 132.975 62.8065 133.314 63.476 133.524C64.1456 133.733 64.8499 133.808 65.5485 133.745C66.2472 133.682 66.9265 133.482 67.5478 133.156C68.1691 132.83 68.7201 132.386 69.1694 131.847C69.5655 131.365 69.8726 130.816 70.0764 130.226C73.7401 129.95 77.3745 129.37 80.9423 128.493C96.0695 124.764 109.359 115.736 118.398 103.046C127.437 90.3567 131.627 74.8469 130.207 59.3319C129.751 54.2959 128.716 49.3291 127.123 44.5299ZM68.4914 124.33C67.8145 123.764 67.0078 123.375 66.1438 123.197C65.2797 123.02 64.385 123.059 63.5398 123.311C62.6945 123.564 61.925 124.022 61.3 124.644C60.675 125.267 60.214 126.035 59.9582 126.879C50.4549 126.055 41.2703 123.047 33.1201 118.091C24.9698 113.134 18.074 106.363 12.9702 98.304C7.86634 90.2453 4.69228 81.117 3.69527 71.6302C2.69826 62.1435 3.90541 52.5545 7.22237 43.6108C7.27837 43.6108 7.33432 43.6268 7.39132 43.6268C7.55132 43.6268 7.71227 43.6188 7.87227 43.6038C8.85808 43.5196 9.80076 43.1619 10.5944 42.5711C11.3881 41.9804 12.0013 41.18 12.3649 40.2598C12.7286 39.3397 12.8284 38.3362 12.653 37.3625C12.4777 36.3888 12.0341 35.4833 11.3723 34.7479C13.2137 31.4975 15.3426 28.4184 17.7334 25.5478C26.1482 15.414 37.6007 8.25695 50.3974 5.13485C55.2974 3.9235 60.3258 3.30939 65.3733 3.30587C76.6716 3.33006 87.7489 6.43991 97.4089 12.2998C107.069 18.1596 114.945 26.5468 120.186 36.5559C120.13 36.6169 120.063 36.6658 120.01 36.7298C119.561 37.2683 119.222 37.89 119.013 38.5595C118.803 39.229 118.728 39.9332 118.791 40.6318C118.854 41.3304 119.054 42.0096 119.38 42.6309C119.705 43.2522 120.15 43.8034 120.688 44.2529C121.127 44.6198 121.622 44.9142 122.154 45.1248C122.732 45.3481 123.345 45.4682 123.964 45.4798C125.499 50.0683 126.494 54.8194 126.931 59.6378C128.408 75.9909 123.328 92.2608 112.809 104.868C102.29 117.476 87.1934 125.389 70.8403 126.866C70.6203 126.886 70.4023 126.892 70.1833 126.909C69.8876 125.9 69.2988 125.003 68.4914 124.33Z" fill="#28A040"/>
<path d="M65.2544 106.322C65.0865 106.323 64.9202 106.289 64.7664 106.222C63.4774 105.645 33.1914 91.8856 33.1914 74.2616V36.8696C33.1922 36.6935 33.2318 36.5196 33.3074 36.3605C33.383 36.2013 33.4926 36.0608 33.6287 35.9489C33.7647 35.8369 33.9238 35.7562 34.0945 35.7126C34.2652 35.6691 34.4434 35.6636 34.6165 35.6967C45.3775 37.8047 55.1543 35.1905 64.5093 27.7115C64.7215 27.5429 64.9847 27.4512 65.2559 27.4512C65.527 27.4512 65.7902 27.5429 66.0024 27.7115C75.3564 35.1915 85.1343 37.8027 95.8943 35.6967C96.0673 35.6636 96.2456 35.6691 96.4163 35.7126C96.587 35.7562 96.7461 35.8369 96.8821 35.9489C97.0181 36.0608 97.1278 36.2013 97.2034 36.3605C97.279 36.5196 97.3185 36.6935 97.3193 36.8696V74.2626C97.3193 91.8866 67.0334 105.646 65.7444 106.222C65.5906 106.289 65.4243 106.323 65.2563 106.322H65.2544ZM35.5803 38.2916V74.2585C35.5803 89.2085 61.3584 101.968 65.2544 103.81C69.1544 101.967 94.9285 89.1995 94.9285 74.2585V38.2916C84.2825 40.0016 74.5534 37.3356 65.2544 30.1606C55.9544 37.3356 46.2243 40.0026 35.5803 38.2916Z" fill="#28A040" stroke="#28A040" stroke-width="1.5"/>
<path d="M65.2532 84.2699C61.8153 84.2699 58.4546 83.2504 55.5962 81.3405C52.7377 79.4305 50.5099 76.7158 49.1943 73.5397C47.8787 70.3635 47.5344 66.8686 48.2051 63.4968C48.8757 60.1251 50.5312 57.0279 52.9621 54.5969C55.3931 52.166 58.4903 50.5105 61.862 49.8399C65.2338 49.1692 68.7289 49.5134 71.905 50.829C75.0812 52.1446 77.7958 54.3725 79.7058 57.231C81.6158 60.0894 82.6352 63.45 82.6352 66.8878C82.6305 71.4964 80.7975 75.9149 77.5388 79.1736C74.2801 82.4323 69.8617 84.2651 65.2532 84.2699ZM65.2532 51.8969C62.288 51.8967 59.3894 52.7758 56.9238 54.423C54.4583 56.0702 52.5365 58.4116 51.4016 61.151C50.2667 63.8904 49.9697 66.9049 50.5481 69.8131C51.1264 72.7214 52.5542 75.3927 54.6509 77.4895C56.7475 79.5863 59.4187 81.0142 62.3269 81.5928C65.2351 82.1713 68.2495 81.8744 70.989 80.7398C73.7285 79.6051 76.0701 77.6836 77.7175 75.2182C79.3649 72.7527 80.2441 69.8541 80.2441 66.8889C80.2396 62.9144 78.6587 59.1038 75.8484 56.2932C73.038 53.4827 69.2277 51.9016 65.2532 51.8969Z" fill="#28A040" stroke="#28A040" stroke-width="1.5"/>
<path d="M60.5518 74.0989C60.2352 74.0988 59.9316 73.9729 59.7078 73.7489L57.0667 71.1079C56.8752 70.8779 56.7767 70.5845 56.7903 70.2854C56.804 69.9864 56.9287 69.7034 57.1404 69.4917C57.3521 69.2801 57.6353 69.1552 57.9344 69.1415C58.2334 69.1279 58.5266 69.2264 58.7566 69.4179L60.5567 71.2179L71.7566 60.0179C71.9867 59.8264 72.2801 59.7278 72.5791 59.7415C72.8782 59.7551 73.1612 59.88 73.3728 60.0917C73.5845 60.3034 73.7095 60.5865 73.7232 60.8855C73.7368 61.1846 73.6383 61.4779 73.4468 61.7079L61.4048 73.7499C61.1804 73.9735 60.8764 74.0993 60.5596 74.0999L60.5518 74.0989Z" fill="#28A040" stroke="#28A040" stroke-width="1.5"/>
</svg>
