<svg id="Component_81_1" data-name="Component 81 – 1" xmlns="http://www.w3.org/2000/svg" width="107.381" height="110.125" viewBox="0 0 107.381 110.125">
  <path id="Path_784" data-name="Path 784" d="M2814.752,3462.193a4.386,4.386,0,0,0-2.876-7.987,4.246,4.246,0,0,0-.456.086,53.747,53.747,0,0,0-88.817-9.482,54.273,54.273,0,0,0-5.505,7.959,4.385,4.385,0,0,0-3.725,7.657c.033.028.071.048.1.074a53.664,53.664,0,0,0,46.061,72.221,4.345,4.345,0,0,0,1.313,1.913,4.394,4.394,0,0,0,6.193-.559,4.337,4.337,0,0,0,.747-1.334,54.592,54.592,0,0,0,8.945-1.427,53.6,53.6,0,0,0,40.554-56.933A54.249,54.249,0,0,0,2814.752,3462.193Zm-48.266,65.689a4.408,4.408,0,0,0-6.194.559,4.364,4.364,0,0,0-.83,1.54,51,51,0,0,1-43.413-68.546c.047,0,.093.013.139.013.132,0,.265-.006.4-.019a4.378,4.378,0,0,0,2.88-7.29,51.506,51.506,0,0,1,5.237-7.577,50.51,50.51,0,0,1,26.888-16.8,51.476,51.476,0,0,1,12.328-1.506,51.065,51.065,0,0,1,45.122,27.371c-.046.051-.1.091-.145.144a4.377,4.377,0,0,0,3.255,7.2,51.337,51.337,0,0,1,2.442,11.654,50.966,50.966,0,0,1-46.173,55.342c-.181.016-.361.021-.542.035A4.365,4.365,0,0,0,2766.486,3527.882Z" transform="translate(-2710.132 -3425.531)" fill="#17598d"/>
  <g id="Group_605" data-name="Group 605" transform="translate(-2710.132 -3425.531)">
    <path id="Path_789" data-name="Path 789" d="M2779.41,3442.391a3.709,3.709,0,0,1,2.623,4.092c-.078,2.4-.018,4.8-.018,7.312h2.483c2.64,0,3.891,1.241,3.891,3.866q0,23.181,0,46.362a3.645,3.645,0,0,1-.082.936,1.061,1.061,0,0,1-2.067-.15,6.927,6.927,0,0,1-.029-.945q0-22.962,0-45.925c0-.267.013-.535-.008-.8a1.111,1.111,0,0,0-1.151-1.156c-.217-.016-.436,0-.655,0h-36.245c-1.5,0-1.769.267-1.769,1.786V3513c0,1.466.272,1.739,1.735,1.739H2784.5c1.416,0,1.7-.284,1.7-1.7,0-1.043-.01-2.086,0-3.129.011-.782.458-1.277,1.1-1.262a1.127,1.127,0,0,1,1.071,1.232c.02,1.286.052,2.574-.013,3.857a3.229,3.229,0,0,1-3.378,3.184q-18.7.01-37.409,0a3.267,3.267,0,0,1-3.381-3.415c-.016-2.377,0-4.755,0-7.132v-.853c-.974,0-1.865,0-2.757,0a3.321,3.321,0,0,1-3.615-3.628q-.006-27.95-.009-55.9a3.567,3.567,0,0,1,2.58-3.606h7.425c.455.384.882.78.613,1.466s-.824.725-1.438.721c-1.722-.011-3.444,0-5.166,0-1.582,0-1.825.238-1.825,1.795q0,27.615,0,55.231c0,.266-.073.595.052.785.233.351.563.848.9.884a30.5,30.5,0,0,0,3.243.042v-21.73q0-12.116,0-24.232a3.3,3.3,0,0,1,2.385-3.425q13.11-4.187,26.222-8.37c.878-.281,1.751-.577,2.626-.865l-.031-.115h-.8q-10.844,0-21.685.006c-.629,0-1.2-.089-1.419-.753s.148-1.1.688-1.436Zm.388,3.213-25.049,8.015.036.123H2779.8Z" fill="#17598d" stroke="#17598d" stroke-width="0.5"/>
    <path id="Path_790" data-name="Path 790" d="M2757.208,3473.824c-1.793,0-3.587.008-5.38,0a2.176,2.176,0,0,1-2.388-2.4q-.014-5.016,0-10.033a2.141,2.141,0,0,1,2.355-2.35q5.453-.023,10.905,0a2.112,2.112,0,0,1,2.332,2.354q.012,5.016,0,10.033a2.141,2.141,0,0,1-2.372,2.394C2760.843,3473.832,2759.026,3473.824,2757.208,3473.824Zm-5.545-12.564v10.324h11.146V3461.26Z" fill="#17598d" stroke="#17598d" stroke-width="0.5"/>
    <path id="Path_791" data-name="Path 791" d="M2757.218,3493.338c-1.818,0-3.635.005-5.453,0a2.137,2.137,0,0,1-2.323-2.3q-.021-5.09,0-10.178a2.1,2.1,0,0,1,2.271-2.271q5.524-.027,11.05,0a2.076,2.076,0,0,1,2.269,2.328q.014,5.052,0,10.1a2.12,2.12,0,0,1-2.362,2.32C2760.853,3493.341,2759.035,3493.338,2757.218,3493.338Zm5.593-2.221v-10.306H2751.66v10.306Z" fill="#17598d" stroke="#17598d" stroke-width="0.5"/>
    <path id="Path_792" data-name="Path 792" d="M2757.242,3511.686c-1.817,0-3.635,0-5.452,0a2.147,2.147,0,0,1-2.349-2.351q-.018-5.016,0-10.032a2.126,2.126,0,0,1,2.322-2.373q5.488-.03,10.977,0a2.079,2.079,0,0,1,2.293,2.308q.015,5.052,0,10.1a2.117,2.117,0,0,1-2.339,2.343C2760.877,3511.691,2759.059,3511.686,2757.242,3511.686Zm-5.566-12.54v10.322h11.12v-10.322Z" fill="#17598d" stroke="#17598d" stroke-width="0.5"/>
    <path id="Path_793" data-name="Path 793" d="M2775.34,3501.157c2.131,0,4.262,0,6.392,0,.913,0,1.414.408,1.4,1.1-.015.664-.512,1.074-1.369,1.076q-6.465.011-12.93,0c-.865,0-1.347-.406-1.357-1.082-.011-.7.475-1.092,1.4-1.094C2771.03,3501.153,2773.185,3501.157,2775.34,3501.157Z" fill="#17598d" stroke="#17598d" stroke-width="0.5"/>
    <path id="Path_794" data-name="Path 794" d="M2775.244,3465.44c-2.131,0-4.262,0-6.392,0-.888,0-1.357-.367-1.377-1.042-.022-.7.47-1.132,1.379-1.134q6.465-.012,12.93,0c.85,0,1.345.433,1.346,1.1s-.488,1.073-1.348,1.076C2779.6,3465.444,2777.423,3465.44,2775.244,3465.44Z" fill="#17598d" stroke="#17598d" stroke-width="0.5"/>
    <path id="Path_795" data-name="Path 795" d="M2775.265,3484.981q-3.087,0-6.175,0a3.557,3.557,0,0,1-.793-.057,1.062,1.062,0,0,1,.032-2.074,4.048,4.048,0,0,1,.795-.047q6.175,0,12.349,0c1.126,0,1.644.338,1.657,1.07.013.758-.523,1.112-1.691,1.112Z" fill="#17598d" stroke="#17598d" stroke-width="0.5"/>
    <path id="Path_796" data-name="Path 796" d="M2771.111,3467.414c.8,0,1.6-.012,2.393,0a1.069,1.069,0,0,1,1.178,1.016,1.088,1.088,0,0,1-1.137,1.149q-2.464.042-4.931,0a1.085,1.085,0,1,1,.032-2.165C2769.467,3467.4,2770.289,3467.413,2771.111,3467.414Z" fill="#17598d" stroke="#17598d" stroke-width="0.5"/>
    <path id="Path_797" data-name="Path 797" d="M2771.073,3507.459c-.774,0-1.548.009-2.321,0-.789-.011-1.27-.427-1.279-1.078s.469-1.093,1.251-1.1q2.356-.016,4.714,0c.779,0,1.262.45,1.248,1.1a1.114,1.114,0,0,1-1.219,1.07C2772.669,3507.471,2771.871,3507.458,2771.073,3507.459Z" fill="#17598d" stroke="#17598d" stroke-width="0.5"/>
    <path id="Path_798" data-name="Path 798" d="M2771.136,3486.934c.8,0,1.6-.013,2.393,0a1.083,1.083,0,1,1,.064,2.163q-2.5.043-5,0a1.069,1.069,0,0,1-1.116-1.091,1.088,1.088,0,0,1,1.2-1.075C2769.491,3486.923,2770.314,3486.934,2771.136,3486.934Z" fill="#17598d" stroke="#17598d" stroke-width="0.5"/>
  </g>
</svg>
