<svg id="Component_84_1" data-name="Component 84 – 1" xmlns="http://www.w3.org/2000/svg" width="107.381" height="110.125" viewBox="0 0 107.381 110.125">
  <path id="Path_787" data-name="Path 787" d="M2814.752,3834.9a4.386,4.386,0,0,0-2.876-7.987,4.308,4.308,0,0,0-.456.086,53.747,53.747,0,0,0-88.817-9.482,54.262,54.262,0,0,0-5.505,7.959,4.385,4.385,0,0,0-3.725,7.657c.033.028.071.048.1.074a53.664,53.664,0,0,0,46.061,72.221,4.347,4.347,0,0,0,1.313,1.913,4.4,4.4,0,0,0,6.193-.558,4.342,4.342,0,0,0,.747-1.335,54.592,54.592,0,0,0,8.945-1.427,53.6,53.6,0,0,0,40.554-56.933A54.255,54.255,0,0,0,2814.752,3834.9Zm-48.266,65.689a4.409,4.409,0,0,0-6.194.559,4.362,4.362,0,0,0-.83,1.54,51,51,0,0,1-43.413-68.546c.047,0,.093.013.139.013.132,0,.265-.006.4-.018a4.379,4.379,0,0,0,2.88-7.291,51.506,51.506,0,0,1,5.237-7.577,50.51,50.51,0,0,1,26.888-16.8,51.524,51.524,0,0,1,12.328-1.505,51.062,51.062,0,0,1,45.122,27.37c-.046.051-.1.091-.145.144a4.377,4.377,0,0,0,3.255,7.2,51.331,51.331,0,0,1,2.442,11.655,50.966,50.966,0,0,1-46.173,55.341c-.181.016-.361.021-.542.035A4.371,4.371,0,0,0,2766.486,3900.587Z" transform="translate(-2710.132 -3798.237)" fill="#17598d"/>
  <g id="Group_608" data-name="Group 608" transform="translate(-2710.132 -3798.237)">
    <path id="Path_803" data-name="Path 803" d="M2777.694,3818.573a10.2,10.2,0,0,1,.849.757q4.931,5.473,9.833,10.975a2.091,2.091,0,0,1,.509,1.255c.032,6.263.022,12.527.021,18.791,0,.153-.015.3-.025.494h-2.255v-18.4c-.319-.014-.56-.034-.8-.034-1.96,0-3.921.006-5.882,0a3.458,3.458,0,0,1-3.736-3.755q0-3.482,0-6.962v-.814h-31.8c-1.342,0-1.664.324-1.664,1.683q0,11.39,0,22.78v.9h-2.314v-.868c0-7.48.036-14.961-.023-22.441-.017-2.151.686-3.665,2.8-4.356Zm7.409,11.506-6.592-7.333c0,2.184-.01,4.164.005,6.143a1.055,1.055,0,0,0,.971,1.177C2781.3,3830.1,2783.116,3830.079,2785.1,3830.079Z" fill="#17598d" stroke="#17598d" stroke-width="0.25"/>
    <path id="Path_804" data-name="Path 804" d="M2784.81,3867.5l-3.327,3.268c.364.336.756.676,1.122,1.041a3.337,3.337,0,0,1,.926,3.527,3.288,3.288,0,0,1-2.683,2.376c-.13.027-.258.065-.4.1a3.515,3.515,0,0,1-3.241,3.249c-.468,2.061-1.318,2.913-3.269,3.259a3.487,3.487,0,0,1-3.083,3.224c-1.861.266-2.927-1-4.024-2.155-3,1.7-5.442.779-5.928-2.063a9.987,9.987,0,0,1-2.2-1.245,9.293,9.293,0,0,1-1.267-2.066l.181-.144c-.235-.057-.472-.108-.7-.174a3.264,3.264,0,0,1-2.467-2.591.686.686,0,0,0-.609-.645,3.418,3.418,0,0,1-2.6-4.429.9.9,0,0,0-.171-.74c-2.337-2.377-4.7-4.731-7.088-7.123-.852.539-1.476.207-2.115-.452-1.931-1.988-3.91-3.928-5.867-5.89a1.237,1.237,0,0,1-.008-2.076q6.306-6.312,12.619-12.617c.747-.746,1.32-.739,2.079.019q3.015,3.007,6.023,6.022c.7.7.749.993.315,1.973.607.6,1.218,1.227,1.867,1.815a1.078,1.078,0,0,0,.661.214c1.194.021,2.388.03,3.582,0a1.8,1.8,0,0,1,1.44.586c.889.926,1.82,1.813,2.711,2.737a.979.979,0,0,0,.952.309,3.206,3.206,0,0,0,2.128-1.142,15.818,15.818,0,0,1,1.478-1.351,9.345,9.345,0,0,1-.961-.78,1.077,1.077,0,0,1-.023-1.631q3.226-3.273,6.5-6.5c.572-.564,1.2-.488,1.841.149q2.8,2.79,5.594,5.591,4.3,4.3,8.6,8.6c.881.881.876,1.376-.015,2.268q-2.867,2.869-5.736,5.736c-1.075,1.074-1.465,1.075-2.56.006C2784.991,3867.665,2784.89,3867.576,2784.81,3867.5Zm-10.417-3.768a9.13,9.13,0,0,1,.312,1.379,3.334,3.334,0,0,1-1.948,3.338,3.493,3.493,0,0,1-3.944-.671c-1.277-1.239-2.532-2.5-3.777-3.775a.619.619,0,0,0-.8-.141c-.794.29-1.629.464-2.443.7a1.37,1.37,0,0,0-.586.26q-3.719,3.69-7.409,7.406a1.118,1.118,0,0,0-.074,1.683,1.139,1.139,0,0,0,1.691-.057c.941-.906,1.854-1.842,2.782-2.762.136-.136.291-.253.409-.355l1.617,1.563c-.168.177-.317.339-.472.495-.891.893-1.792,1.777-2.673,2.68a1.136,1.136,0,0,0-.1,1.684,1.159,1.159,0,0,0,1.736-.062c.2-.184.384-.38.575-.572l2.516-2.523,1.715,1.587c-1.02,1.007-2.019,1.983-3,2.974a1.922,1.922,0,0,0-.5.7,1.056,1.056,0,0,0,.464,1.294,1.088,1.088,0,0,0,1.471-.193c1.046-1.051,2.08-2.113,3.13-3.183l1.677,1.719c-.591.57-1.21,1.159-1.82,1.758-.483.473-.968.945-1.426,1.441a1.09,1.09,0,0,0-.121,1.428,1.054,1.054,0,0,0,1.3.441.977.977,0,0,0,.715-1.18,3.3,3.3,0,0,1,2.108-3.49,10.685,10.685,0,0,1,1.078-.3c.429-2.018,1.114-2.7,3.271-3.235a3.539,3.539,0,0,1,3.259-3.278c.588-2.436,1.717-3.3,4.113-3.187a1.68,1.68,0,0,0,.537-.157Zm-.937-11.07,12.915,12.93,4.733-4.692-12.921-12.929Zm-20.619,16.99,5.817-5.767-1.227-.931,1.595-1.612c1.935,1.321,3.05,1.293,4.963-.117a1.156,1.156,0,0,1,1.687.173c.916.9,1.817,1.813,2.725,2.72.685.684,1.359,1.38,2.064,2.043a1.1,1.1,0,0,0,1.484.1.993.993,0,0,0,.4-1.248,2.431,2.431,0,0,0-.549-.751q-3.19-3.211-6.4-6.4c-.781-.779-1.444-1.856-2.388-2.241a8.532,8.532,0,0,0-3.335-.106,1.6,1.6,0,0,0-.98.41q-4.732,4.677-9.422,9.4c-.139.139-.265.289-.365.4Zm-14.451-12.946,4.79,4.793,11.206-11.2-4.8-4.8Zm16.976-3.871-9.693,9.7,1.531,1.468,9.663-9.664Zm16.413,4.7,9.656,9.637,1.544-1.411-9.673-9.672Zm6.712,13.881c-.319.277-.778.49-.883.816a1.539,1.539,0,0,0,.189,1.221,13.075,13.075,0,0,0,1.649,1.688,1.1,1.1,0,0,0,1.582.015,1.15,1.15,0,0,0,.023-1.638c-.518-.563-1.057-1.11-1.624-1.623A4.438,4.438,0,0,0,2778.487,3871.422Zm-.3,6.339c-.1-.338-.1-.58-.224-.708a26.276,26.276,0,0,0-2.094-2.072.952.952,0,0,0-1.336.208.99.99,0,0,0-.121,1.4,15,15,0,0,0,1.959,1.93,1.3,1.3,0,0,0,1.115.04C2777.8,3878.427,2777.986,3878.011,2778.19,3877.761Zm-3.25,3.2c-.116-.327-.133-.562-.259-.7a26.416,26.416,0,0,0-2-2,1.123,1.123,0,0,0-1.544,1.563,13.944,13.944,0,0,0,1.962,1.941,1.372,1.372,0,0,0,1.175.033C2774.574,3881.674,2774.742,3881.23,2774.94,3880.964Zm-3.251,3.259a2.616,2.616,0,0,0-.3-.739,24.259,24.259,0,0,0-1.918-1.892,1,1,0,0,0-1.362.095.977.977,0,0,0-.231,1.392,13.86,13.86,0,0,0,2,1.986,1.285,1.285,0,0,0,1.119.006C2771.3,3884.923,2771.479,3884.5,2771.689,3884.223Z" fill="#17598d" stroke="#17598d" stroke-width="0.25"/>
    <path id="Path_805" data-name="Path 805" d="M2740.472,3865.92h2.268v.8q0,8.517,0,17.036c0,1.441.3,1.741,1.742,1.741h14.368v2.3h-.668q-7,0-14,0a3.459,3.459,0,0,1-3.754-3.68c-.016-5.882-.006-11.763,0-17.645C2740.428,3866.3,2740.455,3866.125,2740.472,3865.92Z" fill="#17598d" stroke="#17598d" stroke-width="0.25"/>
    <path id="Path_806" data-name="Path 806" d="M2754.337,3837.072h27.6v2.219h-27.6Z" fill="#17598d" stroke="#17598d" stroke-width="0.25"/>
    <path id="Path_807" data-name="Path 807" d="M2776.237,3887.8v-2.3h.752q4.053,0,8.107,0c1.1,0,1.5-.4,1.505-1.513q0-6.315,0-12.63v-.825h2.3v.644q0,6.417,0,12.834a3.5,3.5,0,0,1-3.778,3.793q-4.12,0-8.242,0Z" fill="#17598d" stroke="#17598d" stroke-width="0.25"/>
    <path id="Path_808" data-name="Path 808" d="M2773.883,3844.013v2.205h-17.238v-2.205Z" fill="#17598d" stroke="#17598d" stroke-width="0.25"/>
    <path id="Path_809" data-name="Path 809" d="M2761.161,3830.147v2.229h-13.735v-2.229Z" fill="#17598d" stroke="#17598d" stroke-width="0.25"/>
    <path id="Path_810" data-name="Path 810" d="M2752.015,3827.741v-2.215h9.148v2.215Z" fill="#17598d" stroke="#17598d" stroke-width="0.25"/>
    <path id="Path_811" data-name="Path 811" d="M2747.4,3839.307v-2.225h4.521v2.225Z" fill="#17598d" stroke="#17598d" stroke-width="0.25"/>
    <path id="Path_812" data-name="Path 812" d="M2747.39,3827.733v-2.2h2.243v2.2Z" fill="#17598d" stroke="#17598d" stroke-width="0.25"/>
  </g>
</svg>
