<svg width="131" height="134" viewBox="0 0 131 134" fill="none" xmlns="http://www.w3.org/2000/svg">
<path d="M127.123 44.5293C128.095 43.8626 128.818 42.8924 129.18 41.7708C129.542 40.6491 129.521 39.4394 129.122 38.3306C128.723 37.2218 127.967 36.2766 126.973 35.6431C125.979 35.0095 124.804 34.7234 123.63 34.8294C123.444 34.8531 123.259 34.8863 123.076 34.9292C118.088 25.433 110.837 17.312 101.964 11.2842C93.0914 5.25641 82.8701 1.50755 72.2041 0.368916C61.5382 -0.76972 50.7558 0.736987 40.8106 4.75588C30.8653 8.77477 22.0633 15.182 15.1829 23.4112C12.6702 26.4286 10.432 29.6647 8.49491 33.0803C7.33066 32.8311 6.11666 32.979 5.04642 33.5008C3.97618 34.0225 3.11144 34.8878 2.59061 35.9585C2.06978 37.0292 1.92268 38.2434 2.17289 39.4075C2.42309 40.5715 3.05621 41.618 3.97098 42.3801C4.01098 42.4131 4.05596 42.4373 4.09696 42.4693C0.577863 51.9212 -0.700116 62.0608 0.363561 72.0904C1.42724 82.1199 4.80349 91.7658 10.2268 100.269C15.6502 108.773 22.9727 115.902 31.6182 121.096C40.2637 126.29 49.9967 129.407 60.0511 130.202C60.3624 131.107 60.9136 131.91 61.646 132.526C62.1845 132.976 62.8061 133.315 63.4756 133.524C64.1452 133.733 64.8495 133.809 65.5481 133.746C66.2468 133.683 66.9261 133.482 67.5474 133.157C68.1687 132.831 68.7198 132.386 69.169 131.847C69.5651 131.365 69.8722 130.816 70.076 130.226C73.7397 129.951 77.3742 129.371 80.9419 128.493C96.0691 124.765 109.358 115.737 118.397 103.047C127.436 90.3573 131.627 74.8474 130.207 59.3323C129.751 54.296 128.716 49.3289 127.123 44.5293Z" fill="white"/>
<path d="M127.123 44.5293C128.095 43.8626 128.818 42.8924 129.18 41.7708C129.542 40.6491 129.521 39.4394 129.122 38.3306C128.723 37.2218 127.967 36.2766 126.973 35.6431C125.979 35.0095 124.804 34.7234 123.63 34.8294C123.444 34.8531 123.259 34.8863 123.076 34.9292C118.088 25.433 110.837 17.312 101.964 11.2842C93.0914 5.25641 82.8701 1.50755 72.2041 0.368916C61.5382 -0.76972 50.7558 0.736987 40.8106 4.75588C30.8653 8.77477 22.0633 15.182 15.1829 23.4112C12.6702 26.4286 10.432 29.6647 8.49491 33.0803C7.33066 32.8311 6.11666 32.979 5.04642 33.5008C3.97618 34.0225 3.11144 34.8878 2.59061 35.9585C2.06978 37.0292 1.92268 38.2434 2.17289 39.4075C2.42309 40.5715 3.05621 41.618 3.97098 42.3801C4.01098 42.4131 4.05596 42.4373 4.09696 42.4693C0.577863 51.9212 -0.700116 62.0608 0.363561 72.0904C1.42724 82.1199 4.80349 91.7658 10.2268 100.269C15.6502 108.773 22.9727 115.902 31.6182 121.096C40.2637 126.29 49.9967 129.407 60.0511 130.202C60.3624 131.107 60.9136 131.91 61.646 132.526C62.1845 132.976 62.8061 133.315 63.4756 133.524C64.1452 133.733 64.8495 133.809 65.5481 133.746C66.2468 133.683 66.9261 133.482 67.5474 133.157C68.1687 132.831 68.7198 132.386 69.169 131.847C69.5651 131.365 69.8722 130.816 70.076 130.226C73.7397 129.951 77.3742 129.371 80.9419 128.493C96.0691 124.765 109.358 115.737 118.397 103.047C127.436 90.3573 131.627 74.8474 130.207 59.3323C129.751 54.296 128.716 49.3289 127.123 44.5293ZM68.491 124.329C67.814 123.764 67.0073 123.375 66.1433 123.197C65.2794 123.02 64.385 123.059 63.5398 123.312C62.6947 123.564 61.9251 124.022 61.3001 124.644C60.6751 125.267 60.214 126.034 59.958 126.878C50.4547 126.054 41.2699 123.047 33.1197 118.09C24.9694 113.134 18.0738 106.362 12.97 98.3035C7.86617 90.2447 4.69211 81.1164 3.6951 71.6297C2.6981 62.1429 3.905 52.5541 7.22196 43.6104C7.27796 43.6104 7.3339 43.6262 7.3909 43.6262C7.5509 43.6262 7.71211 43.6183 7.87211 43.6033C8.85792 43.519 9.80059 43.1613 10.5943 42.5706C11.388 41.9798 12.0011 41.1795 12.3648 40.2593C12.7284 39.3391 12.828 38.3356 12.6526 37.3618C12.4772 36.3881 12.0339 35.4828 11.3721 34.7473C13.2139 31.4972 15.3426 28.418 17.7329 25.5471C26.1481 15.4137 37.6005 8.25687 50.397 5.1343C55.297 3.92332 60.3256 3.3094 65.3731 3.30617C76.6714 3.33005 87.7484 6.43989 97.4085 12.2996C107.069 18.1593 114.945 26.5462 120.186 36.5552C120.13 36.6172 120.063 36.6652 120.01 36.7302C119.561 37.2686 119.222 37.8904 119.012 38.5598C118.803 39.2292 118.728 39.9331 118.791 40.6316C118.854 41.3301 119.054 42.0094 119.379 42.6306C119.705 43.2519 120.15 43.8029 120.688 44.2522C121.606 45.0268 122.763 45.4606 123.964 45.4802C125.498 50.0686 126.494 54.8198 126.931 59.6382C128.407 75.9911 123.327 92.2606 112.808 104.868C102.289 117.475 87.1926 125.388 70.8399 126.865C70.6199 126.885 70.4019 126.891 70.1829 126.908C69.8867 125.9 69.2979 125.002 68.491 124.328V124.329Z" fill="#17598d"/>
<path d="M70.7168 62.5779L69.0938 60.9539L84.5686 45.4817L89.8777 50.7937L104.707 35.9648L106.33 37.5876L89.8728 54.0398L84.5637 48.7288L70.7168 62.5779Z" fill="#17598d" stroke="#17598d" stroke-width="0.708"/>
<path d="M106.666 43.032H104.366V37.925H99.2588V35.625H106.659L106.666 43.032Z" fill="#17598d" stroke="#17598d" stroke-width="0.708"/>
<path d="M81.973 68.8777C78.7756 68.8783 75.6332 68.0456 72.8559 66.4612C70.0785 64.8768 67.7622 62.5957 66.1354 59.843C64.5086 57.0903 63.6276 53.9608 63.5792 50.7637C63.5309 47.5665 64.317 44.4122 65.8598 41.6116C67.4026 38.8109 69.6489 36.4608 72.3771 34.7932C75.1053 33.1256 78.2211 32.198 81.4171 32.102C84.6132 32.0061 87.7791 32.745 90.6024 34.2458C93.4258 35.7467 95.8089 37.9576 97.517 40.6606L95.5751 41.8857C93.7063 38.9528 90.9418 36.7005 87.6918 35.4626C84.4418 34.2248 80.8796 34.0672 77.5331 35.0137C74.5379 35.8715 71.8562 37.5804 69.8131 39.9326C67.7701 42.2849 66.4536 45.1796 66.0236 48.2654C65.5936 51.3512 66.0684 54.4955 67.3905 57.3166C68.7126 60.1378 70.8253 62.5147 73.4718 64.1587C76.1184 65.8027 79.1853 66.6431 82.3002 66.5781C85.4151 66.5132 88.4442 65.5456 91.0199 63.7927C93.5957 62.0398 95.6073 59.577 96.8107 56.7031C98.0141 53.8293 98.3572 50.668 97.799 47.6028L100.059 47.1897C100.54 49.8396 100.434 52.5629 99.7477 55.1672C99.0613 57.7716 97.8115 60.1935 96.0866 62.262C94.3617 64.3304 92.2037 65.995 89.765 67.1382C87.3264 68.2813 84.6663 68.8751 81.973 68.8777Z" fill="#17598d" stroke="#17598d" stroke-width="0.708"/>
<path d="M84.2322 74.6462L82.5322 68.7002L84.7393 68.0681L85.8113 71.8083L89.9902 70.6082L88.9182 66.8701L91.1243 66.2383L92.8242 72.1821L84.2322 74.6462Z" fill="#17598d" stroke="#17598d" stroke-width="0.708"/>
<path d="M93.9924 99.9006C92.4332 99.8963 90.9174 99.3858 89.6731 98.446C88.4288 97.5063 87.5233 96.1881 87.0925 94.6895L80.9854 73.1836L94.8015 69.2266L100.908 90.7346C101.212 91.8052 101.264 92.9317 101.059 94.0256C100.854 95.1195 100.399 96.1509 99.728 97.0391C99.0574 97.9272 98.1899 98.6481 97.1938 99.1445C96.1978 99.641 95.1005 99.8998 93.9875 99.9006H93.9924ZM83.8245 74.7615L89.3064 94.0615C89.4837 94.6787 89.7809 95.2549 90.1809 95.7573C90.5809 96.2597 91.0759 96.6784 91.6377 96.9895C92.1995 97.3006 92.817 97.4979 93.4551 97.5703C94.0932 97.6427 94.7392 97.5889 95.3564 97.4116C95.9737 97.2343 96.5499 96.9371 97.0522 96.5371C97.5546 96.1371 97.9733 95.6421 98.2844 95.0803C98.5955 94.5185 98.7928 93.901 98.8652 93.2629C98.9376 92.6249 98.8838 91.9788 98.7065 91.3616L93.2285 72.0667L83.8245 74.7615Z" fill="#17598d" stroke="#17598d" stroke-width="0.708"/>
<path d="M77.2913 101.902H58.0312V92.918H77.2913V101.902ZM60.3271 99.6021H74.9951V95.2129H60.3271V99.6021Z" fill="#17598d" stroke="#17598d" stroke-width="0.708"/>
<path d="M77.2913 95.2124H58.0312V86.2266H77.2913V95.2124ZM60.3271 92.9124H74.9951V88.5186H60.3271V92.9124Z" fill="#17598d" stroke="#17598d" stroke-width="0.708"/>
<path d="M77.2913 88.5229H58.0312V79.5391H77.2913V88.5229ZM60.3271 86.2229H74.9951V81.8311H60.3271V86.2229Z" fill="#17598d" stroke="#17598d" stroke-width="0.708"/>
<path d="M77.2913 81.8347H58.0312V72.8477H77.2913V81.8347ZM60.3271 79.5347H74.9951V75.1348H60.3271V79.5347Z" fill="#17598d" stroke="#17598d" stroke-width="0.708"/>
<path d="M60.3264 101.902H41.0645V92.918H60.3264V101.902ZM43.3604 99.6021H58.0305V95.2129H43.3604V99.6021Z" fill="#17598d" stroke="#17598d" stroke-width="0.708"/>
<path d="M43.3608 101.902H24.335V92.918H43.3608V101.902ZM26.6309 99.6021H41.0649V95.2129H26.6309V99.6021Z" fill="#17598d" stroke="#17598d" stroke-width="0.708"/>
<path d="M60.3264 95.2124H41.0645V86.2266H60.3264V95.2124ZM43.3604 92.9124H58.0305V88.5186H43.3604V92.9124Z" fill="#17598d" stroke="#17598d" stroke-width="0.708"/>
<path d="M51.6926 45.6101L49.6567 44.5471L54.0266 36.175H48.5957L48.0017 38.334H39.0376L42.1077 44.572L40.0498 45.585L35.3496 36.0381H46.2556L46.8496 33.8789H57.8186L51.6926 45.6101Z" fill="#17598d" stroke="#17598d" stroke-width="0.708"/>
<path d="M54.2549 52.0417H37.884C37.2514 52.0412 36.6446 51.7896 36.1973 51.3423C35.7499 50.8949 35.4986 50.2884 35.498 49.6558V46.3157C35.4986 45.683 35.7499 45.0765 36.1973 44.6292C36.6446 44.1818 37.2514 43.9302 37.884 43.9297H54.2549C54.8875 43.9302 55.4941 44.1818 55.9414 44.6292C56.3888 45.0765 56.6403 45.683 56.6409 46.3157V49.6558C56.6403 50.2884 56.3888 50.8949 55.9414 51.3423C55.4941 51.7896 54.8875 52.0412 54.2549 52.0417ZM37.884 46.2258C37.8602 46.2258 37.8372 46.2353 37.8203 46.2522C37.8034 46.2691 37.7939 46.2918 37.7939 46.3157V49.6558L54.2549 49.7456L54.345 46.3157L37.884 46.2258Z" fill="#17598d" stroke="#17598d" stroke-width="0.708"/>
<path d="M27.097 95.5117C25.066 91.2776 24.1302 86.6013 24.3751 81.9116C24.9401 71.5646 27.7292 57.6227 37.8212 49.9727L39.2072 51.8027C29.3232 59.2957 27.1071 73.9606 26.6671 82.0366C26.4442 86.3402 27.3037 90.631 29.1671 94.5166L27.097 95.5117Z" fill="#17598d" stroke="#17598d" stroke-width="0.708"/>
<path d="M47.8628 80.1086H44.2727C43.0434 80.1071 41.8649 79.6178 40.9956 78.7485C40.1263 77.8793 39.6373 76.7008 39.6357 75.4714H41.9358C41.9374 76.0908 42.1839 76.6844 42.6218 77.1223C43.0598 77.5602 43.6534 77.807 44.2727 77.8086H47.8596C48.4802 77.8086 49.0756 77.5621 49.5144 77.1233C49.9532 76.6845 50.1997 76.0891 50.1997 75.4685C50.1997 74.8479 49.9532 74.2528 49.5144 73.814C49.0756 73.3751 48.4802 73.1287 47.8596 73.1287H44.2727C43.043 73.1287 41.8637 72.64 40.9941 71.7705C40.1246 70.901 39.6362 69.7216 39.6362 68.4919C39.6362 67.2623 40.1246 66.0831 40.9941 65.2136C41.8637 64.3441 43.043 63.8555 44.2727 63.8555H47.8596C49.0889 63.8571 50.2675 64.3461 51.1367 65.2153C52.006 66.0846 52.4952 67.2631 52.4968 68.4924H50.1968C50.1965 67.8716 49.9497 67.2764 49.5107 66.8374C49.0718 66.3984 48.4765 66.1519 47.8557 66.1516H44.2727C43.652 66.1516 43.0566 66.3982 42.6177 66.8372C42.1787 67.2761 41.9321 67.8712 41.9321 68.4919C41.9321 69.1127 42.1787 69.708 42.6177 70.147C43.0566 70.5859 43.652 70.8325 44.2727 70.8325H47.8596C49.0892 70.8325 50.2685 71.321 51.1379 72.1904C52.0074 73.0598 52.4956 74.239 52.4956 75.4685C52.4956 76.698 52.0074 77.8772 51.1379 78.7466C50.2685 79.616 49.0892 80.1045 47.8596 80.1045L47.8628 80.1086Z" fill="#17598d" stroke="#17598d" stroke-width="0.708"/>
<path d="M47.2169 77.8125H44.9209V82.3125H47.2169V77.8125Z" fill="#17598d" stroke="#17598d" stroke-width="0.708"/>
<path d="M47.2169 61.6562H44.9209V65.5032H47.2169V61.6562Z" fill="#17598d" stroke="#17598d" stroke-width="0.708"/>
<path d="M64.208 74.1885C62.986 67.0885 59.97 57.4386 52.543 51.8066L53.928 49.9766C60.28 54.7926 64.6179 63.0306 66.4729 73.7986L64.208 74.1885Z" fill="#17598d" stroke="#17598d" stroke-width="0.708"/>
</svg>
