<svg width="131" height="134" viewBox="0 0 131 134" fill="none" xmlns="http://www.w3.org/2000/svg">
<path d="M127.122 44.5277C127.526 44.2577 127.892 43.9341 128.209 43.5658C128.968 42.7337 129.438 41.68 129.552 40.5601C129.666 39.4403 129.416 38.3134 128.841 37.3458C128.266 36.3782 127.395 35.6211 126.357 35.1861C125.319 34.7511 124.168 34.6613 123.075 34.9298C118.087 25.4335 110.836 17.3124 101.963 11.2845C93.0905 5.25663 82.8691 1.50771 72.2031 0.368974C61.537 -0.769758 50.7549 0.736891 40.8095 4.75569C30.8641 8.77449 22.0617 15.1816 15.1811 23.4107C12.6692 26.4286 10.4314 29.6644 8.49409 33.0797C7.33002 32.8311 6.11618 32.9795 5.04633 33.5013C3.97648 34.0231 3.11253 34.8882 2.59174 35.9586C2.07096 37.0289 1.92359 38.2427 2.17329 39.4066C2.42298 40.5704 3.05517 41.6172 3.96918 42.3797C4.00918 42.4127 4.05514 42.4368 4.09614 42.4698C0.577473 51.9217 -0.70015 62.061 0.363715 72.0904C1.42758 82.1198 4.80421 91.7657 10.2275 100.269C15.6508 108.773 22.9728 115.902 31.6181 121.096C40.2634 126.29 49.996 129.407 60.0502 130.203C60.3615 131.107 60.9125 131.91 61.645 132.526C62.3008 133.083 63.0831 133.473 63.9233 133.66C64.7635 133.847 65.6363 133.826 66.4667 133.6C67.2972 133.373 68.0602 132.947 68.6889 132.359C69.3177 131.772 69.7934 131.039 70.0751 130.226C73.7389 129.95 77.3737 129.37 80.9414 128.492C96.0686 124.763 109.358 115.735 118.397 103.045C127.436 90.3558 131.626 74.8457 130.206 59.3306C129.75 54.2942 128.715 49.3272 127.122 44.5277Z" fill="white"/>
<path d="M127.122 44.5277C127.526 44.258 127.892 43.9348 128.209 43.5667C128.968 42.7347 129.439 41.681 129.553 40.5609C129.667 39.4408 129.418 38.3136 128.843 37.3458C128.267 36.378 127.396 35.6206 126.358 35.1856C125.319 34.7506 124.168 34.6609 123.075 34.9298C118.087 25.4335 110.836 17.3124 101.963 11.2845C93.0905 5.25663 82.8691 1.50771 72.2031 0.368974C61.537 -0.769758 50.7549 0.736891 40.8095 4.75569C30.8641 8.77449 22.0617 15.1816 15.1811 23.4107C12.6692 26.4286 10.4314 29.6644 8.49409 33.0797C7.33002 32.8311 6.11618 32.9795 5.04633 33.5013C3.97648 34.0231 3.11253 34.8882 2.59174 35.9586C2.07096 37.0289 1.92359 38.2427 2.17329 39.4066C2.42298 40.5704 3.05517 41.6172 3.96918 42.3797C4.00918 42.4127 4.05514 42.4368 4.09614 42.4698C0.577473 51.9217 -0.70015 62.061 0.363715 72.0904C1.42758 82.1198 4.80421 91.7657 10.2275 100.269C15.6508 108.773 22.9728 115.902 31.6181 121.096C40.2634 126.29 49.996 129.407 60.0502 130.203C60.3615 131.107 60.9125 131.91 61.645 132.526C62.1833 132.976 62.805 133.315 63.4746 133.524C64.1441 133.734 64.8486 133.809 65.5473 133.746C66.246 133.683 66.9255 133.483 67.5468 133.157C68.1681 132.832 68.7192 132.387 69.1684 131.848C69.564 131.365 69.8708 130.816 70.0751 130.227C73.7389 129.951 77.3737 129.371 80.9414 128.493C96.0686 124.764 109.358 115.736 118.397 103.046C127.436 90.3568 131.626 74.8467 130.206 59.3316C129.75 54.2949 128.715 49.3275 127.122 44.5277ZM68.4902 124.328C67.8131 123.763 67.0065 123.374 66.1425 123.196C65.2786 123.019 64.3841 123.058 63.539 123.311C62.6939 123.563 61.9248 124.021 61.2998 124.643C60.6747 125.265 60.2132 126.033 59.957 126.877C50.4537 126.052 41.2692 123.044 33.1191 118.088C24.9689 113.132 18.0735 106.36 12.9697 98.3016C7.8658 90.2429 4.69153 81.1147 3.69428 71.628C2.69703 62.1413 3.90361 52.5525 7.22016 43.6087C7.27716 43.6087 7.33311 43.6246 7.38911 43.6246C7.54911 43.6246 7.71104 43.6166 7.87104 43.6026C8.85704 43.5185 9.80032 43.161 10.5942 42.5701C11.388 41.9793 12.001 41.1787 12.3647 40.2584C12.7284 39.338 12.8283 38.3346 12.6528 37.3607C12.4772 36.3868 12.0332 35.4811 11.371 34.7457C13.2127 31.4952 15.3422 28.4163 17.7333 25.5457C26.1485 15.4125 37.6009 8.25572 50.3974 5.13362C55.2973 3.92176 60.3255 3.30776 65.373 3.30476C76.6711 3.32952 87.7483 6.43955 97.4081 12.2991C107.068 18.1587 114.944 26.5454 120.186 36.5538C120.13 36.6158 120.063 36.6636 120.01 36.7286C119.561 37.267 119.222 37.8888 119.013 38.5582C118.803 39.2276 118.728 39.9317 118.791 40.6302C118.854 41.3287 119.054 42.0078 119.379 42.629C119.705 43.2502 120.15 43.8012 120.688 44.2506C121.128 44.6174 121.622 44.9119 122.154 45.1226C122.732 45.3462 123.345 45.4666 123.964 45.4786C125.499 50.0669 126.494 54.8184 126.93 59.6368C128.406 75.9896 123.326 92.259 112.808 104.867C102.289 117.474 87.1929 125.387 70.8403 126.865C70.6203 126.884 70.4021 126.89 70.1821 126.908C69.8859 125.899 69.2972 125 68.4902 124.326V124.328Z" fill="#17598d"/>
<path fill-rule="evenodd" clip-rule="evenodd" d="M37.1021 94.3433L34.1494 96.6133L42.5122 96.5564H42.5225C42.6983 96.5559 42.8725 96.5901 43.0352 96.657C43.1978 96.7238 43.3456 96.822 43.4702 96.946C43.5949 97.0701 43.694 97.2174 43.7617 97.3796C43.8294 97.5419 43.8643 97.716 43.8647 97.8918C43.8652 98.0677 43.831 98.2419 43.7642 98.4045C43.6973 98.5672 43.5991 98.7149 43.4751 98.8396C43.3511 98.9643 43.2038 99.0634 43.0415 99.1311C42.8792 99.1988 42.7051 99.2339 42.5293 99.2344L33.7783 99.2935L35.3232 100.921C35.4443 101.049 35.539 101.199 35.6021 101.363C35.6651 101.527 35.6955 101.702 35.6909 101.878C35.6864 102.054 35.6472 102.227 35.5757 102.388C35.5042 102.548 35.4019 102.693 35.2744 102.814C35.1469 102.936 34.9967 103.03 34.8325 103.093C34.6684 103.156 34.4932 103.186 34.3174 103.182C34.1416 103.177 33.9688 103.138 33.8081 103.067C33.6474 102.995 33.5024 102.893 33.3813 102.765L29.4971 98.6704C29.3691 98.5341 29.2713 98.3725 29.2095 98.196C29.1477 98.0196 29.1233 97.8323 29.1382 97.646C29.1531 97.4596 29.2069 97.2784 29.2959 97.114C29.3849 96.9496 29.5073 96.8057 29.6553 96.6914L35.4712 92.2205C35.6106 92.1132 35.7696 92.0345 35.9395 91.9888C36.1093 91.9431 36.2865 91.9311 36.4609 91.9539C36.6353 91.9766 36.8036 92.0336 36.9561 92.1213C37.1085 92.2091 37.2419 92.3259 37.3491 92.4653C37.4563 92.6047 37.5353 92.764 37.5811 92.9338C37.6268 93.1037 37.6385 93.2807 37.6157 93.4551C37.593 93.6295 37.536 93.7978 37.4482 93.9502C37.3605 94.1026 37.2439 94.236 37.1045 94.3433H37.1021ZM108.602 81.9983C108.602 87.3913 106.614 91.8603 102.854 94.9233C99.6859 97.3705 95.8726 98.8408 91.8813 99.1543L94.8003 102.073C94.925 102.197 95.0241 102.345 95.0918 102.508C95.1595 102.67 95.1945 102.844 95.1948 103.021C95.1952 103.197 95.1608 103.371 95.0938 103.534C95.0267 103.696 94.9284 103.845 94.8042 103.969C94.68 104.094 94.5326 104.193 94.3701 104.261C94.2076 104.329 94.033 104.364 93.8569 104.364C93.6809 104.364 93.5066 104.33 93.3438 104.263C93.1809 104.196 93.033 104.098 92.9082 103.973L87.7651 98.8303C87.6407 98.706 87.5424 98.5585 87.4751 98.396C87.4078 98.2335 87.373 98.0592 87.373 97.8833C87.373 97.7074 87.4078 97.5333 87.4751 97.3708C87.5424 97.2084 87.6407 97.0606 87.7651 96.9363L92.7114 91.9893C92.8357 91.8645 92.9834 91.7654 93.146 91.6978C93.3086 91.6301 93.4826 91.5951 93.6587 91.5947C93.8348 91.5944 94.0095 91.629 94.1724 91.696C94.3352 91.7631 94.4832 91.8615 94.6079 91.9858C94.7327 92.1101 94.8317 92.2578 94.8994 92.4204C94.9671 92.583 95.0021 92.7572 95.0024 92.9333C95.0028 93.1095 94.9685 93.284 94.9014 93.4468C94.8343 93.6096 94.7356 93.7576 94.6113 93.8823L92.0601 96.4333C99.1601 95.5113 105.927 91.3612 105.927 82.0002C105.922 78.1197 104.378 74.3996 101.634 71.6558C98.8901 68.912 95.1697 67.3685 91.2891 67.3643H85.8135C85.4584 67.3643 85.1173 67.2233 84.8662 66.9722C84.6151 66.7211 84.4741 66.3805 84.4741 66.0254C84.4741 65.6703 84.6151 65.3297 84.8662 65.0786C85.1173 64.8275 85.4584 64.6863 85.8135 64.6863H91.2891C95.8809 64.69 100.284 66.5157 103.531 69.7627C106.778 73.0096 108.604 77.4125 108.607 82.0044L108.602 81.9983ZM54.5142 93.8083C54.5163 93.4542 54.6587 93.1151 54.9097 92.8652C55.1607 92.6153 55.5003 92.4749 55.8545 92.4744L75.1665 92.5393C75.5216 92.5393 75.8622 92.6805 76.1133 92.9316C76.3644 93.1828 76.5054 93.5233 76.5054 93.8784C76.5054 94.2335 76.3644 94.5741 76.1133 94.8252C75.8622 95.0763 75.5216 95.2173 75.1665 95.2173H75.1602L55.8481 95.1533C55.4934 95.1515 55.1542 95.0091 54.9043 94.7573C54.6544 94.5056 54.5143 94.165 54.5151 93.8103L54.5142 93.8083ZM87.8271 37.7615C87.5765 37.5103 87.436 37.1698 87.436 36.8149C87.436 36.4601 87.5765 36.1196 87.8271 35.8684L92.7744 30.9163C92.8992 30.7919 93.0471 30.6934 93.21 30.6262C93.3728 30.5591 93.547 30.5246 93.7231 30.5249C93.8993 30.5252 94.0737 30.5603 94.2363 30.6279C94.399 30.6956 94.547 30.7947 94.6714 30.9194C94.7957 31.0442 94.8943 31.1921 94.9614 31.355C95.0286 31.5178 95.0628 31.6923 95.0625 31.8684C95.0622 32.0446 95.0276 32.219 94.96 32.3816C94.8923 32.5442 94.7932 32.692 94.6685 32.8164L92.3613 35.1223H106.793C107.142 35.1318 107.473 35.2772 107.717 35.5273C107.96 35.7775 108.097 36.1129 108.097 36.4619C108.097 36.811 107.96 37.1461 107.717 37.3962C107.473 37.6464 107.142 37.7917 106.793 37.8013H91.6504L94.8584 41.0093C94.9832 41.1334 95.0822 41.2811 95.1499 41.4436C95.2176 41.6061 95.2525 41.7803 95.2529 41.9563C95.2533 42.1323 95.2193 42.3065 95.1523 42.4692C95.0854 42.632 94.987 42.78 94.8628 42.9048C94.7386 43.0295 94.5912 43.1288 94.4287 43.1965C94.2663 43.2643 94.092 43.2994 93.916 43.2998C93.74 43.3002 93.5656 43.2659 93.4028 43.199C93.2401 43.132 93.092 43.0336 92.9673 42.9094L87.8252 37.7664L87.8271 37.7615ZM55.2881 66.0193C55.2878 65.8434 55.3225 65.6692 55.3896 65.5066C55.4568 65.344 55.5553 65.1964 55.6797 65.072C55.8041 64.9476 55.9522 64.8489 56.1147 64.7817C56.2773 64.7145 56.4515 64.6802 56.6274 64.6804H76.1685C76.5236 64.6804 76.8641 64.8214 77.1152 65.0725C77.3663 65.3236 77.5073 65.6642 77.5073 66.0193C77.5073 66.3744 77.3663 66.715 77.1152 66.9661C76.8641 67.2172 76.5236 67.3584 76.1685 67.3584H56.6304C56.4545 67.3585 56.2802 67.3238 56.1177 67.2566C55.9552 67.1893 55.8075 67.0909 55.6831 66.9666C55.5587 66.8422 55.4603 66.6945 55.3931 66.532C55.3258 66.3695 55.2914 66.1952 55.2915 66.0193H55.2881ZM22.8882 51.2383C22.8932 46.9646 24.5932 42.8675 27.6152 39.8457C30.6373 36.8239 34.7346 35.1241 39.0083 35.1194H43.9351C44.284 35.1289 44.6155 35.2742 44.8589 35.5244C45.1023 35.7746 45.2388 36.1099 45.2388 36.459C45.2388 36.808 45.1023 37.1431 44.8589 37.3933C44.6155 37.6435 44.284 37.7888 43.9351 37.7983H39.0083C35.5086 37.7887 32.143 39.1446 29.6274 41.5776C27.1119 44.0107 25.6447 47.3291 25.5376 50.8271C25.4305 54.3252 26.6921 57.727 29.0542 60.3093C31.4163 62.8917 34.6923 64.4508 38.186 64.6553L35.1382 61.9294C35.0069 61.8121 34.9002 61.6699 34.8237 61.5112C34.7473 61.3526 34.7028 61.1805 34.6929 61.0046C34.683 60.8288 34.708 60.6528 34.7661 60.4866C34.8243 60.3203 34.9144 60.1672 35.0317 60.0359C35.1491 59.9046 35.291 59.7976 35.4497 59.7212C35.6084 59.6448 35.7807 59.6005 35.9565 59.5906C36.1324 59.5807 36.3084 59.6054 36.4746 59.6636C36.6408 59.7217 36.794 59.8121 36.9253 59.9294L42.6113 65.0193C42.7469 65.1408 42.8561 65.2887 42.9326 65.4539C43.0091 65.619 43.0512 65.798 43.0562 65.98C43.0611 66.1619 43.0288 66.3429 42.9614 66.512C42.8941 66.681 42.7928 66.8347 42.6641 66.9634L36.5181 73.1094C36.3937 73.2341 36.2461 73.3332 36.0835 73.4009C35.9209 73.4685 35.7465 73.5034 35.5703 73.5037C35.3942 73.5039 35.22 73.4695 35.0571 73.4023C34.8943 73.3352 34.7458 73.2367 34.6211 73.1123C34.4963 72.9879 34.3973 72.8404 34.3296 72.6777C34.2619 72.5151 34.2273 72.3407 34.2271 72.1646C34.2268 71.9884 34.261 71.8137 34.3281 71.6509C34.3953 71.488 34.4938 71.3401 34.6182 71.2153L38.4873 67.3474C34.3056 67.2077 30.3415 65.4494 27.4312 62.4434C24.5208 59.4373 22.8916 55.4184 22.8872 51.2344L22.8882 51.2383ZM55.9185 36.4595C55.9183 36.2835 55.9528 36.1091 56.02 35.9465C56.0873 35.784 56.1857 35.6364 56.3101 35.512C56.4344 35.3875 56.5821 35.2888 56.7446 35.2214C56.9071 35.1541 57.0814 35.1194 57.2573 35.1194H75.0181C75.367 35.1289 75.6985 35.2742 75.9419 35.5244C76.1853 35.7746 76.3218 36.1099 76.3218 36.459C76.3218 36.808 76.1853 37.1431 75.9419 37.3933C75.6985 37.6435 75.367 37.7888 75.0181 37.7983H57.2573C56.9023 37.7981 56.5616 37.6571 56.3105 37.406C56.0595 37.155 55.9187 36.8145 55.9185 36.4595ZM49.4604 85.7993V101.883C49.4604 102.565 49.7312 103.219 50.2134 103.701C50.6955 104.184 51.3494 104.454 52.0312 104.454H78.9834C79.6653 104.454 80.3191 104.184 80.8013 103.701C81.2834 103.219 81.5542 102.565 81.5542 101.883V85.7993C81.5542 85.1174 81.2834 84.4636 80.8013 83.9814C80.3191 83.4993 79.6653 83.2283 78.9834 83.2283H52.0312C51.3494 83.2283 50.6955 83.4993 50.2134 83.9814C49.7312 84.4636 49.4604 85.1174 49.4604 85.7993ZM52.0312 107.132H78.9834C80.3758 107.131 81.7107 106.577 82.6953 105.592C83.6799 104.608 84.2338 103.273 84.2354 101.88V85.7993C84.2338 84.4069 83.6799 83.072 82.6953 82.0874C81.7107 81.1028 80.3758 80.549 78.9834 80.5474H52.0312C50.6395 80.55 49.3055 81.1044 48.3218 82.0889C47.338 83.0733 46.7848 84.4076 46.7832 85.7993V101.882C46.784 103.274 47.3369 104.609 48.3208 105.594C49.3047 106.579 50.6392 107.133 52.0312 107.135V107.132ZM49.4683 57.9724V74.0564C49.4683 74.7383 49.739 75.3921 50.2212 75.8743C50.7033 76.3564 51.3572 76.6274 52.0391 76.6274H78.9912C79.6731 76.6274 80.3269 76.3564 80.8091 75.8743C81.2912 75.3921 81.5625 74.7383 81.5625 74.0564V57.9724C81.5617 57.2908 81.2906 56.6373 80.8086 56.1553C80.3266 55.6733 79.6728 55.4022 78.9912 55.4014H52.0391C51.3574 55.4022 50.7042 55.6733 50.2222 56.1553C49.7402 56.6373 49.4691 57.2908 49.4683 57.9724ZM52.0391 79.3064H78.9912C80.3838 79.3048 81.719 78.7507 82.7036 77.7659C83.6882 76.7811 84.2418 75.4461 84.2432 74.0535V57.9724C84.2416 56.58 83.6877 55.2451 82.7031 54.2605C81.7185 53.2759 80.3836 52.722 78.9912 52.7205H52.0391C50.6466 52.7218 49.3116 53.2756 48.3271 54.2603C47.3427 55.2449 46.7891 56.58 46.7881 57.9724V74.0554C46.7889 75.448 47.3426 76.7834 48.3271 77.7683C49.3117 78.7532 50.6465 79.307 52.0391 79.3083V79.3064ZM49.4683 29.0723V45.1562C49.4681 45.494 49.5344 45.8286 49.6636 46.1406C49.7927 46.4527 49.982 46.7363 50.2207 46.9751C50.4595 47.2139 50.7432 47.4032 51.0552 47.5325C51.3672 47.6617 51.7013 47.7283 52.0391 47.7283H78.9912C79.3289 47.7283 79.6636 47.6617 79.9756 47.5325C80.2876 47.4032 80.5708 47.2139 80.8096 46.9751C81.0483 46.7363 81.2376 46.4527 81.3667 46.1406C81.4958 45.8286 81.5626 45.494 81.5625 45.1562V29.0723C81.5625 28.3904 81.2912 27.7366 80.8091 27.2544C80.3269 26.7722 79.6731 26.5015 78.9912 26.5015H52.0391C51.3572 26.5015 50.7033 26.7722 50.2212 27.2544C49.739 27.7366 49.4683 28.3904 49.4683 29.0723ZM52.0391 50.4062H78.9912C80.3836 50.4052 81.7189 49.8517 82.7036 48.8672C83.6883 47.8827 84.2418 46.5477 84.2432 45.1553V29.0723C84.2416 27.6798 83.6877 26.3449 82.7031 25.3604C81.7185 24.3758 80.3836 23.8219 78.9912 23.8203H52.0391C50.6473 23.823 49.3138 24.3773 48.3301 25.3618C47.3463 26.3463 46.7931 27.6805 46.7915 29.0723V45.1562C46.7931 46.548 47.3463 47.8825 48.3301 48.8669C49.3138 49.8514 50.6473 50.4058 52.0391 50.4084V50.4062Z" fill="#17598d" stroke="#17598d" stroke-width="0.5"/>
</svg>
