<svg width="98" height="101" viewBox="0 0 98 101" fill="none" xmlns="http://www.w3.org/2000/svg">
<path d="M58.7529 54.8086C50.2399 54.8086 43.6079 51.4426 43.6079 47.0876C43.6079 44.8106 45.3897 42.7326 48.6567 41.2476L49.4487 43.0295C47.9637 43.7225 45.5879 45.1076 45.5879 47.0876C45.5879 49.8596 51.0319 52.8286 58.7529 52.8286C65.8799 52.8286 70.8288 50.3545 71.8188 47.9785L73.6006 48.7705C72.1156 52.3335 66.0779 54.8086 58.7529 54.8086Z" fill="#17598d"/>
<path d="M58.7529 60.7476C50.2399 60.7476 43.6079 57.3826 43.6079 53.0266V47.0876H45.5879V53.0266C45.5879 55.7986 51.0319 58.7676 58.7529 58.7676C66.4739 58.7676 71.9175 55.6996 71.9175 53.0266V47.6816H73.8975V53.0266C73.9965 57.3826 67.2659 60.7476 58.7529 60.7476Z" fill="#17598d"/>
<path d="M58.6538 66.1917C56.7958 66.1727 54.9423 66.0055 53.1108 65.6917L53.5107 63.7126C55.2089 64.0262 56.9309 64.1935 58.6577 64.2126H58.7578C66.4788 64.2126 71.9229 61.1437 71.9229 58.4707V53.2246H73.9028V58.4707C73.9028 62.7277 67.2697 66.0927 58.6587 66.1917H58.6538Z" fill="#17598d"/>
<path d="M43.6079 52.5317H45.5879V58.3726H43.6079V52.5317Z" fill="#17598d"/>
<path d="M58.6538 71.5366C56.7955 71.5226 54.9416 71.3554 53.1108 71.0366L53.5107 69.0576C55.2416 69.3759 56.997 69.5432 58.7568 69.5576C66.4778 69.5576 71.9219 66.4887 71.9219 63.8157V58.5696H73.9019V63.8157C73.9019 68.1717 67.2687 71.5366 58.6577 71.5366H58.6538Z" fill="#17598d"/>
<path d="M43.6079 57.8777H45.5879V58.3716H43.6079V57.8777Z" fill="#17598d"/>
<path d="M58.6538 76.9817C56.7246 76.9852 54.8002 76.7861 52.9126 76.3877L53.3125 74.4077C55.0965 74.8174 56.9282 74.9838 58.7568 74.9026C66.4778 74.9026 71.9219 71.8336 71.9219 69.1616V63.9155H73.9019V69.1616C73.9019 73.5166 67.2698 76.8826 58.7568 76.8826C58.7568 76.9826 58.7567 76.9827 58.6567 76.9827L58.6538 76.9817Z" fill="#17598d"/>
<path d="M39.3516 77.1787C31.2356 77.1787 24.8008 73.9126 24.8008 69.7556V64.1135H26.7808V69.7556C26.7808 72.3286 31.9276 75.1997 39.3516 75.1997C46.7756 75.1997 51.9229 72.3286 51.9229 69.7556V64.7075H53.9028V69.7556C53.9028 73.9126 47.4686 77.1787 39.3516 77.1787Z" fill="#17598d"/>
<path d="M39.3516 82.3267C31.2356 82.3267 24.8008 79.0596 24.8008 74.9026V69.2576H26.7808V74.8997C26.7808 77.4727 31.9276 80.3435 39.3516 80.3435C46.7756 80.3435 51.9229 77.4727 51.9229 74.8997V69.8577H53.9028V74.9055C53.9028 79.0625 47.4686 82.3296 39.3516 82.3296V82.3267Z" fill="#17598d"/>
<path d="M63.1079 45.1086C54.8919 45.1086 48.4585 41.8417 48.4585 37.5857C48.4712 36.9276 48.6427 36.2821 48.9585 35.7046L50.7397 36.5957C50.57 36.932 50.5004 37.3099 50.5396 37.6846C50.5396 40.2576 55.7855 43.2275 63.2095 43.2275C70.6335 43.2275 75.8799 40.2576 75.8799 37.6846C75.8799 36.2986 74.4937 34.9127 72.1177 33.8237L72.9097 32.0415C76.0767 33.4275 77.8589 35.5066 77.8589 37.6836C77.7589 41.7426 71.3258 45.1077 63.1108 45.1077L63.1079 45.1086Z" fill="#17598d"/>
<path d="M63.1079 50.7507C54.8919 50.7507 48.4585 47.4835 48.4585 43.2275V37.5857H50.4375V43.2275C50.4375 45.8005 55.6849 48.7705 63.1079 48.7705C70.5309 48.7705 75.7778 45.8005 75.7778 43.2275V37.5857H77.7578V43.2275C77.7578 47.4835 71.3239 50.7507 63.1079 50.7507Z" fill="#17598d"/>
<path d="M58.7529 33.3286C50.5369 33.3286 44.1025 30.0626 44.1025 25.8066C44.1025 21.5506 50.5369 18.2837 58.7529 18.2837C66.9689 18.2837 73.4028 21.5506 73.4028 25.8066C73.4028 29.9636 66.9689 33.3286 58.7529 33.3286ZM58.7529 20.2627C51.3289 20.2627 46.0825 23.2327 46.0825 25.8057C46.0825 28.3787 51.3289 31.3496 58.7529 31.3496C66.1769 31.3496 71.4229 28.3797 71.4229 25.8057C71.4229 23.1337 66.1769 20.2627 58.7529 20.2627Z" fill="#17598d"/>
<path d="M39.3516 71.5366C31.2356 71.5366 24.8008 68.2705 24.8008 64.1135C24.8008 59.9565 31.2346 56.6897 39.3516 56.6897C47.4686 56.6897 53.9028 59.9555 53.9028 64.1135C53.9028 68.2715 47.4686 71.5366 39.3516 71.5366ZM39.3516 58.5696C31.9276 58.5696 26.7808 61.4406 26.7808 64.0146C26.7808 66.5886 31.9276 69.4585 39.3516 69.4585C46.7756 69.4585 51.9229 66.5876 51.9229 64.0146C51.9229 61.4416 46.7756 58.5696 39.3516 58.5696Z" fill="#17598d"/>
<path d="M44.2017 53.1257C36.9757 52.8257 31.5317 49.6617 31.5317 45.8997V40.4575H33.5117V45.9016C33.5117 48.1786 37.6688 50.8507 44.3008 51.1487L44.2017 53.1257Z" fill="#17598d"/>
<path d="M44.2017 58.2727C36.9757 57.9727 31.5317 54.8086 31.5317 51.0466V45.6025H33.5117V51.0466C33.5117 53.3236 37.6688 55.9967 44.3008 56.2937L44.2017 58.2727Z" fill="#17598d"/>
<path d="M31.8286 58.7676C31.6741 57.9171 31.5741 57.0577 31.5288 56.1946V50.7507H33.5088V56.1946C33.5665 56.9254 33.6665 57.6523 33.8086 58.3716L31.8286 58.7676Z" fill="#17598d"/>
<path d="M45.5879 37.6846C37.6689 37.6846 31.5317 34.5165 31.5317 30.4585V25.0146H33.5117V30.4585C33.5117 32.9325 38.4609 35.7046 45.5879 35.7046C46.6769 35.7046 47.7659 35.6046 48.7549 35.5046L48.9546 37.4846C47.9656 37.5846 46.7778 37.6846 45.5898 37.6846H45.5879Z" fill="#17598d"/>
<path d="M45.6865 42.8315C37.6685 42.8315 31.5317 39.6647 31.5317 35.6057V30.1577H33.5117V35.6016C33.5117 38.0756 38.4609 40.8477 45.5879 40.8477C46.9462 40.85 48.3023 40.7496 49.6455 40.5476L49.9458 42.5276C48.5362 42.7295 47.1135 42.8298 45.6895 42.8276L45.6865 42.8315Z" fill="#17598d"/>
<path d="M45.0928 47.9785C37.3718 47.8785 31.5317 44.7117 31.5317 40.7527V35.3086H33.5117V40.7527C33.5117 43.2277 38.1638 45.8995 45.0928 45.9985V47.9785Z" fill="#17598d"/>
<path d="M44.5977 32.5366C37.1737 32.2366 31.5317 29.1715 31.5317 25.3105V19.8667H33.5117V25.3105C33.5117 27.6865 37.9658 30.3596 44.6968 30.5576L44.5977 32.5366Z" fill="#17598d"/>
<path d="M44.5977 27.6865C37.1737 27.3865 31.5317 24.3217 31.5317 20.4607C31.5317 16.4027 37.7679 13.2346 45.5879 13.2346C52.2199 13.2346 57.8617 15.5116 59.3467 18.7776L57.5645 19.5696C56.5745 17.3926 52.1209 15.1157 45.5879 15.1157C38.4609 15.1157 33.5117 17.8876 33.5117 20.3616C33.5117 22.7376 37.9658 25.4096 44.6968 25.6086L44.5977 27.6865Z" fill="#17598d"/>
<path d="M58.7529 38.9707C50.5369 38.9707 44.1025 35.7047 44.1025 31.4487V25.8066H46.0825V31.4487C46.0825 34.0217 51.3289 36.9917 58.7529 36.9917C66.1769 36.9917 71.4229 34.0217 71.4229 31.4487V25.8066H73.4028V31.4487C73.4028 35.7047 66.9689 38.9707 58.7529 38.9707Z" fill="#17598d"/>
<path d="M95.2935 33.3797C96.0229 32.8802 96.5662 32.1528 96.8379 31.3116C97.1096 30.4703 97.0944 29.5627 96.7949 28.731C96.4954 27.8992 95.9282 27.1903 95.1826 26.7154C94.437 26.2405 93.5552 26.0265 92.6748 26.1067C92.5351 26.1254 92.3965 26.1516 92.2598 26.1856C88.5204 19.0666 83.0846 12.9786 76.4331 8.45975C69.7816 3.94086 62.1194 1.13038 54.1235 0.276649C46.1277 -0.57708 38.0445 0.552324 30.5889 3.56498C23.1332 6.57763 16.5346 11.3806 11.3765 17.5496C9.49325 19.8121 7.8159 22.238 6.36377 24.7986C5.49074 24.6114 4.58001 24.7222 3.77734 25.1133C2.97468 25.5044 2.32613 26.1532 1.93555 26.9561C1.54497 27.759 1.43477 28.6699 1.62256 29.5428C1.81035 30.4157 2.28547 31.2005 2.97168 31.7718C3.00168 31.7968 3.03578 31.8147 3.07178 31.8387C0.433547 38.9243 -0.524868 46.5255 0.272461 54.0442C1.06979 61.5629 3.60085 68.794 7.6665 75.1687C11.7322 81.5435 17.2219 86.8879 23.7031 90.7815C30.1843 94.6752 37.4802 97.0118 45.0176 97.6077C45.2519 98.2866 45.667 98.8888 46.2178 99.3496C46.6212 99.687 47.087 99.9416 47.5889 100.099C48.0907 100.256 48.6188 100.312 49.1426 100.265C49.6663 100.218 50.1754 100.068 50.6411 99.8235C51.1068 99.5793 51.5203 99.2456 51.8569 98.8416C52.1539 98.4798 52.3839 98.0682 52.5366 97.6258C55.2832 97.4184 58.0079 96.9835 60.6826 96.3257C72.0227 93.5306 81.9851 86.7624 88.7612 77.2495C95.5373 67.7367 98.6781 56.1094 97.6138 44.4786C97.2695 40.702 96.4907 36.9779 95.2935 33.3797ZM51.3398 93.2017C50.8326 92.7763 50.2274 92.4834 49.5791 92.3494C48.9308 92.2154 48.2593 92.2445 47.625 92.4339C46.9907 92.6233 46.4135 92.9673 45.9448 93.4349C45.4761 93.9024 45.1305 94.4787 44.9395 95.1126C37.8154 94.4944 30.9305 92.2398 24.8208 88.5242C18.7111 84.8086 13.5419 79.7324 9.71582 73.6912C5.88974 67.65 3.51027 60.807 2.7627 53.6954C2.01512 46.5837 2.91953 39.3954 5.40576 32.6907C5.44876 32.6907 5.48972 32.7017 5.53272 32.7017C5.65272 32.7017 5.77356 32.6956 5.89356 32.6846C6.63256 32.6214 7.33917 32.3531 7.93408 31.9102C8.52899 31.4672 8.98878 30.8671 9.26123 30.1773C9.53368 29.4874 9.60826 28.7353 9.47656 28.0054C9.34486 27.2755 9.01199 26.5968 8.51563 26.0457C9.89673 23.6083 11.4928 21.299 13.2847 19.1455C19.5937 11.55 28.1788 6.1859 37.7715 3.84574C41.4448 2.93751 45.2146 2.47707 48.9985 2.47465C57.4684 2.49312 65.7725 4.8245 73.0142 9.21732C80.2558 13.6101 86.1602 19.8976 90.0898 27.4007C90.0478 27.4467 89.9975 27.4826 89.9565 27.5306C89.4703 28.1059 89.1569 28.8072 89.0527 29.5533C88.9486 30.2993 89.058 31.0597 89.3682 31.7461C89.6783 32.4326 90.177 33.0172 90.8057 33.4322C91.4344 33.8471 92.1678 34.0753 92.9209 34.0906C94.0716 37.5304 94.8179 41.0923 95.1455 44.7046C96.2526 56.9641 92.4447 69.1611 84.5591 78.6128C76.6734 88.0646 65.356 93.997 53.0967 95.1048C52.9317 95.1198 52.7685 95.1238 52.6035 95.1368C52.3823 94.3807 51.9421 93.7072 51.3379 93.2017H51.3398Z" fill="#17598d"/>
</svg>
