<svg width="98" height="101" viewBox="0 0 98 101" fill="none" xmlns="http://www.w3.org/2000/svg">
<path d="M95.3709 33.6931C96.1 33.1934 96.6429 32.4659 96.9144 31.6247C97.1858 30.7835 97.1708 29.8761 96.8714 29.0444C96.572 28.2127 96.005 27.5038 95.2596 27.0288C94.5142 26.5537 93.6326 26.3392 92.7523 26.4189C92.6127 26.4381 92.4741 26.4646 92.3372 26.498C88.5979 19.3789 83.1621 13.2909 76.5106 8.77194C69.859 4.253 62.1964 1.44247 54.2005 0.588835C46.2046 -0.264804 38.1214 0.864774 30.6658 3.87765C23.2102 6.89053 16.6118 11.6938 11.4539 17.863C9.57074 20.1252 7.8934 22.5508 6.44121 25.1111C5.56818 24.9238 4.65745 25.0346 3.85479 25.4257C3.05212 25.8169 2.40357 26.4656 2.01299 27.2685C1.62241 28.0714 1.51221 28.9823 1.7 29.8552C1.88779 30.7281 2.36291 31.5127 3.04912 32.084C3.07912 32.109 3.11385 32.1271 3.14385 32.1511C0.506291 39.2368 -0.451128 46.8379 0.346486 54.3564C1.1441 61.8749 3.67501 69.1058 7.74053 75.4804C11.8061 81.855 17.2953 87.1993 23.7762 91.0932C30.257 94.9871 37.553 97.3245 45.0901 97.9211C45.3579 98.704 45.863 99.3837 46.5354 99.8657C47.2079 100.348 48.0142 100.608 48.8416 100.61C49.669 100.612 50.4764 100.355 51.1512 99.8767C51.826 99.398 52.3348 98.7205 52.6063 97.9389C55.3526 97.7322 58.0765 97.2975 60.7508 96.6391C72.0912 93.8444 82.0541 87.0761 88.8304 77.5632C95.6067 68.0503 98.7474 56.423 97.6829 44.792C97.3413 41.0157 96.5655 37.2916 95.3709 33.6931ZM51.4168 93.5141C50.9095 93.0888 50.3048 92.7958 49.6565 92.6618C49.0082 92.5278 48.3368 92.5569 47.7024 92.7463C47.0681 92.9357 46.491 93.2795 46.0223 93.747C45.5536 94.2146 45.2079 94.7912 45.0169 95.425C37.8927 94.807 31.0076 92.5525 24.8978 88.8369C18.7879 85.1213 13.6185 80.0451 9.79229 74.0039C5.9661 67.9627 3.58631 61.1195 2.83867 54.0078C2.09104 46.896 2.99598 39.7079 5.48223 33.0031C5.52523 33.0031 5.56718 33.0151 5.60918 33.0151C5.72918 33.0151 5.85002 33.009 5.97002 32.998C6.70892 32.9344 7.41531 32.6659 8.01006 32.2229C8.60481 31.7798 9.06424 31.1797 9.33672 30.49C9.6092 29.8002 9.68394 29.048 9.55254 28.3181C9.42114 27.5882 9.08899 26.9096 8.59307 26.3581C9.97322 23.9201 11.5693 21.6107 13.3621 19.458C19.6708 11.862 28.256 6.49763 37.8489 4.15793C41.522 3.25 45.2914 2.78981 49.075 2.78708C57.5448 2.80555 65.849 5.13693 73.0906 9.52975C80.3323 13.9226 86.2362 20.21 90.1658 27.7131C90.1238 27.7591 90.074 27.795 90.034 27.844C89.6967 28.2474 89.4424 28.7136 89.2855 29.2155C89.1285 29.7175 89.0717 30.2452 89.1189 30.769C89.1662 31.2928 89.3165 31.8021 89.5608 32.2678C89.8052 32.7335 90.1392 33.1466 90.5433 33.4831C90.8727 33.7583 91.2437 33.9789 91.6429 34.1369C92.0763 34.304 92.5354 34.3941 92.9998 34.403C94.1501 37.8429 94.8966 41.4048 95.2239 45.0171C96.3313 57.2765 92.5232 69.4737 84.6375 78.9255C76.7518 88.3773 65.4346 94.3095 53.1751 95.417C53.0111 95.432 52.8469 95.4359 52.6829 95.4489C52.4628 94.6931 52.0235 94.0198 51.4202 93.5141H51.4168Z" fill="#17598d"/>
<path d="M67.87 33.2233L66.2699 31.3561C66.1589 31.2202 66.0217 31.1081 65.8666 31.026C65.7115 30.9439 65.5419 30.8936 65.3671 30.878C65.1923 30.8625 65.0162 30.8821 64.849 30.9357C64.6819 30.9892 64.5272 31.0754 64.394 31.1896C64.2607 31.3037 64.1517 31.4435 64.0732 31.6005C63.9946 31.7574 63.948 31.9283 63.9364 32.1034C63.9249 32.2785 63.9485 32.4541 64.0058 32.62C64.0631 32.7858 64.1528 32.9386 64.2699 33.0692L66.87 36.0983C66.9936 36.2427 67.1471 36.3586 67.3197 36.4381C67.4924 36.5176 67.68 36.5587 67.87 36.5587C68.0601 36.5587 68.2482 36.5176 68.4208 36.4381C68.5934 36.3586 68.7465 36.2427 68.87 36.0983L75.0434 28.9723C75.2648 28.7074 75.3733 28.3662 75.3456 28.0221C75.318 27.678 75.1563 27.3585 74.8954 27.1324C74.6346 26.9063 74.2951 26.7916 73.9506 26.8131C73.6061 26.8346 73.2839 26.9904 73.0531 27.2472L67.87 33.2233Z" fill="#17598d"/>
<path d="M76.7871 39.042C77.8803 37.3903 78.4818 35.4624 78.522 33.4822C78.5248 33.3096 78.4938 33.138 78.4302 32.9775C78.3665 32.8171 78.2718 32.6708 78.1514 32.5471C77.9084 32.2975 77.5764 32.1536 77.228 32.147C77.0551 32.1442 76.8833 32.176 76.7227 32.24C76.562 32.304 76.4156 32.3991 76.292 32.52C76.0427 32.7633 75.8991 33.0949 75.8921 33.4431C75.857 35.4907 75.0193 37.4425 73.5591 38.8784C72.0989 40.3143 70.1334 41.1194 68.0854 41.1201H67.9951C65.924 41.1083 63.9425 40.2743 62.4863 38.8015C61.0302 37.3287 60.2192 35.3377 60.231 33.2666C60.2428 31.1955 61.0765 29.2139 62.5493 27.7578C64.0221 26.3017 66.0129 25.4902 68.084 25.502C68.4333 25.502 68.7686 25.3632 69.0156 25.1162C69.2626 24.8692 69.4014 24.5343 69.4014 24.1851C69.4014 23.8358 69.2626 23.5009 69.0156 23.2539C68.7686 23.0069 68.4333 22.8682 68.084 22.8682C66.0216 22.8658 64.0059 23.4793 62.2944 24.6301L61.8843 24.906L61.7412 24.4331C61.4983 23.6368 61.0068 22.9391 60.3389 22.4421C59.671 21.9452 58.8618 21.675 58.0293 21.6711H35.6401C35.4387 21.673 35.2404 21.7214 35.061 21.813C34.9301 21.8788 34.8093 21.963 34.7021 22.063L22.2773 34.491C22.0435 34.7281 21.9111 35.0471 21.9082 35.3801L21.9023 35.8572H21.8911V65.542C21.8927 66.5758 22.3041 67.567 23.0352 68.2981C23.7662 69.0291 24.7572 69.4406 25.791 69.4421H32.103V74.019C32.103 75.0534 32.5142 76.0455 33.2456 76.7769C33.977 77.5082 34.9691 77.9189 36.0034 77.9189H68.2422C69.2765 77.9189 70.2686 77.5082 71 76.7769C71.7314 76.0455 72.1421 75.0534 72.1421 74.019V42.9189L72.3574 42.8191C74.1612 42.0037 75.6968 40.6941 76.7871 39.042ZM34.3154 26.166V32.8601C34.3152 33.1896 34.184 33.5056 33.9512 33.7388C33.7184 33.972 33.4027 34.1032 33.0732 34.104H26.373L34.3154 26.166ZM32.4824 42.9661C32.359 43.0923 32.262 43.2421 32.1978 43.4065C32.1335 43.5709 32.1033 43.7466 32.1084 43.9231L32.1274 44.5361L32.0952 44.519V66.8052H25.7832C25.4473 66.8054 25.1251 66.6722 24.8872 66.4351C24.6493 66.1979 24.515 65.876 24.5142 65.54V36.74H33.0713C34.0991 36.7387 35.0842 36.3298 35.811 35.603C36.5378 34.8762 36.9469 33.8909 36.9482 32.863V24.3071H58.02C58.3556 24.3079 58.6776 24.4415 58.915 24.6787C59.1524 24.9159 59.2861 25.2374 59.2871 25.573V27.7031L59.2314 27.793C58.8155 28.4569 58.4758 29.1657 58.2192 29.906L58.1333 30.1521H46.2632L45.8311 30.166H45.8184C45.4778 30.1647 45.1504 30.2977 44.9072 30.5361L32.4824 42.9661ZM44.5273 34.646V41.3401C44.5276 41.5032 44.4956 41.6647 44.4331 41.8154C44.3706 41.9661 44.2787 42.1029 44.1631 42.218C43.9295 42.4498 43.6142 42.5802 43.2852 42.5811H36.5913L44.5273 34.646ZM69.5024 74.0161C69.5024 74.3521 69.3687 74.6741 69.1313 74.9119C68.894 75.1496 68.5723 75.2836 68.2363 75.2842H35.9951C35.6592 75.2834 35.3371 75.1493 35.0996 74.9116C34.8621 74.674 34.7286 74.3521 34.728 74.0161V45.2161H43.2852C44.3119 45.2123 45.296 44.8037 46.0234 44.0791C46.3847 43.7202 46.6709 43.2933 46.8662 42.823C47.0615 42.3527 47.1618 41.8484 47.1611 41.3391V32.7842H57.6523L57.6401 33.2532C57.6337 34.6289 57.8992 35.9922 58.4209 37.2651C58.9426 38.5381 59.7101 39.6956 60.6802 40.6711C61.6502 41.6467 62.8037 42.4211 64.0737 42.95C65.3438 43.4788 66.7053 43.7519 68.0811 43.7532C68.4241 43.7532 68.7641 43.7351 69.1001 43.7021L69.5 43.6621L69.5024 74.0161Z" fill="#17598d"/>
<path d="M64.0044 49.781C63.8887 49.5812 63.7223 49.4152 63.5225 49.2996C63.3226 49.1839 63.0961 49.1228 62.8652 49.1221H40.9082C40.5589 49.1221 40.224 49.2608 39.9771 49.5078C39.7301 49.7548 39.5913 50.0897 39.5913 50.439C39.5913 50.7883 39.7301 51.1234 39.9771 51.3704C40.224 51.6173 40.5589 51.7561 40.9082 51.7561H62.8652C63.0963 51.7561 63.3233 51.6952 63.5234 51.5796C63.7235 51.464 63.8894 51.2976 64.0049 51.0974C64.1203 50.8972 64.1813 50.6703 64.1812 50.4392C64.181 50.2081 64.1201 49.981 64.0044 49.781Z" fill="#17598d"/>
<path d="M39.7681 57.052C39.8839 57.2519 40.0505 57.4181 40.2505 57.5337C40.4505 57.6493 40.6772 57.7105 40.9082 57.7112H55.7202C56.0695 57.7112 56.4044 57.5724 56.6514 57.3254C56.8984 57.0785 57.0371 56.7433 57.0371 56.394C57.0371 56.0448 56.8984 55.7099 56.6514 55.4629C56.4044 55.2159 56.0695 55.0771 55.7202 55.0771H40.9102C40.679 55.077 40.4517 55.1376 40.2515 55.2532C40.0512 55.3687 39.8851 55.5349 39.7695 55.7351C39.654 55.9353 39.5931 56.1626 39.5933 56.3938C39.5934 56.625 39.6543 56.8519 39.77 57.052H39.7681Z" fill="#17598d"/>
<path d="M56.8592 67.009C56.7434 66.8091 56.5768 66.643 56.3768 66.5273C56.1768 66.4117 55.9501 66.3506 55.7191 66.3501H51.9339C51.7328 66.3504 51.5339 66.311 51.348 66.2341C51.1621 66.1573 50.9931 66.0446 50.8509 65.9023C50.7087 65.7601 50.5957 65.5911 50.5189 65.4053C50.442 65.2194 50.4029 65.0202 50.4032 64.8191V64.5701C50.4035 64.0245 50.2048 63.4976 49.8446 63.0879C49.4843 62.6782 48.9873 62.4136 48.4461 62.344C48.351 62.3317 48.255 62.3253 48.159 62.325C47.7125 62.3249 47.2763 62.4584 46.9061 62.708L41.158 66.575C40.942 66.7204 40.774 66.9267 40.6751 67.1677C40.5763 67.4087 40.5512 67.6737 40.6029 67.929C40.6546 68.1842 40.7809 68.4185 40.9657 68.6021C41.1505 68.7856 41.3853 68.91 41.641 68.96C41.8107 68.9941 41.9855 68.9941 42.1551 68.9597C42.3248 68.9254 42.4862 68.8574 42.6292 68.76L47.764 65.3062L47.89 65.814C48.1136 66.7181 48.6335 67.5216 49.3665 68.0962C50.0996 68.6708 51.0035 68.9838 51.9349 68.9851H55.7201C55.951 68.9847 56.1779 68.9235 56.3778 68.8079C56.5777 68.6922 56.7433 68.5259 56.8587 68.3259C56.9742 68.1259 57.0353 67.8992 57.0355 67.6682C57.0357 67.4373 56.9753 67.2102 56.8602 67.01L56.8592 67.009Z" fill="#17598d"/>
<path d="M64.0044 67.0081C63.8886 66.8083 63.7223 66.6425 63.5225 66.5269C63.3226 66.4112 63.0961 66.3499 62.8652 66.3491H60.915C60.5657 66.3491 60.2309 66.4879 59.9839 66.7349C59.7369 66.9818 59.5981 67.3167 59.5981 67.666C59.5981 68.0153 59.7369 68.3504 59.9839 68.5974C60.2309 68.8444 60.5657 68.9832 60.915 68.9832H62.8652C63.0962 68.9828 63.323 68.9216 63.5229 68.8059C63.7229 68.6902 63.889 68.5241 64.0044 68.324C64.1198 68.1239 64.1802 67.897 64.1802 67.666C64.1802 67.435 64.1198 67.2081 64.0044 67.0081Z" fill="#17598d"/>
</svg>
