<svg width="98" height="101" viewBox="0 0 98 101" fill="none" xmlns="http://www.w3.org/2000/svg">
<path d="M95.2935 33.9226C96.0229 33.4232 96.5662 32.6958 96.8379 31.8545C97.1096 31.0133 97.0944 30.1057 96.7949 29.274C96.4954 28.4422 95.9282 27.7333 95.1826 27.2583C94.437 26.7834 93.5547 26.5695 92.6743 26.6497C92.5343 26.6684 92.3959 26.6947 92.2588 26.7286C88.5196 19.6096 83.0835 13.5216 76.4321 9.00273C69.7807 4.48382 62.1188 1.67335 54.123 0.81962C46.1273 -0.0341121 38.0439 1.09528 30.5884 4.10795C23.1328 7.12062 16.5345 11.9236 11.3765 18.0926C9.49293 20.3548 7.81557 22.7808 6.36377 25.3416C5.49074 25.1544 4.58001 25.2652 3.77734 25.6563C2.97468 26.0474 2.32613 26.6964 1.93555 27.4993C1.54497 28.3022 1.43477 29.2128 1.62256 30.0857C1.81035 30.9586 2.28547 31.7435 2.97168 32.3147C3.00168 32.3397 3.03578 32.3576 3.07178 32.3816C0.433547 39.4673 -0.524868 47.0685 0.272461 54.5872C1.06979 62.1059 3.60085 69.337 7.6665 75.7117C11.7322 82.0864 17.2214 87.4309 23.7026 91.3245C30.1838 95.2181 37.4802 97.5548 45.0176 98.1507C45.2514 98.8298 45.6665 99.4322 46.2178 99.8926C46.6212 100.23 47.087 100.485 47.5889 100.642C48.0907 100.799 48.6188 100.855 49.1426 100.808C49.6663 100.761 50.1754 100.611 50.6411 100.366C51.1068 100.122 51.5198 99.7886 51.8564 99.3846C52.1529 99.0224 52.3833 98.6109 52.5366 98.1687C55.2832 97.9614 58.0079 97.5265 60.6826 96.8687C72.0227 94.0736 81.9847 87.3054 88.7607 77.7925C95.5368 68.2796 98.6781 56.6526 97.6138 45.0218C97.2695 41.2452 96.4907 37.5209 95.2935 33.9226ZM51.3394 93.7447C50.8321 93.3193 50.2274 93.0266 49.5791 92.8926C48.9308 92.7586 48.2593 92.7874 47.625 92.9768C46.9907 93.1663 46.413 93.5103 45.9443 93.9778C45.4756 94.4453 45.1305 95.0217 44.9395 95.6556C37.8152 95.0376 30.9298 92.7831 24.8198 89.0674C18.7099 85.3518 13.5405 80.2755 9.71436 74.2342C5.88822 68.1928 3.50862 61.3495 2.76123 54.2376C2.01384 47.1257 2.91912 39.9375 5.40576 33.2327C5.44776 33.2327 5.48972 33.2447 5.53272 33.2447C5.65272 33.2447 5.77258 33.2386 5.89258 33.2276C6.63166 33.1645 7.33855 32.8965 7.93359 32.4537C8.52864 32.0108 8.98818 31.4106 9.26074 30.7207C9.53331 30.0309 9.60822 29.2786 9.47656 28.5486C9.34491 27.8186 9.01202 27.1399 8.51563 26.5887C9.89643 24.1511 11.4925 21.842 13.2847 19.6888C19.5933 12.0928 28.1786 6.72841 37.7715 4.38871C41.4448 3.48033 45.2146 3.01989 48.9985 3.01762C57.4684 3.0361 65.7725 5.36772 73.0142 9.76054C80.2558 14.1534 86.1597 20.4405 90.0894 27.9436C90.0464 27.9896 89.9965 28.0258 89.9565 28.0738C89.4703 28.6491 89.1569 29.3502 89.0527 30.0962C88.9486 30.8423 89.058 31.6026 89.3682 32.2891C89.6783 32.9756 90.1765 33.5602 90.8052 33.9751C91.4339 34.3901 92.1673 34.6183 92.9204 34.6336C94.0715 38.0732 94.818 41.6352 95.1445 45.2476C95.6931 51.3179 95.0409 57.4368 93.2246 63.2549C91.4084 69.073 88.4636 74.4764 84.5591 79.1565C80.6545 83.8366 75.8666 87.7017 70.4683 90.5313C65.0699 93.3609 59.167 95.0995 53.0967 95.6477C52.9317 95.6627 52.7675 95.6667 52.6035 95.6797C52.3845 94.9244 51.9465 94.251 51.3447 93.7447H51.3394Z" fill="#17598d"/>
<path d="M49.5557 61.5505L61.1035 55.1506C61.3116 55.035 61.4848 54.8658 61.6055 54.6606C61.7261 54.4554 61.7897 54.2217 61.7896 53.9836V43.5576C61.7849 43.3592 61.7373 43.164 61.6504 42.9856C61.5359 42.7342 61.3444 42.5258 61.1035 42.3906L49.5547 35.9907C49.3568 35.8811 49.1344 35.8235 48.9082 35.8235C48.682 35.8235 48.4596 35.8811 48.2617 35.9907L36.7134 42.3906C36.5087 42.5103 36.3385 42.6805 36.2183 42.8848C36.098 43.0891 36.0317 43.3206 36.0264 43.5576V53.9836C36.0267 54.2217 36.0907 54.4553 36.2114 54.6604C36.3322 54.8655 36.5054 55.0348 36.7134 55.1506L48.2617 61.5505C48.4612 61.6551 48.683 61.7097 48.9082 61.7097C49.1334 61.7097 49.3562 61.6551 49.5557 61.5505ZM59.1216 53.1956L50.2427 58.1187V50.7427L59.1216 45.8196V53.1956ZM47.5747 58.1187L38.6943 53.1946V45.8196L47.5747 50.7427V58.1187ZM40.1128 43.5576L48.9126 38.6797L57.7124 43.5576L48.9126 48.4346L40.1128 43.5576Z" fill="#17598d"/>
<path d="M16.7533 53.9656C17.8958 53.9617 19.005 53.581 19.909 52.8823C20.8131 52.1837 21.4614 51.2062 21.7533 50.1016H29.5072V57.8447C29.507 58.0829 29.5707 58.3166 29.6918 58.5217C29.8128 58.7268 29.9866 58.8955 30.1952 59.0105L47.5716 68.6467V75.9216C46.3513 76.2457 45.2905 77.0027 44.5873 78.0513C43.884 79.0999 43.5865 80.3684 43.7499 81.6204C43.9132 82.8723 44.5262 84.022 45.475 84.855C46.4237 85.688 47.6435 86.1475 48.9061 86.1475C50.1687 86.1475 51.388 85.688 52.3368 84.855C53.2856 84.022 53.899 82.8723 54.0624 81.6204C54.2257 80.3684 53.9277 79.0999 53.2245 78.0513C52.5212 77.0027 51.4609 76.2457 50.2406 75.9216V68.6467L67.6185 59.0105C67.8264 58.895 67.9994 58.726 68.12 58.521C68.2406 58.316 68.3045 58.0826 68.3045 57.8447V50.1016H76.0584C76.3824 51.3219 77.1393 52.3829 78.1878 53.0862C79.2364 53.7895 80.5052 54.0872 81.7572 53.9238C83.0092 53.7605 84.159 53.1473 84.992 52.1985C85.8251 51.2497 86.2845 50.0302 86.2845 48.7676C86.2845 47.505 85.8251 46.2855 84.992 45.3367C84.159 44.3879 83.0092 43.7747 81.7572 43.6113C80.5052 43.448 79.2364 43.7456 78.1878 44.449C77.1393 45.1523 76.3824 46.2132 76.0584 47.4336H68.3045V39.6917C68.3047 39.4535 68.2408 39.2196 68.12 39.0144C67.9992 38.8092 67.8258 38.6401 67.6175 38.5247L50.2406 28.8896V21.6145C51.4609 21.2906 52.5216 20.5339 53.225 19.4854C53.9283 18.4368 54.2262 17.168 54.0628 15.916C53.8995 14.664 53.2861 13.5142 52.3373 12.6812C51.3885 11.8481 50.1692 11.3887 48.9066 11.3887C47.644 11.3887 46.4242 11.8481 45.4754 12.6812C44.5266 13.5142 43.9132 14.664 43.7499 15.916C43.5865 17.168 43.8844 18.4368 44.5877 19.4854C45.2911 20.5339 46.3522 21.2906 47.5726 21.6145V28.8896L30.1952 38.5247C29.9866 38.6398 29.8131 38.8089 29.6922 39.0142C29.5714 39.2194 29.5082 39.4534 29.5086 39.6917V47.4336H21.7533C21.5025 46.4976 20.9949 45.6505 20.2875 44.9883C19.58 44.3261 18.7009 43.8753 17.7503 43.6868C16.7998 43.4983 15.8157 43.5797 14.909 43.9219C14.0024 44.264 13.21 44.8531 12.621 45.6226C12.0319 46.392 11.6701 47.3111 11.5765 48.2756C11.483 49.2401 11.661 50.2115 12.0912 51.0798C12.5213 51.9482 13.1862 52.6787 14.0101 53.1887C14.8341 53.6987 15.7843 53.9679 16.7533 53.9656ZM81.0633 46.2375C81.6495 46.2368 82.2177 46.4394 82.6712 46.8108C83.1248 47.1821 83.4357 47.6994 83.5506 48.2742C83.6655 48.849 83.5775 49.4457 83.3016 49.9629C83.0257 50.4801 82.5788 50.8854 82.0375 51.1101C81.4961 51.3348 80.8934 51.3647 80.3324 51.1948C79.7714 51.025 79.2866 50.666 78.9608 50.1787C78.635 49.6915 78.4884 49.1063 78.5458 48.5229C78.6031 47.9396 78.8608 47.3942 79.2752 46.9797C79.7496 46.5055 80.3926 46.2385 81.0633 46.2375ZM51.4383 80.9226C51.4389 81.5082 51.2362 82.076 50.8651 82.5291C50.494 82.9821 49.9775 83.2923 49.4032 83.407C48.8289 83.5217 48.2328 83.4336 47.7162 83.158C47.1995 82.8823 46.7941 82.4359 46.5697 81.895C46.3452 81.3541 46.3151 80.7522 46.4847 80.1917C46.6544 79.6311 47.0136 79.1469 47.5003 78.8213C47.9871 78.4957 48.5713 78.3489 49.1542 78.406C49.737 78.4631 50.2824 78.7206 50.6966 79.1345C50.9317 79.3692 51.1181 79.648 51.2455 79.9548C51.3728 80.2616 51.4381 80.5905 51.4383 80.9226ZM46.3783 16.6125C46.3774 16.0261 46.5801 15.4577 46.9515 15.0039C47.323 14.5501 47.8403 14.2393 48.4154 14.1243C48.9904 14.0093 49.5874 14.0973 50.1048 14.3733C50.6222 14.6493 51.028 15.0961 51.2528 15.6377C51.4776 16.1793 51.5077 16.7823 51.3377 17.3435C51.1678 17.9048 50.8082 18.3896 50.3207 18.7156C49.8332 19.0415 49.248 19.1883 48.6644 19.1309C48.0808 19.0734 47.5351 18.8153 47.1205 18.4006C46.8853 18.166 46.6985 17.8874 46.5711 17.5806C46.4438 17.2738 46.3783 16.9447 46.3783 16.6125ZM32.1786 40.4766L48.9085 31.2007L65.6385 40.4766V57.0576L48.9085 66.3335L32.1786 57.0576V40.4766ZM16.7533 46.2375C17.3394 46.2368 17.9077 46.4394 18.3612 46.8108C18.8147 47.1821 19.1257 47.6994 19.2406 48.2742C19.3555 48.849 19.2674 49.4457 18.9916 49.9629C18.7157 50.4801 18.2688 50.8854 17.7274 51.1101C17.186 51.3348 16.5838 51.3647 16.0228 51.1948C15.4618 51.025 14.977 50.666 14.6512 50.1787C14.3254 49.6915 14.1784 49.1063 14.2357 48.5229C14.293 47.9396 14.5507 47.3942 14.9652 46.9797C15.1997 46.7448 15.4784 46.5582 15.785 46.4309C16.0916 46.3036 16.4213 46.2378 16.7533 46.2375Z" fill="#17598d"/>
</svg>
