<svg width="99" height="101" viewBox="0 0 99 101" fill="none" xmlns="http://www.w3.org/2000/svg">
<path d="M95.5169 33.3869C96.246 32.8872 96.7889 32.1598 97.0604 31.3186C97.3318 30.4774 97.3168 29.5699 97.0174 28.7383C96.718 27.9066 96.151 27.1977 95.4056 26.7226C94.6602 26.2476 93.7781 26.033 92.8978 26.1128C92.7582 26.132 92.6201 26.1584 92.4832 26.1919C88.7441 19.0728 83.3085 12.9847 76.657 8.46579C70.0056 3.94683 62.3428 1.13608 54.347 0.282441C46.3511 -0.571201 38.2683 0.558368 30.8128 3.57126C23.3573 6.58415 16.7587 11.3876 11.6009 17.5569C9.71708 19.8185 8.0397 22.2442 6.58819 24.8049C5.71515 24.6177 4.80442 24.7285 4.00176 25.1196C3.19909 25.5107 2.55054 26.1595 2.15996 26.9624C1.76938 27.7653 1.65918 28.6759 1.84697 29.5488C2.03476 30.4217 2.50989 31.2065 3.1961 31.7778C3.2261 31.8028 3.25985 31.8209 3.28985 31.8449C0.652287 38.9307 -0.305132 46.5315 0.492482 54.05C1.2901 61.5685 3.821 68.7997 7.88653 75.1743C11.952 81.5489 17.4413 86.8932 23.9222 90.7871C30.403 94.681 37.699 97.0183 45.2361 97.615C45.4711 98.2935 45.8856 98.8955 46.4358 99.3569C46.8393 99.6943 47.3054 99.9489 47.8074 100.106C48.3094 100.263 48.8377 100.319 49.3616 100.272C49.8855 100.225 50.3949 100.075 50.8606 99.8303C51.3264 99.5859 51.7394 99.2521 52.076 98.8479C52.3724 98.4861 52.6028 98.0747 52.7562 97.6328C55.5028 97.4259 58.2275 96.9913 60.9021 96.333C72.2422 93.5378 82.2042 86.7694 88.9803 77.2566C95.7564 67.7437 98.8971 56.1167 97.8328 44.4858C97.4899 40.7094 96.7129 36.9853 95.5169 33.3869ZM51.5638 93.208C51.0565 92.7826 50.4518 92.4897 49.8035 92.3557C49.1552 92.2217 48.4837 92.2507 47.8494 92.4402C47.2151 92.6296 46.6379 92.9734 46.1692 93.4409C45.7005 93.9084 45.3549 94.485 45.1639 95.1189C38.0396 94.5011 31.1542 92.2465 25.0442 88.531C18.9343 84.8154 13.7649 79.7393 9.93877 73.698C6.11262 67.6567 3.73304 60.8134 2.98565 53.7016C2.23826 46.5898 3.14352 39.4017 5.63018 32.697C5.67218 32.697 5.71415 32.709 5.75615 32.709C5.87615 32.709 5.99699 32.7029 6.11699 32.6919C6.8559 32.6282 7.56228 32.3598 8.15703 31.9167C8.75178 31.4737 9.21121 30.8736 9.48369 30.1838C9.75617 29.494 9.83091 28.7418 9.69951 28.0119C9.56812 27.282 9.23596 26.6034 8.74004 26.052C10.1205 23.6142 11.7166 21.3048 13.5091 19.1518C19.8178 11.5559 28.403 6.19148 37.9959 3.85178C41.6689 2.94385 45.4384 2.48366 49.222 2.48093C57.6918 2.4994 65.996 4.83078 73.2376 9.2236C80.4793 13.6164 86.3832 19.9039 90.3128 27.407C90.2708 27.453 90.221 27.4888 90.181 27.5378C89.8437 27.9413 89.5894 28.4075 89.4324 28.9094C89.2754 29.4113 89.2186 29.9391 89.2659 30.4629C89.3132 30.9866 89.4635 31.4959 89.7078 31.9616C89.9521 32.4273 90.2862 32.8404 90.6902 33.177C91.0196 33.4523 91.3906 33.6729 91.7898 33.8308C92.2229 33.9979 92.6817 34.088 93.1458 34.0969C94.2961 37.5367 95.0426 41.0987 95.3699 44.7109C95.9185 50.7812 95.2658 56.9001 93.4495 62.7182C91.6332 68.5364 88.6886 73.9397 84.784 78.6198C80.8793 83.3 76.0912 87.1653 70.6927 89.9948C65.2942 92.8244 59.3915 94.5627 53.3211 95.1108C53.1571 95.1258 52.9929 95.1298 52.8289 95.1438C52.6085 94.3878 52.1693 93.7143 51.5662 93.208H51.5638Z" fill="#17598d"/>
<path d="M36.1523 79.4709H65.8901C66.8971 79.4709 67.8627 79.0712 68.5752 78.3596C69.2877 77.6481 69.6891 76.683 69.6904 75.676V20.6948C69.6873 19.691 69.2866 18.7293 68.5767 18.0195C67.8667 17.3098 66.9052 16.9099 65.9014 16.907H36.1494C35.1451 16.9083 34.1819 17.3077 33.4717 18.0178C32.7614 18.7279 32.3619 19.6905 32.3604 20.6948V41.4548C28.7865 42.2236 25.5842 44.1941 23.2871 47.0378C20.9901 49.8816 19.7368 53.4269 19.7368 57.0825C19.7368 60.7381 20.9901 64.2832 23.2871 67.127C25.5842 69.9707 28.7865 71.9412 32.3604 72.71V75.676C32.3604 76.6815 32.7593 77.6456 33.4697 78.3572C34.1801 79.0687 35.144 79.4694 36.1494 79.4709H36.1523ZM65.8901 18.2529C66.2113 18.2512 66.5296 18.3132 66.8267 18.4353C67.1237 18.5574 67.3935 18.7373 67.6206 18.9644C67.8477 19.1915 68.0278 19.4612 68.1499 19.7583C68.272 20.0554 68.3338 20.3737 68.332 20.6948V75.676C68.3318 76.3205 68.0762 76.9386 67.6211 77.395C67.166 77.8514 66.5488 78.1087 65.9043 78.1108H36.1523C35.5077 78.1093 34.8898 77.852 34.4346 77.3955C33.9794 76.939 33.7239 76.3207 33.7241 75.676V72.9548C36.5156 73.3128 39.3521 72.9234 41.9438 71.8264C44.5356 70.7294 46.7898 68.9642 48.4761 66.7109H63.856C64.3646 66.7107 64.8523 66.5086 65.2119 66.1489C65.5716 65.7893 65.7741 65.3016 65.7744 64.793V22.2119C65.7741 21.7033 65.5716 21.2156 65.2119 20.856C64.8523 20.4963 64.3646 20.2942 63.856 20.2939H38.1851C37.6765 20.2942 37.1887 20.4963 36.8291 20.856C36.4695 21.2156 36.2674 21.7033 36.2671 22.2119V41.1008H35.7163C35.0501 41.1003 34.3843 41.1414 33.7231 41.2239V20.6948C33.723 20.3759 33.7857 20.0603 33.9077 19.7656C34.0297 19.471 34.2086 19.2033 34.4341 18.9778C34.6596 18.7523 34.927 18.5734 35.2217 18.4514C35.5163 18.3294 35.8325 18.2667 36.1514 18.2668L65.8901 18.2529ZM41.8042 37.469H45.0352V44.094C44.03 43.3732 42.9461 42.7693 41.8042 42.2939V37.469ZM45.7163 36.1089H44.083V33.1499C44.083 32.9696 44.0113 32.7967 43.8838 32.6692C43.7563 32.5417 43.5837 32.47 43.4033 32.47C43.223 32.47 43.0499 32.5417 42.9224 32.6692C42.7948 32.7967 42.7231 32.9696 42.7231 33.1499V36.1079H41.123C41.0337 36.1078 40.9454 36.1253 40.8628 36.1594C40.7802 36.1936 40.7053 36.2437 40.6421 36.3069C40.5789 36.3701 40.5288 36.445 40.4946 36.5276C40.4605 36.6101 40.4432 36.6985 40.4434 36.7878V41.7798C39.5297 41.4988 38.5923 41.3012 37.6431 41.189V22.2109C37.6429 22.1377 37.6571 22.0653 37.6851 21.9976C37.713 21.9299 37.7544 21.8682 37.8062 21.8164C37.8579 21.7646 37.9192 21.7234 37.9868 21.6953C38.0545 21.6673 38.127 21.6528 38.2002 21.6528H63.8574C63.9307 21.6527 64.003 21.6671 64.0708 21.6951C64.1386 21.7231 64.2001 21.7643 64.252 21.8162C64.3038 21.868 64.3451 21.9296 64.373 21.9973C64.401 22.0651 64.4152 22.1376 64.415 22.2109V64.7778C64.415 64.9258 64.3566 65.0677 64.252 65.1724C64.1473 65.277 64.0054 65.3359 63.8574 65.3359H49.4033C51.3287 62.1513 52.0808 58.3939 51.5293 54.7136C50.9778 51.0333 49.1575 47.6614 46.3833 45.1809V36.7878C46.3834 36.6985 46.3657 36.61 46.3315 36.5273C46.2974 36.4447 46.2477 36.3696 46.1846 36.3064C46.1214 36.2431 46.0464 36.1929 45.9639 36.1587C45.8813 36.1245 45.7925 36.1069 45.7031 36.1069L45.7163 36.1089ZM35.7163 42.4619C39.1032 42.4589 42.3861 43.6307 45.0059 45.7773C47.6256 47.924 49.4201 50.9125 50.083 54.2339C50.7459 57.5553 50.2365 61.0038 48.6416 63.9917C47.0467 66.9796 44.465 69.3219 41.3364 70.6194C38.2079 71.9169 34.7262 72.089 31.4849 71.1069C28.2435 70.1248 25.4428 68.0491 23.5605 65.2334C21.6783 62.4177 20.831 59.0364 21.1626 55.6658C21.4942 52.2951 22.9845 49.1439 25.3794 46.749C28.1204 44.006 31.8385 42.4639 35.7163 42.4619Z" fill="#17598d" stroke="#17598d" stroke-width="0.488"/>
<path d="M48.729 41.272H50.3413V44.2239C50.3413 44.3132 50.3589 44.4016 50.3931 44.4841C50.4272 44.5666 50.4774 44.6417 50.5405 44.7048C50.6037 44.768 50.6782 44.8179 50.7607 44.8521C50.8432 44.8862 50.9317 44.9038 51.021 44.9038C51.1103 44.9038 51.1987 44.8862 51.2813 44.8521C51.3638 44.8179 51.4388 44.768 51.502 44.7048C51.5651 44.6417 51.6152 44.5666 51.6494 44.4841C51.6836 44.4016 51.7012 44.3132 51.7012 44.2239V41.272H53.3203C53.4096 41.2721 53.498 41.2546 53.5806 41.2205C53.6631 41.1863 53.7381 41.1362 53.8013 41.073C53.8644 41.0098 53.9146 40.9349 53.9487 40.8523C53.9829 40.7697 54.0001 40.6811 54 40.5918V31.4099C54 31.2295 53.9288 31.0564 53.8013 30.9287C53.6738 30.801 53.5008 30.7293 53.3203 30.729H51.7012V27.7769C51.7012 27.6876 51.6836 27.5991 51.6494 27.5166C51.6152 27.4341 51.5651 27.3593 51.502 27.2961C51.4388 27.233 51.3638 27.1829 51.2813 27.1487C51.1987 27.1145 51.1103 27.0969 51.021 27.0969C50.9317 27.0969 50.8432 27.1145 50.7607 27.1487C50.6782 27.1829 50.6037 27.233 50.5405 27.2961C50.4774 27.3593 50.4272 27.4341 50.3931 27.5166C50.3589 27.5991 50.3413 27.6876 50.3413 27.7769V30.729H48.729C48.6396 30.729 48.5513 30.7465 48.4688 30.7808C48.3862 30.815 48.3112 30.8652 48.248 30.9285C48.1849 30.9917 48.1347 31.0668 48.1006 31.1494C48.0665 31.232 48.0492 31.3205 48.0493 31.4099V40.5918C48.0492 40.6811 48.0665 40.7697 48.1006 40.8523C48.1347 40.9349 48.1849 41.0098 48.248 41.073C48.3112 41.1362 48.3862 41.1863 48.4688 41.2205C48.5513 41.2546 48.6397 41.2721 48.729 41.272ZM49.4092 32.0898H52.6401V39.9119H49.4092V32.0898Z" fill="#17598d" stroke="#17598d" stroke-width="0.488"/>
<path d="M56.3403 51.4749H57.959V54.427C57.9555 54.5186 57.9708 54.6097 58.0034 54.6953C58.036 54.7809 58.0854 54.8593 58.1489 54.9253C58.2125 54.9913 58.2887 55.0437 58.373 55.0796C58.4574 55.1155 58.548 55.134 58.6396 55.134C58.7313 55.134 58.8219 55.1155 58.9062 55.0796C58.9906 55.0437 59.0668 54.9913 59.1304 54.9253C59.1939 54.8593 59.2433 54.7809 59.2759 54.6953C59.3085 54.6097 59.3238 54.5186 59.3203 54.427V51.4749H60.9321C61.1125 51.4749 61.2856 51.4032 61.4131 51.2756C61.5406 51.1481 61.6123 50.9753 61.6123 50.7949V41.6128C61.6123 41.4324 61.5406 41.2595 61.4131 41.1318C61.2856 41.0042 61.1126 40.9321 60.9321 40.9319H59.3174V37.98C59.3106 37.804 59.2358 37.6375 59.1089 37.5154C58.982 37.3933 58.8128 37.325 58.6367 37.325C58.4606 37.325 58.2914 37.3933 58.1646 37.5154C58.0377 37.6375 57.9628 37.804 57.9561 37.98V40.9319H56.3374C56.157 40.9321 55.9839 41.0042 55.8564 41.1318C55.7289 41.2595 55.6572 41.4324 55.6572 41.6128V50.7949C55.6572 50.9753 55.7289 51.1481 55.8564 51.2756C55.984 51.4032 56.1571 51.4749 56.3374 51.4749H56.3403ZM57.02 42.293H60.251V50.115H57.0171L57.02 42.293Z" fill="#17598d" stroke="#17598d" stroke-width="0.488"/>
<path d="M51.0169 68.1399C50.0729 68.1389 49.1575 68.4652 48.4271 69.0632C47.6966 69.6613 47.1964 70.4942 47.0111 71.4199C46.8258 72.3456 46.967 73.307 47.411 74.1401C47.8549 74.9733 48.5739 75.6268 49.4456 75.9893C50.3173 76.3517 51.2879 76.4007 52.1917 76.1279C53.0955 75.8552 53.877 75.2773 54.4027 74.4932C54.9283 73.709 55.1656 72.7668 55.0745 71.8272C54.9835 70.8875 54.5696 70.0085 53.9031 69.3398C53.5246 68.96 53.0746 68.6585 52.5794 68.4526C52.0842 68.2467 51.5532 68.1404 51.0169 68.1399ZM48.2962 72.2219C48.1339 72.5513 48.1083 72.9315 48.2259 73.2793C48.3435 73.6271 48.5943 73.9141 48.9232 74.0774C49.252 74.2407 49.6321 74.267 49.9803 74.1504C50.3285 74.0338 50.6164 73.784 50.7806 73.4556C50.9448 73.1272 50.9719 72.7469 50.8563 72.3984C50.7407 72.0499 50.4918 71.7616 50.1639 71.5964C49.8359 71.4313 49.4561 71.4029 49.1072 71.5176C48.7584 71.6322 48.4691 71.8805 48.303 72.208L48.2962 72.2219Z" fill="#17598d" stroke="#17598d" stroke-width="0.488"/>
<path d="M25.5171 51.6998C25.3367 51.6998 25.1637 51.7715 25.0361 51.8991C24.9086 52.0266 24.8374 52.1994 24.8374 52.3798C24.8374 52.5601 24.9086 52.7332 25.0361 52.8607C25.1637 52.9882 25.3367 53.0597 25.5171 53.0597H43.0454L38.814 55.1759C38.6526 55.2572 38.5303 55.3991 38.4736 55.5707C38.417 55.7423 38.4309 55.9293 38.5122 56.0907C38.5935 56.2521 38.7356 56.3746 38.9072 56.4313C39.0788 56.4879 39.2659 56.474 39.4272 56.3927L46.2271 52.9928C46.2866 52.9596 46.3415 52.9185 46.3901 52.8707C46.4295 52.8225 46.4631 52.7698 46.4902 52.7137C46.4932 52.6935 46.4932 52.6729 46.4902 52.6527C46.5214 52.5785 46.5376 52.4989 46.5376 52.4183C46.5376 52.3378 46.5214 52.258 46.4902 52.1837C46.4932 52.1635 46.4932 52.1429 46.4902 52.1227C46.4633 52.0666 46.4296 52.0139 46.3901 51.9657V51.9318C46.3415 51.884 46.2866 51.8429 46.2271 51.8097L39.4272 48.4098C39.2659 48.3285 39.0788 48.3146 38.9072 48.3712C38.7356 48.4279 38.5935 48.5504 38.5122 48.7118C38.4309 48.8732 38.417 49.0602 38.4736 49.2318C38.5303 49.4034 38.6526 49.5455 38.814 49.6268L43.0454 51.7357L25.5171 51.6998Z" fill="#17598d" stroke="#17598d" stroke-width="0.488"/>
<path d="M45.917 62.4681C46.093 62.4613 46.2597 62.3865 46.3818 62.2596C46.5039 62.1327 46.5723 61.9635 46.5723 61.7874C46.5723 61.6113 46.5039 61.4421 46.3818 61.3153C46.2597 61.1884 46.093 61.1137 45.917 61.107H28.395L32.6191 58.992C32.7759 58.908 32.8936 58.7661 32.9473 58.5965C33.0009 58.4269 32.9862 58.2429 32.9062 58.0841C32.8263 57.9252 32.6877 57.8039 32.5195 57.7459C32.3514 57.688 32.1672 57.6981 32.0063 57.774L25.2061 61.1739C25.1464 61.2074 25.0915 61.2488 25.043 61.2969C24.9986 61.3428 24.9619 61.3955 24.9341 61.4529V61.514C24.9029 61.5882 24.8872 61.6678 24.8872 61.7484C24.8872 61.8289 24.9029 61.9087 24.9341 61.983V62.045C24.9624 62.1022 24.999 62.1548 25.043 62.201C25.04 62.2121 25.04 62.2238 25.043 62.2349C25.0917 62.2829 25.1466 62.3243 25.2061 62.358L32.0063 65.7579C32.102 65.8047 32.2065 65.8299 32.313 65.8319C32.4677 65.8341 32.6186 65.7834 32.7407 65.6883C32.8628 65.5932 32.9492 65.4593 32.9849 65.3087C33.0205 65.1581 33.0035 65 32.937 64.8602C32.8706 64.7204 32.7584 64.6073 32.6191 64.5399L28.395 62.431L45.917 62.4681Z" fill="#17598d" stroke="#17598d" stroke-width="0.488"/>
</svg>
