<svg width="99" height="101" viewBox="0 0 99 101" fill="none" xmlns="http://www.w3.org/2000/svg">
<path d="M79.7173 48.5551C79.7173 54.6721 79.7071 60.7891 79.7281 66.9061C79.7622 67.3114 79.6657 67.7167 79.4522 68.0629C79.2387 68.409 78.9195 68.6776 78.542 68.829C74.942 70.59 71.374 72.3981 67.793 74.1891C63.9223 76.1224 60.0515 78.0583 56.1802 79.997C54.1012 81.036 52.0282 82.0899 49.9302 83.091C49.5873 83.2329 49.2023 83.2329 48.8594 83.091C46.5954 82.0109 44.3544 80.8821 42.1084 79.7631C38.5038 77.9684 34.9004 76.171 31.2984 74.371C27.8264 72.6376 24.3562 70.8974 20.8882 69.15C20.8421 69.1221 20.7935 69.0983 20.7432 69.079C19.2492 68.639 19.0502 67.5491 19.0552 66.1561C19.0972 54.1561 19.1014 42.1589 19.0674 30.1649C19.0295 29.7429 19.1294 29.3201 19.3521 28.9596C19.5747 28.5991 19.908 28.3201 20.3023 28.1649C23.9813 26.3649 27.6271 24.4899 31.2901 22.6539C34.5501 21.0199 37.8201 19.4041 41.0821 17.7721C43.4711 16.5771 45.8821 15.4182 48.2271 14.1452C48.661 13.9281 49.1458 13.8333 49.6294 13.8712C50.1131 13.9091 50.5774 14.0781 50.9722 14.36C53.9189 15.8447 56.869 17.3243 59.8223 18.799C62.9003 20.345 65.9766 21.893 69.0513 23.443C71.9846 24.915 74.9207 26.3834 77.8594 27.848C78.1654 28.001 78.459 28.1781 78.771 28.3161C79.0752 28.4417 79.3316 28.6614 79.502 28.943C79.6724 29.2246 79.7481 29.5532 79.7183 29.881C79.7183 33.157 79.7183 36.4337 79.7183 39.7111L79.7173 48.5551ZM76.8262 48.5441C76.8262 42.7361 76.8262 36.9277 76.8262 31.119C76.8262 30.795 76.8081 30.534 76.4561 30.361C74.7861 29.543 73.1283 28.7011 71.4663 27.8671C67.6263 25.9411 63.7863 24.0147 59.9463 22.088C56.5057 20.366 53.0613 18.6501 49.6133 16.9401C49.545 16.9124 49.4717 16.8988 49.398 16.9C49.3243 16.9012 49.2515 16.9173 49.1841 16.9472C45.2654 18.9032 41.3491 20.8658 37.4351 22.8351C34.8578 24.1278 32.2792 25.4194 29.6992 26.7101C27.3602 27.8821 25.0403 29.0921 22.6753 30.2101C22.435 30.2926 22.2314 30.4567 22.0996 30.674C21.9679 30.8912 21.9162 31.1478 21.9541 31.3991C21.9721 37.5721 21.9654 43.7441 21.9654 49.9161C21.9654 55.2495 21.9654 60.5844 21.9654 65.921C21.9392 66.071 21.964 66.2255 22.0366 66.3593C22.1093 66.4931 22.2253 66.5983 22.3653 66.6581C24.3313 67.6068 26.2893 68.5733 28.2393 69.558C31.7983 71.346 35.3473 73.158 38.9073 74.942C42.3239 76.6567 45.747 78.3601 49.1763 80.0521C49.2499 80.0831 49.3289 80.099 49.4087 80.099C49.4886 80.099 49.5675 80.0831 49.6411 80.0521C53.5745 78.0981 57.5014 76.1368 61.4214 74.1681C63.9888 72.8834 66.5551 71.5957 69.1211 70.3051C71.4601 69.1301 73.787 67.9279 76.148 66.7999C76.3745 66.7268 76.5685 66.5769 76.6963 66.3761C76.8241 66.1753 76.8779 65.9363 76.8482 65.7001C76.8172 59.9791 76.8262 54.2611 76.8262 48.5441Z" fill="#17598d"/>
<path d="M36.4014 38.3419C36.4014 36.4849 36.4014 34.629 36.4014 32.773C36.3749 32.5502 36.3996 32.3242 36.4736 32.1124C36.5476 31.9005 36.6686 31.7082 36.8281 31.5504C36.9876 31.3925 37.1814 31.2731 37.394 31.2012C37.6067 31.1294 37.8326 31.1073 38.0552 31.1361C40.8032 31.1361 43.5516 31.1361 46.3003 31.1361C46.523 31.1091 46.7487 31.1328 46.9609 31.2054C47.1732 31.278 47.3664 31.3976 47.5259 31.5553C47.6854 31.7129 47.8073 31.9047 47.8823 32.116C47.9574 32.3274 47.9834 32.553 47.959 32.776C47.9636 36.5093 47.9636 40.2401 47.959 43.9681C47.9834 44.1866 47.959 44.4077 47.8872 44.6156C47.8154 44.8234 47.698 45.0126 47.5439 45.1695C47.3898 45.3264 47.2031 45.447 46.9966 45.5225C46.79 45.598 46.569 45.6266 46.3501 45.606C43.5661 45.614 40.7817 45.614 37.9971 45.606C37.7829 45.6283 37.5668 45.6025 37.3638 45.5308C37.1608 45.4591 36.9759 45.3433 36.8232 45.1915C36.6706 45.0397 36.5538 44.8557 36.481 44.6532C36.4081 44.4506 36.3813 44.2344 36.4023 44.0201C36.3963 42.1271 36.4014 40.2339 36.4014 38.3419ZM39.3374 34.0589V42.6871H45.0083V34.0589H39.3374Z" fill="#17598d"/>
<path d="M42.1819 58.6689C42.1819 60.5259 42.1819 62.382 42.1819 64.239C42.2049 64.4573 42.1796 64.6778 42.1072 64.885C42.0348 65.0922 41.9174 65.281 41.7635 65.4375C41.6095 65.594 41.4226 65.7144 41.2166 65.7903C41.0106 65.8661 40.7907 65.8953 40.572 65.876C37.7867 65.8806 35.002 65.8806 32.218 65.876C32.0047 65.8934 31.7902 65.8643 31.5891 65.791C31.388 65.7177 31.205 65.6018 31.053 65.4511C30.901 65.3005 30.7834 65.1186 30.7083 64.9182C30.6332 64.7177 30.6024 64.5033 30.6179 64.2898C30.6139 60.5218 30.6139 56.7553 30.6179 52.99C30.602 52.7806 30.6312 52.5702 30.7034 52.373C30.7756 52.1758 30.8891 51.9963 31.0364 51.8467C31.1837 51.697 31.3613 51.5808 31.5574 51.5056C31.7535 51.4304 31.9635 51.3981 32.1731 51.4109C34.9945 51.4009 37.8153 51.4009 40.636 51.4109C40.8459 51.3979 41.056 51.4303 41.2522 51.5058C41.4484 51.5813 41.6262 51.6983 41.7732 51.8486C41.9203 51.9989 42.033 52.1789 42.1043 52.3767C42.1755 52.5745 42.2033 52.7853 42.1858 52.9949C42.1858 54.8829 42.1819 56.7759 42.1819 58.6689ZM33.5369 54.3198V62.9328H39.2449V54.3198H33.5369Z" fill="#17598d"/>
<path d="M68.1848 58.613C68.1848 60.469 68.1848 62.3254 68.1848 64.1821C68.2137 64.4088 68.1909 64.639 68.1179 64.8556C68.045 65.0722 67.9241 65.2695 67.7639 65.4325C67.6038 65.5956 67.4084 65.7202 67.1931 65.797C66.9779 65.8739 66.748 65.9009 66.5208 65.8761C63.7714 65.8801 61.0235 65.8801 58.2761 65.8761C58.0535 65.9029 57.8277 65.879 57.6155 65.8063C57.4033 65.7336 57.2101 65.6141 57.0506 65.4565C56.891 65.2988 56.7689 65.1072 56.6936 64.8959C56.6184 64.6846 56.592 64.459 56.616 64.236C56.616 60.5027 56.616 56.7715 56.616 53.0422C56.591 52.8239 56.6149 52.6027 56.6863 52.3949C56.7577 52.1872 56.8747 51.9978 57.0286 51.841C57.1825 51.6842 57.3695 51.564 57.5759 51.4887C57.7824 51.4134 58.0032 51.3852 58.2219 51.4062C61.0059 51.3982 63.7906 51.3982 66.5759 51.4062C66.7944 51.3875 67.0144 51.4173 67.22 51.4933C67.4256 51.5694 67.6117 51.6898 67.7654 51.8461C67.9191 52.0025 68.0361 52.191 68.1087 52.3979C68.1812 52.6048 68.2073 52.8251 68.1848 53.0431C68.1888 54.9001 68.1848 56.756 68.1848 58.613ZM59.5388 54.32V62.9521H65.2478V54.32H59.5388Z" fill="#17598d"/>
<path d="M56.6171 38.338C56.6171 36.482 56.6171 34.6249 56.6171 32.7689C56.594 32.5507 56.6194 32.3302 56.6918 32.1231C56.7643 31.916 56.8819 31.7275 57.0361 31.5714C57.1902 31.4152 57.3773 31.2954 57.5834 31.2203C57.7896 31.1451 58.0095 31.1167 58.228 31.137C61.0133 31.1317 63.798 31.1317 66.582 31.137C66.7955 31.1199 67.0102 31.1491 67.2114 31.2227C67.4125 31.2964 67.5955 31.4126 67.7475 31.5635C67.8995 31.7145 68.0172 31.8966 68.0922 32.0972C68.1672 32.2979 68.1978 32.5123 68.1821 32.7259C68.1867 36.4932 68.1867 40.2599 68.1821 44.0259C68.197 44.2354 68.1671 44.4455 68.0942 44.6424C68.0213 44.8393 67.9069 45.0183 67.7592 45.1676C67.6115 45.3168 67.4339 45.4327 67.2377 45.5076C67.0416 45.5825 66.8316 45.6147 66.622 45.6019C63.8013 45.6119 60.9805 45.6119 58.1591 45.6019C57.9491 45.615 57.7387 45.5827 57.5424 45.5069C57.3462 45.4311 57.1686 45.3138 57.0219 45.1629C56.8753 45.0121 56.7631 44.8312 56.6928 44.6329C56.6226 44.4346 56.5962 44.2235 56.6152 44.014C56.6092 42.127 56.6171 40.227 56.6171 38.338ZM59.539 34.0521V42.668H65.2553V34.0521H59.539Z" fill="#17598d"/>
<path d="M53.704 45.5708H50.8652V31.1709H53.704V45.5708Z" fill="#17598d"/>
<path d="M45.0932 51.44H47.9311V65.8399H45.0932V51.44Z" fill="#17598d"/>
<path d="M50.8813 51.439H53.7202V65.844H50.8813V51.439Z" fill="#17598d"/>
<path d="M30.645 31.1661H33.4643V45.5799H30.645V31.1661Z" fill="#17598d"/>
<path d="M95.771 33.409C96.0744 33.2079 96.3483 32.9656 96.585 32.6891C97.0942 32.0817 97.412 31.3367 97.4971 30.5487C97.5822 29.7606 97.4308 28.9649 97.063 28.2628C96.6952 27.5607 96.1275 26.9837 95.4312 26.6051C94.7348 26.2264 93.9416 26.0632 93.1524 26.1361C93.0123 26.1547 92.8734 26.1809 92.7363 26.2149C88.9971 19.096 83.5615 13.008 76.9102 8.4891C70.2588 3.9702 62.5964 1.15973 54.6006 0.305994C46.6048 -0.547738 38.522 0.581657 31.0664 3.59432C23.6109 6.60699 17.012 11.41 11.854 17.5789C9.97047 19.8412 8.29311 22.2672 6.84131 24.828C5.96828 24.6407 5.05755 24.7516 4.25489 25.1427C3.45222 25.5338 2.80367 26.1825 2.41309 26.9854C2.02251 27.7884 1.91231 28.6992 2.1001 29.5721C2.28789 30.445 2.76301 31.2298 3.44922 31.8011C3.47922 31.8261 3.51295 31.844 3.54395 31.868C0.905719 38.9536 -0.0522077 46.5549 0.745121 54.0736C1.54245 61.5923 4.07351 68.8234 8.13916 75.1981C12.2048 81.5728 17.6941 86.9172 24.1753 90.8109C30.6565 94.7045 37.9529 97.0412 45.4902 97.637C45.724 98.3162 46.1392 98.9185 46.6904 99.379C47.0939 99.7163 47.5596 99.9707 48.0615 100.128C48.5634 100.285 49.0915 100.341 49.6152 100.294C50.139 100.247 50.648 100.097 51.1138 99.8529C51.5795 99.6086 51.9925 99.2749 52.3291 98.8709C52.6258 98.5089 52.8562 98.0972 53.0093 97.6549C55.7559 97.4476 58.4806 97.013 61.1553 96.3551C72.4954 93.5599 82.4573 86.7915 89.2334 77.2786C96.0095 67.7658 99.1508 56.1388 98.0864 44.5079C97.7438 40.7316 96.9666 37.0075 95.771 33.409ZM51.8174 93.2269C51.0008 92.5489 49.9487 92.2218 48.8916 92.3172C47.8345 92.4126 46.8583 92.9227 46.1763 93.7359C45.8323 94.1467 45.5753 94.6231 45.4204 95.1361C38.2962 94.5183 31.4107 92.2637 25.3008 88.5482C19.1908 84.8326 14.021 79.7565 10.1948 73.7152C6.36867 67.6739 3.98958 60.8307 3.24219 53.7188C2.4948 46.607 3.39957 39.4187 5.88623 32.714C5.92823 32.714 5.97021 32.7249 6.01221 32.7249C6.13221 32.7249 6.25305 32.7191 6.37305 32.7091C7.11214 32.6458 7.81908 32.3774 8.41407 31.9344C9.00905 31.4914 9.46868 30.8912 9.74121 30.2013C10.0138 29.5113 10.0882 28.7592 9.95655 28.0291C9.82494 27.2991 9.4924 26.6202 8.9961 26.0689C10.3772 23.6316 11.9733 21.3225 13.7651 19.169C20.0738 11.5731 28.6591 6.20868 38.252 3.86898C41.925 2.96127 45.6945 2.50083 49.478 2.49789C57.948 2.51618 66.2523 4.84773 73.4941 9.24056C80.736 13.6334 86.6406 19.9207 90.5703 27.4239C90.5273 27.4699 90.477 27.506 90.437 27.554C89.9507 28.1293 89.6373 28.8307 89.5332 29.5767C89.4291 30.3228 89.5385 31.0829 89.8486 31.7694C90.1588 32.4558 90.6574 33.0405 91.2861 33.4554C91.9148 33.8703 92.6482 34.0988 93.4014 34.1141C94.5524 37.5537 95.2984 41.1155 95.625 44.7279C96.1736 50.7981 95.5213 56.9171 93.7051 62.7352C91.8888 68.5533 88.9441 73.9567 85.0396 78.6368C81.135 83.3169 76.3471 87.182 70.9487 90.0116C65.5504 92.8411 59.6474 94.5798 53.5772 95.128C53.4122 95.143 53.248 95.147 53.084 95.16C52.8624 94.4044 52.4218 93.7316 51.8174 93.2269Z" fill="#17598d"/>
</svg>
