<svg width="131" height="134" viewBox="0 0 131 134" fill="none" xmlns="http://www.w3.org/2000/svg">
<path d="M127.122 44.5299C128.094 43.8632 128.817 42.893 129.179 41.7713C129.541 40.6497 129.52 39.4399 129.121 38.3311C128.722 37.2223 127.966 36.2772 126.972 35.6436C125.979 35.0101 124.803 34.7237 123.629 34.8297C123.439 34.8477 123.259 34.8988 123.075 34.9298C118.087 25.4335 110.836 17.3124 101.963 11.2845C93.0906 5.25662 82.8696 1.50771 72.2036 0.368976C61.5376 -0.769759 50.7553 0.736881 40.81 4.7557C30.8647 8.77451 22.0626 15.1816 15.1821 23.4107C12.6694 26.4283 10.4312 29.6641 8.49409 33.0797C7.32984 32.8304 6.11584 32.9786 5.0456 33.5003C3.97536 34.022 3.11062 34.8872 2.58979 35.9578C2.06896 37.0285 1.92186 38.243 2.17207 39.4071C2.42227 40.5711 3.05539 41.6176 3.97016 42.3797C4.01016 42.4137 4.05514 42.4378 4.09614 42.4698C0.577473 51.9217 -0.70015 62.061 0.363715 72.0904C1.42758 82.1198 4.80396 91.7657 10.2272 100.269C15.6505 108.773 22.9728 115.902 31.6181 121.096C40.2634 126.29 49.996 129.407 60.0502 130.203C60.3615 131.108 60.9128 131.911 61.6452 132.527C62.1836 132.976 62.8052 133.315 63.4748 133.525C64.1444 133.734 64.8487 133.809 65.5473 133.746C66.246 133.683 66.9253 133.483 67.5466 133.157C68.1679 132.832 68.7189 132.387 69.1682 131.848C69.5642 131.365 69.8713 130.816 70.0751 130.227C73.7389 129.951 77.3734 129.371 80.9411 128.493C96.0683 124.764 109.357 115.736 118.396 103.046C127.436 90.3566 131.626 74.8469 130.206 59.3319C129.75 54.2958 128.715 49.3291 127.122 44.5299Z" fill="white"/>
<path d="M127.122 44.5299C128.094 43.8632 128.817 42.893 129.179 41.7713C129.541 40.6497 129.52 39.4399 129.121 38.3311C128.722 37.2223 127.966 36.2772 126.972 35.6436C125.979 35.0101 124.803 34.7237 123.629 34.8297C123.439 34.8477 123.259 34.8988 123.075 34.9298C118.087 25.4335 110.836 17.3124 101.963 11.2845C93.0906 5.25662 82.8696 1.50771 72.2036 0.368976C61.5376 -0.769759 50.7553 0.736881 40.81 4.7557C30.8647 8.77451 22.0626 15.1816 15.1821 23.4107C12.6694 26.4283 10.4312 29.6641 8.49409 33.0797C7.32984 32.8304 6.11584 32.9786 5.0456 33.5003C3.97536 34.022 3.11062 34.8872 2.58979 35.9578C2.06896 37.0285 1.92186 38.243 2.17207 39.4071C2.42227 40.5711 3.05539 41.6176 3.97016 42.3797C4.01016 42.4137 4.05514 42.4378 4.09614 42.4698C0.577473 51.9217 -0.70015 62.061 0.363715 72.0904C1.42758 82.1198 4.80396 91.7657 10.2272 100.269C15.6505 108.773 22.9728 115.902 31.6181 121.096C40.2634 126.29 49.996 129.407 60.0502 130.203C60.3615 131.108 60.9128 131.911 61.6452 132.527C62.1836 132.976 62.8052 133.315 63.4748 133.525C64.1444 133.734 64.8487 133.809 65.5473 133.746C66.246 133.683 66.9253 133.483 67.5466 133.157C68.1679 132.832 68.7189 132.387 69.1682 131.848C69.5644 131.366 69.8715 130.817 70.0751 130.227C73.7389 129.951 77.3734 129.371 80.9411 128.493C96.0685 124.765 109.358 115.736 118.397 103.047C127.436 90.357 131.626 74.847 130.206 59.3319C129.75 54.2958 128.715 49.3291 127.122 44.5299ZM68.4902 124.33C67.8131 123.764 67.0063 123.376 66.1423 123.198C65.2782 123.021 64.3837 123.06 63.5385 123.312C62.6933 123.565 61.924 124.023 61.299 124.645C60.6741 125.268 60.2131 126.036 59.9572 126.88C50.4539 126.055 41.2691 123.048 33.1188 118.092C24.9686 113.135 18.073 106.364 12.9692 98.305C7.86535 90.2463 4.69129 81.1179 3.69428 71.6312C2.69727 62.1444 3.90417 52.5554 7.22114 43.6117C7.27714 43.6117 7.33308 43.6268 7.39008 43.6268C7.55008 43.6268 7.71128 43.6198 7.87128 43.6048C8.8571 43.5203 9.79958 43.1625 10.5932 42.5716C11.3868 41.9807 12.0001 41.1803 12.3637 40.2601C12.7273 39.3399 12.8271 38.3364 12.6518 37.3626C12.4765 36.3889 12.033 35.4832 11.3713 34.7476C13.213 31.4974 15.3417 28.4185 17.7321 25.5477C26.1473 15.4144 37.5997 8.25793 50.3962 5.13582C55.2962 3.92452 60.3248 3.31029 65.3723 3.30672C76.6706 3.33102 87.7477 6.44102 97.4077 12.3009C107.068 18.1607 114.944 26.5478 120.185 36.5567C120.129 36.6177 120.062 36.6658 120.009 36.7308C119.36 37.4981 118.942 38.4335 118.803 39.4288C118.664 40.4241 118.809 41.4385 119.223 42.3543C119.637 43.2701 120.302 44.05 121.141 44.6034C121.98 45.1567 122.958 45.4609 123.963 45.4808C125.498 50.0692 126.493 54.8204 126.93 59.6388C128.407 75.9918 123.327 92.2618 112.808 104.869C102.289 117.477 87.1921 125.39 70.8391 126.867C70.6191 126.886 70.4011 126.892 70.1821 126.91C69.8858 125.901 69.2971 125.002 68.4902 124.328V124.33Z" fill="#17598d"/>
<path d="M99.4726 36.6011L95.2468 32.1383C93.0235 29.7916 90.7987 27.4461 88.5727 25.1021C87.6727 24.1571 87.1076 24.3632 86.5356 24.9642C82.4689 29.2395 78.4063 33.5199 74.3476 37.8053L71.0256 41.3053C70.8186 41.4791 70.6736 41.7153 70.6125 41.9786C70.5514 42.2419 70.5775 42.518 70.6867 42.7652C70.774 43.0115 70.9426 43.2205 71.1648 43.358C71.3869 43.4954 71.6493 43.5532 71.9087 43.5213H71.9287C73.5887 43.5093 75.2496 43.5133 76.9106 43.5213H77.6106C77.8266 43.5213 78.0426 43.5342 78.2656 43.5482L79.0507 43.5902V50.7371L78.2387 50.1373C69.4537 43.6773 60.9026 43.7252 52.0966 50.2862L51.6237 50.6383L51.3457 50.1021C51.0457 49.5161 50.5786 49.3083 49.5456 49.3153C46.4636 49.3303 43.3298 49.3272 40.2998 49.3262H36.4726C34.9536 49.3262 34.6467 49.6563 34.6467 51.2843V90.2452H34.1296C33.4816 90.2452 32.8427 90.2452 32.2097 90.2452C30.6197 90.2452 29.1198 90.2512 27.5918 90.2352H27.5547C26.6677 90.2352 26.3976 90.6063 26.2546 90.9713C26.1424 91.2499 26.1238 91.5573 26.2014 91.8475C26.2789 92.1376 26.4486 92.3947 26.6848 92.5802C29.4848 95.5222 32.2798 98.4662 35.0698 101.412C37.3845 103.852 39.6999 106.292 42.0166 108.731C42.7486 109.501 43.3168 109.503 44.0498 108.731C47.0571 105.566 50.0617 102.399 53.0637 99.2313C55.1877 96.9906 57.3118 94.751 59.4358 92.5123C59.6583 92.3353 59.8165 92.0902 59.8864 91.8145C59.9563 91.5389 59.934 91.2478 59.8227 90.9862C59.6007 90.4462 59.2107 90.2332 58.4897 90.2362C56.9987 90.2522 55.4847 90.2482 54.0207 90.2432H52.8938C52.6818 90.2432 52.4696 90.2301 52.2346 90.2161C52.1276 90.2091 52.0147 90.2021 51.8947 90.1961L51.4026 90.1712V88.5452C51.4026 87.1912 51.4026 85.8862 51.4026 84.5792C51.4059 84.4379 51.418 84.2971 51.4387 84.1573C51.4457 84.1073 51.4527 84.0572 51.4577 84.0062L51.5527 83.0953L52.2666 83.6182C61.1086 90.0992 69.6597 90.0511 78.4087 83.4761L78.8816 83.1212L79.1616 83.6573C79.4686 84.2463 79.9266 84.4471 80.9616 84.4471C84.0806 84.4301 87.2516 84.4331 90.3176 84.4351H93.9497C95.6047 84.4351 95.8747 84.1502 95.8747 82.4002V43.5911L96.3676 43.5672L96.7036 43.5482C96.9276 43.5352 97.1248 43.5233 97.3208 43.5233H98.6328C100.008 43.5173 101.433 43.5123 102.833 43.5343C103.768 43.5523 104.083 43.2542 104.265 42.8072C104.378 42.5146 104.394 42.1929 104.308 41.8909C104.222 41.589 104.04 41.3233 103.79 41.1341C102.34 39.6281 100.884 38.0891 99.4726 36.6011ZM53.2087 92.7313H55.5666L42.9668 106.017L30.3667 92.7313H32.8256C33.6996 92.7313 34.5418 92.7313 35.3838 92.7313C36.6948 92.7213 37.0346 92.3572 37.0346 90.9622V51.9132H49.3877L49.1696 52.6253C49.1066 52.8253 49.0587 53.0322 49.0127 53.2252C48.9307 53.6868 48.7708 54.1311 48.5398 54.5391C46.1291 58.1997 44.8428 62.4859 44.8396 66.869C44.8364 71.252 46.1164 75.5401 48.5217 79.2042C48.8427 79.7176 49.0181 80.3087 49.0288 80.9141C49.0528 83.2141 49.0518 85.5441 49.0498 87.8001C49.0498 88.8915 49.0498 89.9821 49.0498 91.0721C49.0498 92.3581 49.3896 92.7141 50.6196 92.7271C51.4896 92.7361 52.3586 92.7323 53.2126 92.7313H53.2087ZM65.2776 85.9012H65.2497C62.8623 85.8928 60.5021 85.3944 58.3152 84.4368C56.1282 83.4793 54.161 82.083 52.5356 80.3343C49.1039 76.7093 47.2002 71.9019 47.2197 66.9102C47.2057 56.4272 55.2837 47.8862 65.2277 47.8712H65.2546C67.6429 47.8788 70.0042 48.3765 72.1923 49.3336C74.3805 50.2906 76.3487 51.6866 77.9756 53.4351C81.4066 57.0597 83.3088 61.8673 83.2866 66.8582C83.3016 77.3422 75.2227 85.8852 65.2817 85.9012H65.2776ZM97.7478 41.0401C96.9258 41.0401 96.0927 41.0401 95.2607 41.0401C93.7767 41.0461 93.4768 41.3663 93.4768 42.9403V81.8731H81.1167L81.3396 81.1583C81.4036 80.9513 81.4527 80.7443 81.5017 80.5443C81.5882 80.0708 81.7542 79.6152 81.9926 79.1971C84.3613 75.534 85.6235 71.2656 85.6279 66.9034C85.6323 62.5411 84.379 58.2701 82.0178 54.6021C81.681 54.0657 81.4951 53.4485 81.4797 52.8153C81.4527 50.4653 81.4557 48.0793 81.4577 45.7713C81.4577 44.762 81.4577 43.7532 81.4577 42.7452C81.4577 41.4032 81.1246 41.0522 79.8476 41.0452C78.9906 41.0372 78.1318 41.0402 77.3198 41.0452H75.0576L87.5527 27.8692L100.053 41.0443L97.7478 41.0401Z" fill="#17598d" stroke="#17598d" stroke-width="0.511"/>
<path d="M64.3413 52.082H66.4363V55.342L70.9763 56.6292L70.0581 59.1982C68.6223 58.3267 66.9563 57.9106 65.2793 58.0051C64.8507 57.9963 64.4248 58.0769 64.0291 58.2417C63.6333 58.4065 63.2762 58.6519 62.9805 58.9624C62.6848 59.2729 62.4569 59.6416 62.3115 60.0449C62.1662 60.4483 62.1066 60.8775 62.1362 61.3052C62.1341 61.7256 62.2353 62.14 62.4312 62.512C62.627 62.8839 62.9115 63.2021 63.2593 63.4382C64.1493 64.0332 65.0992 64.5291 66.0342 65.0481C67.0192 65.5961 68.0623 66.0481 68.9983 66.6721C69.9316 67.3222 70.6679 68.2164 71.127 69.2571C71.586 70.2977 71.7499 71.4447 71.6008 72.5723C71.4517 73.6998 70.9955 74.7646 70.2817 75.6501C69.568 76.5357 68.6244 77.2081 67.5542 77.5933C67.1542 77.7453 66.7362 77.8531 66.2542 78.0051V81.6572H64.1223V78.1172C62.2531 78.038 60.4381 77.4661 58.8613 76.4592L59.5991 74.2742C60.8254 74.7663 62.0896 75.1581 63.3792 75.446C64.4503 75.6129 65.5463 75.5142 66.5703 75.1582C67.114 74.9456 67.5932 74.5955 67.9609 74.1421C68.3287 73.6887 68.5724 73.1474 68.6682 72.5715C68.764 71.9956 68.7085 71.4047 68.5073 70.8567C68.3061 70.3087 67.9659 69.8222 67.5203 69.4451C66.7515 68.8294 65.9149 68.3035 65.0271 67.8772C63.9911 67.3022 62.8812 66.8651 61.8772 66.2361C60.9512 65.6717 60.2079 64.8518 59.7368 63.875C59.2657 62.8982 59.0868 61.8063 59.2217 60.7302C59.3566 59.6542 59.7997 58.6401 60.4973 57.8098C61.195 56.9795 62.1176 56.3683 63.1543 56.05C63.3583 56.0272 63.5548 55.9602 63.7302 55.8535C63.9057 55.7469 64.0557 55.6032 64.1699 55.4326C64.2842 55.262 64.36 55.0686 64.3918 54.8657C64.4237 54.6629 64.4108 54.4554 64.3542 54.2581C64.2862 53.5771 64.3413 52.879 64.3413 52.082Z" fill="#17598d" stroke="#17598d" stroke-width="0.511"/>
</svg>
