<svg id="Component_25_1" data-name="Component 25 – 1" xmlns="http://www.w3.org/2000/svg" width="960.886" height="378.333" viewBox="0 0 960.886 378.333">
  <g id="Group_154" data-name="Group 154" transform="translate(-6708.383 -3578.173)">
    <path id="Path_143" data-name="Path 143" d="M7447.9,3611.56a3.995,3.995,0,0,0-2.619-7.274,4.109,4.109,0,0,0-.415.079,48.945,48.945,0,0,0-80.882-8.635,49.352,49.352,0,0,0-5.013,7.248,3.993,3.993,0,0,0-3.392,6.973c.03.025.064.043.094.067a48.873,48.873,0,0,0,41.946,65.77,3.968,3.968,0,0,0,1.2,1.742,4,4,0,0,0,5.64-.509,3.973,3.973,0,0,0,.68-1.215,49.707,49.707,0,0,0,8.146-1.3,48.817,48.817,0,0,0,36.931-51.847A49.336,49.336,0,0,0,7447.9,3611.56Zm-43.953,59.821a4,4,0,0,0-6.4,1.911,46.445,46.445,0,0,1-39.534-62.422c.042,0,.084.012.126.012.12,0,.241-.006.361-.017a3.988,3.988,0,0,0,2.623-6.64,46.921,46.921,0,0,1,4.769-6.9,46,46,0,0,1,24.487-15.3,46.923,46.923,0,0,1,11.226-1.371,46.5,46.5,0,0,1,41.091,24.926c-.042.046-.092.082-.132.131a4,4,0,0,0,.509,5.639,4.02,4.02,0,0,0,1.1.654,3.977,3.977,0,0,0,1.356.266,46.781,46.781,0,0,1,2.224,10.614,46.411,46.411,0,0,1-42.049,50.4c-.164.015-.328.019-.492.033A3.983,3.983,0,0,0,7403.949,3671.381Z" fill="#17598d"/>
    <g id="Group_153" data-name="Group 153">
      <path id="Path_144" data-name="Path 144" d="M7388.535,3657.644h29.738a3.8,3.8,0,0,0,3.8-3.795v-54.981a3.8,3.8,0,0,0-3.789-3.788h-29.752a3.794,3.794,0,0,0-3.789,3.788v20.76a15.985,15.985,0,0,0,0,31.255v2.966a3.795,3.795,0,0,0,3.789,3.795Zm29.738-61.218a2.429,2.429,0,0,1,2.442,2.442v54.981a2.436,2.436,0,0,1-2.428,2.435h-29.752a2.434,2.434,0,0,1-2.428-2.435v-2.721a15.9,15.9,0,0,0,14.752-6.244h15.38a1.919,1.919,0,0,0,1.918-1.918v-42.581a1.919,1.919,0,0,0-1.918-1.918h-25.671a1.919,1.919,0,0,0-1.918,1.918v18.889h-.551a16,16,0,0,0-1.993.123v-20.529a2.427,2.427,0,0,1,2.428-2.428Zm-24.086,19.216h3.231v6.625a16.281,16.281,0,0,0-3.231-1.8Zm3.912-1.36h-1.633v-2.959a.68.68,0,1,0-1.36,0v2.958h-1.6a.679.679,0,0,0-.68.68v4.992a15.857,15.857,0,0,0-2.8-.591v-18.978a.557.557,0,0,1,.557-.558h25.657a.557.557,0,0,1,.558.558v42.567a.558.558,0,0,1-.558.558h-14.454a15.96,15.96,0,0,0-3.02-20.155v-8.393a.68.68,0,0,0-.68-.681Zm-10,6.353a14.637,14.637,0,1,1-10.337,4.287,14.624,14.624,0,0,1,10.337-4.287Z" fill="#17598d" stroke="#17598d" stroke-width="0.488"/>
      <path id="Path_145" data-name="Path 145" d="M7401.112,3619.445h1.612v2.952a.68.68,0,1,0,1.36,0v-2.952h1.619a.679.679,0,0,0,.68-.68v-9.182a.681.681,0,0,0-.68-.681h-1.619v-2.952a.68.68,0,1,0-1.36,0v2.952h-1.612a.68.68,0,0,0-.68.681v9.182a.679.679,0,0,0,.68.68Zm.68-9.182h3.231v7.822h-3.231Z" fill="#17598d" stroke="#17598d" stroke-width="0.488"/>
      <path id="Path_146" data-name="Path 146" d="M7408.723,3629.648h1.619v2.952a.681.681,0,1,0,1.361,0v-2.952h1.612a.68.68,0,0,0,.68-.68v-9.182a.681.681,0,0,0-.68-.681H7411.7v-2.952a.681.681,0,0,0-1.361,0v2.952h-1.619a.681.681,0,0,0-.68.681v9.182a.68.68,0,0,0,.68.68Zm.68-9.182h3.231v7.822H7409.4Z" fill="#17598d" stroke="#17598d" stroke-width="0.488"/>
      <path id="Path_147" data-name="Path 147" d="M7403.4,3646.313a4.081,4.081,0,1,0,2.886,1.2A4.08,4.08,0,0,0,7403.4,3646.313Zm-2.721,4.082a1.387,1.387,0,1,0,.007-.014Z" fill="#17598d" stroke="#17598d" stroke-width="0.488"/>
      <path id="Path_148" data-name="Path 148" d="M7377.9,3629.873a.68.68,0,1,0,0,1.36h17.528l-4.231,2.116a.681.681,0,0,0,.613,1.217l6.8-3.4a.761.761,0,0,0,.163-.122.8.8,0,0,0,.1-.157.213.213,0,0,0,0-.061.606.606,0,0,0,0-.469.213.213,0,0,0,0-.061.781.781,0,0,0-.1-.157v-.034a.761.761,0,0,0-.163-.122l-6.8-3.4a.681.681,0,0,0-.613,1.217l4.231,2.109Z" fill="#17598d" stroke="#17598d" stroke-width="0.488"/>
      <path id="Path_149" data-name="Path 149" d="M7398.3,3640.641a.681.681,0,0,0,0-1.361h-17.522l4.224-2.115a.682.682,0,0,0-.613-1.218l-6.8,3.4a.761.761,0,0,0-.163.123.6.6,0,0,0-.109.156v.061a.606.606,0,0,0,0,.469v.062a.635.635,0,0,0,.109.156.067.067,0,0,0,0,.034.778.778,0,0,0,.163.123l6.8,3.4a.729.729,0,0,0,.307.074.68.68,0,0,0,.306-1.292l-4.224-2.109Z" fill="#17598d" stroke="#17598d" stroke-width="0.488"/>
    </g>
  </g>
  <g id="Group_160" data-name="Group 160" transform="translate(-6704.28 -3569.107)">
    <path id="Path_164" data-name="Path 164" d="M7662.651,3662.8a3.995,3.995,0,0,0-2.619-7.274,4.109,4.109,0,0,0-.415.079,48.946,48.946,0,0,0-80.883-8.635,49.5,49.5,0,0,0-5.013,7.248,3.993,3.993,0,0,0-3.392,6.973c.03.025.065.043.095.067a48.873,48.873,0,0,0,41.946,65.77,3.975,3.975,0,0,0,7.516.018,49.665,49.665,0,0,0,8.145-1.3,48.816,48.816,0,0,0,36.932-51.847A49.336,49.336,0,0,0,7662.651,3662.8Zm-43.954,59.821a4,4,0,0,0-6.4,1.911,46.447,46.447,0,0,1-39.535-62.422c.043,0,.085.012.127.012.12,0,.241-.006.361-.017a3.988,3.988,0,0,0,2.623-6.64,46.846,46.846,0,0,1,4.769-6.9,46,46,0,0,1,24.487-15.3,46.923,46.923,0,0,1,11.226-1.371,46.5,46.5,0,0,1,41.091,24.926c-.042.046-.092.082-.132.131a4,4,0,0,0,.509,5.639,4.029,4.029,0,0,0,1.1.654,3.987,3.987,0,0,0,1.357.266,46.781,46.781,0,0,1,2.224,10.614,46.413,46.413,0,0,1-42.049,50.4c-.164.015-.328.019-.492.032A3.975,3.975,0,0,0,7618.7,3722.621Z" fill="#17598d"/>
    <g id="Group_159" data-name="Group 159">
      <path id="Path_165" data-name="Path 165" d="M7635.15,3662.33l-1.6-1.867a1.317,1.317,0,1,0-2,1.713l2.6,3.029a1.316,1.316,0,0,0,2,0l6.173-7.126a1.317,1.317,0,0,0-1.99-1.725Z" fill="#17598d"/>
      <path id="Path_166" data-name="Path 166" d="M7644.067,3668.149a10.458,10.458,0,0,0,1.735-5.56,1.309,1.309,0,0,0-.371-.935,1.323,1.323,0,0,0-.923-.4,1.309,1.309,0,0,0-.936.373,1.327,1.327,0,0,0-.4.923,7.811,7.811,0,0,1-7.807,7.677h-.09a7.809,7.809,0,0,1,.089-15.618,1.317,1.317,0,0,0,0-2.634h0a10.355,10.355,0,0,0-5.79,1.762l-.41.276-.143-.473a3.9,3.9,0,0,0-3.712-2.762h-22.389a1.3,1.3,0,0,0-.579.142,1.54,1.54,0,0,0-.359.25l-12.425,12.428a1.282,1.282,0,0,0-.369.889l-.006.477-.011,0v29.685a3.906,3.906,0,0,0,3.9,3.9h6.312v4.577a3.9,3.9,0,0,0,3.9,3.9h32.239a3.9,3.9,0,0,0,3.9-3.9v-31.1l.215-.1A10.48,10.48,0,0,0,7644.067,3668.149Zm-42.472-12.876v6.694a1.245,1.245,0,0,1-1.242,1.244h-6.7Zm-1.833,16.8a1.314,1.314,0,0,0-.374.957l.019.613-.032-.017v22.286h-6.312a1.268,1.268,0,0,1-1.269-1.265v-28.8h8.557a3.882,3.882,0,0,0,3.877-3.877v-8.556H7625.3a1.27,1.27,0,0,1,1.267,1.266v2.13l-.056.09a10.382,10.382,0,0,0-1.012,2.113l-.086.246h-11.87v0l-.432.014h-.013a1.294,1.294,0,0,0-.911.37Zm12.045-8.32v6.694a1.237,1.237,0,0,1-.364.878,1.251,1.251,0,0,1-.878.363h-6.694Zm24.975,39.37a1.268,1.268,0,0,1-1.266,1.268h-32.241a1.27,1.27,0,0,1-1.267-1.268v-28.8h8.557a3.9,3.9,0,0,0,2.738-1.137,3.855,3.855,0,0,0,1.138-2.74v-8.555h10.491l-.012.469a10.451,10.451,0,0,0,10.441,10.5c.343,0,.683-.018,1.019-.051l.4-.04Z" fill="#17598d"/>
      <path id="Path_167" data-name="Path 167" d="M7631.284,3678.888a1.321,1.321,0,0,0-1.139-.659h-21.957a1.317,1.317,0,0,0,0,2.634h21.957a1.316,1.316,0,0,0,1.139-1.975Z" fill="#17598d"/>
      <path id="Path_168" data-name="Path 168" d="M7607.048,3686.159a1.322,1.322,0,0,0,1.14.659H7623a1.317,1.317,0,0,0,0-2.634h-14.81a1.316,1.316,0,0,0-1.14,1.975Z" fill="#17598d"/>
      <path id="Path_169" data-name="Path 169" d="M7624.139,3696.116a1.321,1.321,0,0,0-1.14-.659h-3.785a1.529,1.529,0,0,1-1.531-1.531v-.249a2.243,2.243,0,0,0-1.957-2.226,2.3,2.3,0,0,0-.287-.019,2.241,2.241,0,0,0-1.253.383l-5.748,3.867a1.317,1.317,0,0,0,.483,2.385,1.3,1.3,0,0,0,.988-.2l5.135-3.454.126.508a4.173,4.173,0,0,0,4.045,3.171H7623a1.318,1.318,0,0,0,1.14-1.975Z" fill="#17598d"/>
      <path id="Path_170" data-name="Path 170" d="M7631.284,3696.115a1.322,1.322,0,0,0-1.139-.659h-1.95a1.317,1.317,0,0,0,0,2.634h1.95a1.317,1.317,0,0,0,1.139-1.975Z" fill="#17598d"/>
    </g>
  </g>
  <g id="Component_24_1" data-name="Component 24 – 1" transform="translate(0 58.263)">
    <g id="Group_363" data-name="Group 363" transform="translate(-6708.383 -3636.436)">
      <g id="Group_362" data-name="Group 362">
        <path id="Path_435" data-name="Path 435" d="M6767.115,3691.251c-8.513,0-15.145-3.366-15.145-7.721,0-2.277,1.782-4.355,5.049-5.84l.792,1.782c-1.485.693-3.861,2.078-3.861,4.058,0,2.772,5.444,5.741,13.165,5.741,7.127,0,12.076-2.474,13.066-4.85l1.782.792c-1.485,3.563-7.523,6.038-14.848,6.038Z" fill="#17598d"/>
        <path id="Path_436" data-name="Path 436" d="M6767.115,3697.19c-8.513,0-15.145-3.365-15.145-7.721v-5.939h1.98v5.939c0,2.772,5.444,5.741,13.165,5.741s13.165-3.068,13.165-5.741v-5.345h1.98v5.345C6782.359,3693.825,6775.628,3697.19,6767.115,3697.19Z" fill="#17598d"/>
        <path id="Path_437" data-name="Path 437" d="M6767.016,3702.634a34.933,34.933,0,0,1-5.543-.5l.4-1.979a30.184,30.184,0,0,0,5.147.5h.1c7.721,0,13.165-3.069,13.165-5.742v-5.246h1.98v5.246c0,4.257-6.633,7.622-15.244,7.721Z" fill="#17598d"/>
        <path id="Path_438" data-name="Path 438" d="M6751.97,3688.974h1.98v5.841h-1.98Z" fill="#17598d"/>
        <path id="Path_439" data-name="Path 439" d="M6767.016,3707.979a33.805,33.805,0,0,1-5.543-.5l.4-1.979a30.384,30.384,0,0,0,5.246.5c7.721,0,13.165-3.069,13.165-5.742v-5.246h1.98v5.246c0,4.356-6.633,7.721-15.244,7.721Z" fill="#17598d"/>
        <path id="Path_440" data-name="Path 440" d="M6751.97,3694.32h1.98v.494h-1.98Z" fill="#17598d"/>
        <path id="Path_441" data-name="Path 441" d="M6767.016,3713.424a27.555,27.555,0,0,1-5.741-.594l.4-1.98a20.3,20.3,0,0,0,5.444.495c7.721,0,13.165-3.069,13.165-5.741v-5.246h1.98v5.246c0,4.355-6.632,7.721-15.145,7.721,0,.1,0,.1-.1.1Z" fill="#17598d"/>
        <path id="Path_442" data-name="Path 442" d="M6747.714,3713.621c-8.116,0-14.551-3.266-14.551-7.423v-5.642h1.98v5.642c0,2.573,5.147,5.444,12.571,5.444s12.571-2.871,12.571-5.444v-5.048h1.98v5.048c0,4.157-6.434,7.423-14.551,7.423Z" fill="#17598d"/>
        <path id="Path_443" data-name="Path 443" d="M6747.714,3718.769c-8.116,0-14.551-3.267-14.551-7.424V3705.7h1.98v5.642c0,2.573,5.147,5.444,12.571,5.444s12.571-2.871,12.571-5.444V3706.3h1.98v5.048c0,4.157-6.434,7.424-14.551,7.424Z" fill="#17598d"/>
        <path id="Path_444" data-name="Path 444" d="M6771.47,3681.551c-8.216,0-14.649-3.267-14.649-7.523a4.085,4.085,0,0,1,.5-1.881l1.781.891a1.964,1.964,0,0,0-.2,1.089c0,2.573,5.246,5.543,12.67,5.543s12.67-2.97,12.67-5.543c0-1.386-1.386-2.772-3.762-3.861l.792-1.782c3.167,1.386,4.949,3.465,4.949,5.642-.1,4.059-6.533,7.424-14.748,7.424Z" fill="#17598d"/>
        <path id="Path_445" data-name="Path 445" d="M6771.47,3687.193c-8.216,0-14.649-3.267-14.649-7.523v-5.642h1.979v5.642c0,2.573,5.247,5.543,12.67,5.543s12.67-2.97,12.67-5.543v-5.642h1.98v5.642c0,4.256-6.434,7.523-14.65,7.523Z" fill="#17598d"/>
        <path id="Path_446" data-name="Path 446" d="M6767.115,3669.771c-8.216,0-14.65-3.266-14.65-7.522s6.434-7.523,14.65-7.523,14.65,3.267,14.65,7.523C6781.765,3666.406,6775.331,3669.771,6767.115,3669.771Zm0-13.066c-7.424,0-12.67,2.97-12.67,5.543s5.246,5.544,12.67,5.544,12.67-2.97,12.67-5.544C6779.785,3659.576,6774.539,3656.705,6767.115,3656.705Z" fill="#17598d"/>
        <path id="Path_447" data-name="Path 447" d="M6747.714,3707.979c-8.116,0-14.551-3.266-14.551-7.423s6.434-7.424,14.551-7.424,14.551,3.266,14.551,7.424-6.434,7.423-14.551,7.423Zm0-12.967c-7.424,0-12.571,2.871-12.571,5.445s5.147,5.444,12.571,5.444,12.571-2.871,12.571-5.444-5.147-5.445-12.571-5.445Z" fill="#17598d"/>
        <path id="Path_448" data-name="Path 448" d="M6752.564,3689.568c-7.226-.3-12.67-3.464-12.67-7.226V3676.9h1.98v5.444c0,2.277,4.157,4.949,10.789,5.247Z" fill="#17598d"/>
        <path id="Path_449" data-name="Path 449" d="M6752.564,3694.715c-7.226-.3-12.67-3.464-12.67-7.226v-5.444h1.98v5.444c0,2.277,4.157,4.95,10.789,5.247Z" fill="#17598d"/>
        <path id="Path_450" data-name="Path 450" d="M6740.191,3695.21a20.368,20.368,0,0,1-.3-2.573v-5.444h1.98v5.444a18.924,18.924,0,0,0,.3,2.177Z" fill="#17598d"/>
        <path id="Path_451" data-name="Path 451" d="M6753.95,3674.127c-7.919,0-14.056-3.168-14.056-7.226v-5.444h1.98v5.444c0,2.474,4.949,5.246,12.076,5.246,1.089,0,2.178-.1,3.167-.2l.2,1.98c-.989.1-2.177.2-3.365.2Z" fill="#17598d"/>
        <path id="Path_452" data-name="Path 452" d="M6754.049,3679.274c-8.018,0-14.155-3.167-14.155-7.226V3666.6h1.98v5.444c0,2.474,4.949,5.246,12.076,5.246a26.976,26.976,0,0,0,4.058-.3l.3,1.98a29.707,29.707,0,0,1-4.256.3Z" fill="#17598d"/>
        <path id="Path_453" data-name="Path 453" d="M6753.455,3684.421c-7.721-.1-13.561-3.267-13.561-7.226v-5.444h1.98v5.444c0,2.475,4.652,5.147,11.581,5.246Z" fill="#17598d"/>
        <path id="Path_454" data-name="Path 454" d="M6752.96,3668.979c-7.424-.3-13.066-3.365-13.066-7.226v-5.444h1.98v5.444c0,2.376,4.454,5.049,11.185,5.247Z" fill="#17598d"/>
        <path id="Path_455" data-name="Path 455" d="M6752.96,3664.129c-7.424-.3-13.066-3.365-13.066-7.226,0-4.058,6.236-7.226,14.056-7.226,6.632,0,12.274,2.277,13.759,5.543l-1.782.792c-.99-2.177-5.444-4.454-11.977-4.454-7.127,0-12.076,2.772-12.076,5.246,0,2.376,4.454,5.048,11.185,5.247Z" fill="#17598d"/>
        <path id="Path_456" data-name="Path 456" d="M6767.115,3675.413c-8.216,0-14.65-3.266-14.65-7.522v-5.642h1.98v5.642c0,2.573,5.246,5.543,12.67,5.543s12.67-2.97,12.67-5.543v-5.642h1.98v5.642C6781.765,3672.147,6775.331,3675.413,6767.115,3675.413Z" fill="#17598d"/>
      </g>
      <path id="Path_457" data-name="Path 457" d="M6803.656,3669.822a3.994,3.994,0,0,0-2.619-7.273,3.808,3.808,0,0,0-.415.079,48.947,48.947,0,0,0-80.883-8.636,49.5,49.5,0,0,0-5.013,7.249,3.993,3.993,0,0,0-3.392,6.973c.03.025.064.043.1.067a48.869,48.869,0,0,0,41.946,65.769,3.953,3.953,0,0,0,1.2,1.742,4,4,0,0,0,5.639-.508,3.945,3.945,0,0,0,.68-1.216,49.81,49.81,0,0,0,8.146-1.3,48.817,48.817,0,0,0,36.931-51.847A49.343,49.343,0,0,0,6803.656,3669.822Zm-43.954,59.822a4,4,0,0,0-6.4,1.911,46.447,46.447,0,0,1-39.534-62.422c.043,0,.084.011.127.011.12,0,.241-.006.361-.017a3.986,3.986,0,0,0,2.622-6.639,47.057,47.057,0,0,1,4.769-6.9,46.007,46.007,0,0,1,24.487-15.3,46.9,46.9,0,0,1,11.227-1.371,46.5,46.5,0,0,1,41.091,24.926c-.042.046-.092.082-.133.13a3.987,3.987,0,0,0,2.964,6.56,46.775,46.775,0,0,1,2.225,10.614,46.414,46.414,0,0,1-42.049,50.4c-.165.015-.328.019-.493.032A3.98,3.98,0,0,0,6759.7,3729.644Z" fill="#17598d"/>
    </g>
    <g id="Group_365" data-name="Group 365" transform="translate(-6708.383 -3636.436)">
      <g id="Group_364" data-name="Group 364">
        <path id="Path_458" data-name="Path 458" d="M6767.115,3859.794c-8.513,0-15.145-3.366-15.145-7.721,0-2.277,1.782-4.355,5.049-5.84l.792,1.782c-1.485.692-3.861,2.078-3.861,4.058,0,2.772,5.444,5.741,13.165,5.741,7.127,0,12.076-2.474,13.066-4.85l1.782.792c-1.485,3.563-7.523,6.038-14.848,6.038Z" fill="#17598d"/>
        <path id="Path_459" data-name="Path 459" d="M6767.115,3865.733c-8.513,0-15.145-3.366-15.145-7.721v-5.939h1.98v5.939c0,2.772,5.444,5.741,13.165,5.741s13.165-3.068,13.165-5.741v-5.345h1.98v5.345C6782.359,3862.367,6775.628,3865.733,6767.115,3865.733Z" fill="#17598d"/>
        <path id="Path_460" data-name="Path 460" d="M6767.016,3871.177a34.933,34.933,0,0,1-5.543-.5l.4-1.979a30.182,30.182,0,0,0,5.147.494h.1c7.721,0,13.165-3.068,13.165-5.741v-5.246h1.98v5.246c0,4.257-6.633,7.622-15.244,7.721Z" fill="#17598d"/>
        <path id="Path_461" data-name="Path 461" d="M6751.97,3857.517h1.98v5.84h-1.98Z" fill="#17598d"/>
        <path id="Path_462" data-name="Path 462" d="M6767.016,3876.522a33.94,33.94,0,0,1-5.543-.495l.4-1.979a30.408,30.408,0,0,0,5.246.495c7.721,0,13.165-3.069,13.165-5.742v-5.246h1.98v5.246c0,4.356-6.633,7.721-15.244,7.721Z" fill="#17598d"/>
        <path id="Path_463" data-name="Path 463" d="M6751.97,3862.862h1.98v.495h-1.98Z" fill="#17598d"/>
        <path id="Path_464" data-name="Path 464" d="M6767.016,3881.966a27.555,27.555,0,0,1-5.741-.593l.4-1.98a20.3,20.3,0,0,0,5.444.495c7.721,0,13.165-3.069,13.165-5.741V3868.9h1.98v5.246c0,4.355-6.632,7.721-15.145,7.721,0,.1,0,.1-.1.1Z" fill="#17598d"/>
        <path id="Path_465" data-name="Path 465" d="M6747.714,3882.164c-8.116,0-14.551-3.266-14.551-7.423V3869.1h1.98v5.642c0,2.573,5.147,5.444,12.571,5.444s12.571-2.871,12.571-5.444v-5.049h1.98v5.049c0,4.157-6.434,7.423-14.551,7.423Z" fill="#17598d"/>
        <path id="Path_466" data-name="Path 466" d="M6747.714,3887.312c-8.116,0-14.551-3.267-14.551-7.424v-5.642h1.98v5.642c0,2.573,5.147,5.444,12.571,5.444s12.571-2.871,12.571-5.444v-5.048h1.98v5.048c0,4.157-6.434,7.424-14.551,7.424Z" fill="#17598d"/>
        <path id="Path_467" data-name="Path 467" d="M6771.47,3850.093c-8.216,0-14.649-3.266-14.649-7.522a4.085,4.085,0,0,1,.5-1.881l1.781.891a1.964,1.964,0,0,0-.2,1.089c0,2.573,5.246,5.543,12.67,5.543s12.67-2.97,12.67-5.543c0-1.386-1.386-2.772-3.762-3.861l.792-1.782c3.167,1.386,4.949,3.465,4.949,5.642-.1,4.059-6.533,7.424-14.748,7.424Z" fill="#17598d"/>
        <path id="Path_468" data-name="Path 468" d="M6771.47,3855.736c-8.216,0-14.649-3.267-14.649-7.523v-5.642h1.979v5.642c0,2.573,5.247,5.543,12.67,5.543s12.67-2.97,12.67-5.543v-5.642h1.98v5.642c0,4.256-6.434,7.523-14.65,7.523Z" fill="#17598d"/>
        <path id="Path_469" data-name="Path 469" d="M6767.115,3838.314c-8.216,0-14.65-3.266-14.65-7.522s6.434-7.523,14.65-7.523,14.65,3.266,14.65,7.523C6781.765,3834.949,6775.331,3838.314,6767.115,3838.314Zm0-13.066c-7.424,0-12.67,2.97-12.67,5.543s5.246,5.543,12.67,5.543,12.67-2.969,12.67-5.543C6779.785,3828.119,6774.539,3825.248,6767.115,3825.248Z" fill="#17598d"/>
        <path id="Path_470" data-name="Path 470" d="M6747.714,3876.522c-8.116,0-14.551-3.266-14.551-7.424s6.434-7.423,14.551-7.423,14.551,3.266,14.551,7.423-6.434,7.424-14.551,7.424Zm0-12.967c-7.424,0-12.571,2.871-12.571,5.444s5.147,5.445,12.571,5.445,12.571-2.871,12.571-5.445-5.147-5.444-12.571-5.444Z" fill="#17598d"/>
        <path id="Path_471" data-name="Path 471" d="M6752.564,3858.111c-7.226-.3-12.67-3.464-12.67-7.226v-5.444h1.98v5.444c0,2.277,4.157,4.949,10.789,5.247Z" fill="#17598d"/>
        <path id="Path_472" data-name="Path 472" d="M6752.564,3863.258c-7.226-.3-12.67-3.464-12.67-7.226v-5.444h1.98v5.444c0,2.277,4.157,4.95,10.789,5.247Z" fill="#17598d"/>
        <path id="Path_473" data-name="Path 473" d="M6740.191,3863.753a20.368,20.368,0,0,1-.3-2.573v-5.444h1.98v5.444a18.924,18.924,0,0,0,.3,2.177Z" fill="#17598d"/>
        <path id="Path_474" data-name="Path 474" d="M6753.95,3842.67c-7.919,0-14.056-3.168-14.056-7.226V3830h1.98v5.445c0,2.474,4.949,5.246,12.076,5.246,1.089,0,2.178-.1,3.167-.2l.2,1.98c-.989.1-2.177.2-3.365.2Z" fill="#17598d"/>
        <path id="Path_475" data-name="Path 475" d="M6754.049,3847.817c-8.018,0-14.155-3.168-14.155-7.226v-5.444h1.98v5.444c0,2.474,4.949,5.246,12.076,5.246a26.976,26.976,0,0,0,4.058-.3l.3,1.98a29.707,29.707,0,0,1-4.256.3Z" fill="#17598d"/>
        <path id="Path_476" data-name="Path 476" d="M6753.455,3852.964c-7.721-.1-13.561-3.267-13.561-7.226v-5.444h1.98v5.444c0,2.475,4.652,5.147,11.581,5.246Z" fill="#17598d"/>
        <path id="Path_477" data-name="Path 477" d="M6752.96,3837.522c-7.424-.3-13.066-3.365-13.066-7.226v-5.444h1.98v5.444c0,2.376,4.454,5.049,11.185,5.247Z" fill="#17598d"/>
        <path id="Path_478" data-name="Path 478" d="M6752.96,3832.672c-7.424-.3-13.066-3.365-13.066-7.226,0-4.058,6.236-7.226,14.056-7.226,6.632,0,12.274,2.277,13.759,5.543l-1.782.792c-.99-2.177-5.444-4.454-11.977-4.454-7.127,0-12.076,2.772-12.076,5.246,0,2.376,4.454,5.048,11.185,5.247Z" fill="#17598d"/>
        <path id="Path_479" data-name="Path 479" d="M6767.115,3843.956c-8.216,0-14.65-3.266-14.65-7.522v-5.642h1.98v5.642c0,2.573,5.246,5.543,12.67,5.543s12.67-2.97,12.67-5.543v-5.642h1.98v5.642C6781.765,3840.69,6775.331,3843.956,6767.115,3843.956Z" fill="#17598d"/>
      </g>
      <path id="Path_480" data-name="Path 480" d="M6803.656,3838.365a3.994,3.994,0,0,0-2.619-7.273,3.808,3.808,0,0,0-.415.079,48.947,48.947,0,0,0-80.883-8.636,49.5,49.5,0,0,0-5.013,7.249,3.993,3.993,0,0,0-3.392,6.973c.03.025.064.043.1.067a48.869,48.869,0,0,0,41.946,65.769,3.953,3.953,0,0,0,1.2,1.742,4,4,0,0,0,5.639-.508,3.956,3.956,0,0,0,.68-1.216,49.81,49.81,0,0,0,8.146-1.3,48.817,48.817,0,0,0,36.931-51.847A49.346,49.346,0,0,0,6803.656,3838.365Zm-43.954,59.822a4,4,0,0,0-6.4,1.911,46.448,46.448,0,0,1-39.534-62.423c.043,0,.084.012.127.012.12,0,.241-.006.361-.017a3.986,3.986,0,0,0,2.622-6.639,46.99,46.99,0,0,1,4.769-6.9,46.006,46.006,0,0,1,24.487-15.3,46.884,46.884,0,0,1,11.227-1.371,46.5,46.5,0,0,1,41.091,24.926c-.042.046-.092.082-.133.13a3.987,3.987,0,0,0,2.964,6.56,46.767,46.767,0,0,1,2.225,10.614,46.414,46.414,0,0,1-42.049,50.4c-.165.015-.328.019-.493.032A3.98,3.98,0,0,0,6759.7,3898.187Z" fill="#17598d"/>
    </g>
  </g>
  <g id="Component_23_1" data-name="Component 23 – 1" transform="translate(214.749 58.263)">
    <g id="Group_368" data-name="Group 368" transform="translate(-6923.132 -3636.436)">
      <path id="Path_481" data-name="Path 481" d="M7018.4,3669.822a3.994,3.994,0,0,0-2.619-7.273,3.871,3.871,0,0,0-.416.079,48.946,48.946,0,0,0-80.882-8.636,49.426,49.426,0,0,0-5.013,7.249,3.993,3.993,0,0,0-3.392,6.973c.03.025.064.043.1.067a48.869,48.869,0,0,0,41.946,65.769,3.941,3.941,0,0,0,1.2,1.742,4,4,0,0,0,5.639-.508,3.965,3.965,0,0,0,.68-1.216,49.81,49.81,0,0,0,8.146-1.3,48.817,48.817,0,0,0,36.931-51.847A49.343,49.343,0,0,0,7018.4,3669.822Zm-43.954,59.822a4,4,0,0,0-6.4,1.911,46.445,46.445,0,0,1-39.534-62.422c.042,0,.084.011.127.011.12,0,.24-.006.36-.017a3.986,3.986,0,0,0,2.623-6.639,47.057,47.057,0,0,1,4.769-6.9,46,46,0,0,1,24.487-15.3,46.9,46.9,0,0,1,11.227-1.371,46.5,46.5,0,0,1,41.091,24.926c-.043.046-.093.082-.133.13a3.987,3.987,0,0,0,2.964,6.56,46.694,46.694,0,0,1,2.224,10.614,46.411,46.411,0,0,1-42.048,50.4c-.165.015-.329.019-.493.032A3.976,3.976,0,0,0,6974.451,3729.644Z" fill="#17598d"/>
      <g id="Group_367" data-name="Group 367">
        <path id="Path_482" data-name="Path 482" d="M6972.662,3697.45l11.548-6.4h0a1.335,1.335,0,0,0,.686-1.167v-10.426a1.38,1.38,0,0,0-.139-.572,1.3,1.3,0,0,0-.547-.595l-11.549-6.4a1.332,1.332,0,0,0-1.293,0l-11.548,6.4a1.388,1.388,0,0,0-.687,1.167v10.426a1.339,1.339,0,0,0,.687,1.167l11.548,6.4a1.393,1.393,0,0,0,1.293,0Zm9.566-8.355-8.879,4.923v-7.376l8.879-4.923Zm-11.547,4.923-8.88-4.924v-7.375l8.88,4.923Zm-7.462-14.564,8.8-4.878,8.8,4.878-8.8,4.877Z" fill="#17598d"/>
        <path id="Path_483" data-name="Path 483" d="M6939.86,3689.865a5.19,5.19,0,0,0,5-3.864h7.754v7.743a1.331,1.331,0,0,0,.688,1.166l17.376,9.636v7.275a5.2,5.2,0,1,0,2.669,0v-7.275l17.378-9.636a1.334,1.334,0,0,0,.686-1.166V3686h7.754a5.2,5.2,0,1,0,0-2.668h-7.754v-7.742a1.333,1.333,0,0,0-.687-1.167l-17.377-9.635v-7.275a5.2,5.2,0,1,0-2.668,0v7.275l-17.377,9.635a1.33,1.33,0,0,0-.687,1.167v7.742h-7.755a5.189,5.189,0,1,0-5,6.532Zm64.31-7.728a2.533,2.533,0,1,1-1.788.742A2.534,2.534,0,0,1,7004.17,3682.137Zm-29.625,34.685a2.531,2.531,0,1,1-.742-1.788,2.529,2.529,0,0,1,.742,1.788Zm-5.06-64.31a2.534,2.534,0,1,1,.742,1.788,2.529,2.529,0,0,1-.742-1.788Zm-14.2,23.864,16.73-9.276,16.73,9.276v16.582l-16.73,9.276-16.73-9.276Zm-15.425,5.761a2.533,2.533,0,1,1-1.788.742A2.532,2.532,0,0,1,6939.859,3682.137Z" fill="#17598d"/>
      </g>
    </g>
    <g id="Group_370" data-name="Group 370" transform="translate(-6923.132 -3636.436)">
      <path id="Path_484" data-name="Path 484" d="M7018.4,3838.365a3.994,3.994,0,0,0-2.619-7.273,3.871,3.871,0,0,0-.416.079,48.946,48.946,0,0,0-80.882-8.636,49.426,49.426,0,0,0-5.013,7.249,3.993,3.993,0,0,0-3.392,6.973c.03.025.064.043.1.067a48.869,48.869,0,0,0,41.946,65.769,3.941,3.941,0,0,0,1.2,1.742,4,4,0,0,0,5.639-.508,3.977,3.977,0,0,0,.68-1.216,49.81,49.81,0,0,0,8.146-1.3,48.817,48.817,0,0,0,36.931-51.847A49.346,49.346,0,0,0,7018.4,3838.365Zm-43.954,59.822a4,4,0,0,0-6.4,1.911,46.446,46.446,0,0,1-39.534-62.423c.042,0,.084.012.127.012.12,0,.24-.006.36-.017a3.986,3.986,0,0,0,2.623-6.639,46.99,46.99,0,0,1,4.769-6.9,46,46,0,0,1,24.487-15.3,46.884,46.884,0,0,1,11.227-1.371,46.5,46.5,0,0,1,41.091,24.926c-.043.046-.093.082-.133.13a3.987,3.987,0,0,0,2.964,6.56,46.686,46.686,0,0,1,2.224,10.614,46.411,46.411,0,0,1-42.048,50.4c-.165.015-.329.019-.493.032A3.976,3.976,0,0,0,6974.451,3898.187Z" fill="#17598d"/>
      <g id="Group_369" data-name="Group 369">
        <path id="Path_485" data-name="Path 485" d="M6972.662,3865.993l11.548-6.4h0a1.334,1.334,0,0,0,.686-1.167V3848a1.38,1.38,0,0,0-.139-.572,1.3,1.3,0,0,0-.547-.595l-11.549-6.4a1.334,1.334,0,0,0-1.293,0l-11.548,6.4a1.388,1.388,0,0,0-.687,1.167v10.426a1.338,1.338,0,0,0,.687,1.167l11.548,6.4a1.393,1.393,0,0,0,1.293,0Zm9.566-8.355-8.879,4.923v-7.376l8.879-4.923Zm-11.547,4.923-8.88-4.924v-7.375l8.88,4.923ZM6963.219,3848l8.8-4.878,8.8,4.878-8.8,4.877Z" fill="#17598d"/>
        <path id="Path_486" data-name="Path 486" d="M6939.86,3858.408a5.19,5.19,0,0,0,5-3.864h7.754v7.743a1.33,1.33,0,0,0,.688,1.166l17.376,9.636v7.275a5.2,5.2,0,1,0,2.669,0v-7.275l17.378-9.636a1.334,1.334,0,0,0,.686-1.166v-7.743h7.754a5.2,5.2,0,1,0,0-2.668h-7.754v-7.742a1.333,1.333,0,0,0-.687-1.167l-17.377-9.635v-7.275a5.2,5.2,0,1,0-2.668,0v7.275l-17.377,9.635a1.33,1.33,0,0,0-.687,1.167v7.742h-7.755a5.189,5.189,0,1,0-5,6.532Zm64.31-7.728a2.533,2.533,0,1,1-1.788.742A2.534,2.534,0,0,1,7004.17,3850.68Zm-29.625,34.685a2.531,2.531,0,1,1-.742-1.788,2.529,2.529,0,0,1,.742,1.788Zm-5.06-64.31a2.534,2.534,0,1,1,.742,1.788,2.526,2.526,0,0,1-.742-1.788Zm-14.2,23.864,16.73-9.276,16.73,9.276V3861.5l-16.73,9.276-16.73-9.276Zm-15.425,5.761a2.533,2.533,0,1,1-1.788.742A2.528,2.528,0,0,1,6939.859,3850.68Z" fill="#17598d"/>
      </g>
    </g>
  </g>
  <line id="Line_14" data-name="Line 14" x2="119.261" transform="translate(96.511 108.406)" fill="none" stroke="#17598d" stroke-linecap="round" stroke-linejoin="round" stroke-width="3" stroke-dasharray="0.244 5.854 0 0 0 0"/>
  <line id="Line_15" data-name="Line 15" y1="48.1" x2="119.261" transform="translate(311.381 60.306)" fill="none" stroke="#17598d" stroke-linecap="round" stroke-linejoin="round" stroke-width="3" stroke-dasharray="0.244 5.854 0 0 0 0"/>
  <line id="Line_16" data-name="Line 16" x2="129.473" y2="50.199" transform="translate(311.381 109.892)" fill="none" stroke="#17598d" stroke-linecap="round" stroke-linejoin="round" stroke-width="3" stroke-dasharray="0.244 5.854 0 0 0 0"/>
  <line id="Line_17" data-name="Line 17" x1="120.227" y1="48.49" transform="translate(741.563 58.135)" fill="none" stroke="#17598d" stroke-linecap="round" stroke-linejoin="round" stroke-width="3" stroke-dasharray="0.246 5.901 0 0 0 0"/>
  <line id="Line_18" data-name="Line 18" x1="130.522" y2="50.606" transform="translate(731.269 108.123)" fill="none" stroke="#17598d" stroke-linecap="round" stroke-linejoin="round" stroke-width="3" stroke-dasharray="0.246 5.901 0 0 0 0"/>
  <line id="Line_19" data-name="Line 19" x2="116.518" y2="47.011" transform="translate(310.819 276.03)" fill="none" stroke="#17598d" stroke-linecap="round" stroke-linejoin="round" stroke-width="3" stroke-dasharray="0.246 5.901 0 0 0 0"/>
  <line id="Line_20" data-name="Line 20" y1="50.606" x2="130.522" transform="translate(310.819 223.927)" fill="none" stroke="#17598d" stroke-linecap="round" stroke-linejoin="round" stroke-width="3" stroke-dasharray="0.246 5.901 0 0 0 0"/>
  <line id="Line_21" data-name="Line 21" x2="119.261" transform="translate(96.511 276.949)" fill="none" stroke="#17598d" stroke-linecap="round" stroke-linejoin="round" stroke-width="3" stroke-dasharray="0.244 5.854 0 0 0 0"/>
  <line id="Line_22" data-name="Line 22" x2="119.261" transform="translate(527.904 57.167)" fill="none" stroke="#17598d" stroke-linecap="round" stroke-linejoin="round" stroke-width="3" stroke-dasharray="0.244 5.854 0 0 0 0"/>
  <line id="Line_23" data-name="Line 23" x2="120.227" transform="translate(527.431 191.58)" fill="none" stroke="#17598d" stroke-linecap="round" stroke-linejoin="round" stroke-width="3" stroke-dasharray="0.246 5.901 0 0 0 0"/>
  <line id="Line_24" data-name="Line 24" x2="120.227" transform="translate(527.431 328.189)" fill="none" stroke="#17598d" stroke-linecap="round" stroke-linejoin="round" stroke-width="3" stroke-dasharray="0.246 5.901 0 0 0 0"/>
  <line id="Line_25" data-name="Line 25" x2="120.227" transform="translate(740.71 328.189)" fill="none" stroke="#17598d" stroke-linecap="round" stroke-linejoin="round" stroke-width="3" stroke-dasharray="0.246 5.901 0 0 0 0"/>
  <g id="Component_22_1" data-name="Component 22 – 1" transform="translate(429.498 7.023)">
    <g id="Group_372" data-name="Group 372" transform="translate(-7137.881 -3585.196)">
      <g id="Group_371" data-name="Group 371">
        <path id="Path_487" data-name="Path 487" d="M7217.1,3633.728c0,6.117-.01,12.234.011,18.351a1.9,1.9,0,0,1-1.186,1.923c-3.6,1.761-7.168,3.569-10.749,5.36q-5.806,2.9-11.613,5.808c-2.079,1.039-4.152,2.093-6.25,3.094a1.4,1.4,0,0,1-1.071,0c-2.264-1.08-4.505-2.209-6.751-3.328q-5.407-2.692-10.81-5.392-5.208-2.6-10.41-5.221a.905.905,0,0,0-.145-.071c-1.494-.44-1.693-1.53-1.688-2.923q.063-18,.012-35.991a1.961,1.961,0,0,1,1.235-2c3.679-1.8,7.325-3.675,10.988-5.511,3.26-1.634,6.53-3.25,9.792-4.882,2.389-1.195,4.8-2.354,7.145-3.627a2.669,2.669,0,0,1,2.745.215q4.42,2.227,8.85,4.439,4.617,2.319,9.229,4.644,4.4,2.208,8.808,4.405c.306.153.6.33.912.468a1.542,1.542,0,0,1,.947,1.565q0,4.914,0,9.83Zm-2.891-.011q0-8.712,0-17.425c0-.324-.018-.585-.37-.758-1.67-.818-3.328-1.66-4.99-2.494q-5.76-2.889-11.52-5.779-5.161-2.583-10.333-5.148a.55.55,0,0,0-.429.007q-5.878,2.934-11.749,5.888-3.866,1.939-7.736,3.875c-2.339,1.172-4.659,2.382-7.024,3.5a1.086,1.086,0,0,0-.721,1.189c.018,6.173.011,12.345.011,18.517q0,8,0,16.005a.675.675,0,0,0,.4.737q2.949,1.423,5.874,2.9c3.559,1.788,7.108,3.6,10.668,5.384q5.125,2.572,10.269,5.11a.6.6,0,0,0,.465,0q5.9-2.931,11.78-5.884,3.851-1.927,7.7-3.863c2.339-1.175,4.666-2.377,7.027-3.505a1.022,1.022,0,0,0,.7-1.1C7214.2,3645.152,7214.209,3639.434,7214.209,3633.717Z" fill="#17598d"/>
        <path id="Path_488" data-name="Path 488" d="M7173.784,3623.515c0-1.857,0-3.713,0-5.569a1.475,1.475,0,0,1,1.654-1.637q4.122,0,8.245,0a1.489,1.489,0,0,1,1.659,1.64q.007,5.6,0,11.192a1.48,1.48,0,0,1-1.609,1.638q-4.176.012-8.353,0a1.452,1.452,0,0,1-1.595-1.586C7173.779,3627.3,7173.784,3625.407,7173.784,3623.515Zm2.936-4.283v8.628h5.671v-8.628Z" fill="#17598d"/>
        <path id="Path_489" data-name="Path 489" d="M7179.565,3643.842c0,1.857,0,3.713,0,5.57a1.487,1.487,0,0,1-1.61,1.637q-4.178.007-8.354,0a1.483,1.483,0,0,1-1.6-1.586q-.006-5.652,0-11.3a1.47,1.47,0,0,1,1.555-1.579q4.232-.015,8.463,0a1.465,1.465,0,0,1,1.55,1.584C7179.569,3640.056,7179.565,3641.949,7179.565,3643.842Zm-8.645-4.349v8.613h5.708v-8.613Z" fill="#17598d"/>
        <path id="Path_490" data-name="Path 490" d="M7205.568,3643.786q0,2.784,0,5.569a1.512,1.512,0,0,1-1.664,1.694q-4.124.006-8.245,0a1.491,1.491,0,0,1-1.66-1.64q0-5.6,0-11.194a1.475,1.475,0,0,1,1.606-1.636q4.176-.012,8.354,0a1.49,1.49,0,0,1,1.609,1.637C7205.572,3640.073,7205.568,3641.929,7205.568,3643.786Zm-8.646-4.293v8.632h5.709v-8.632Z" fill="#17598d"/>
        <path id="Path_491" data-name="Path 491" d="M7194,3623.511c0-1.856,0-3.713,0-5.569a1.482,1.482,0,0,1,1.611-1.632q4.178-.008,8.354,0a1.485,1.485,0,0,1,1.6,1.589q.007,5.651,0,11.3a1.474,1.474,0,0,1-1.56,1.576q-4.231.015-8.463,0a1.459,1.459,0,0,1-1.544-1.588C7193.992,3627.3,7194,3625.4,7194,3623.511Zm2.922-4.286v8.616h5.716v-8.616Z" fill="#17598d"/>
        <path id="Path_492" data-name="Path 492" d="M7191.087,3630.744h-2.839v-14.4h2.839Z" fill="#17598d"/>
        <path id="Path_493" data-name="Path 493" d="M7182.476,3636.613h2.838v14.4h-2.838Z" fill="#17598d"/>
        <path id="Path_494" data-name="Path 494" d="M7188.264,3636.612h2.839v14.405h-2.839Z" fill="#17598d"/>
        <path id="Path_495" data-name="Path 495" d="M7168.028,3616.339h2.819v14.414h-2.819Z" fill="#17598d"/>
      </g>
      <path id="Path_496" data-name="Path 496" d="M7233.154,3618.582a3.93,3.93,0,0,0,.814-.72,4,4,0,0,0-3.433-6.553,3.826,3.826,0,0,0-.416.079,48.946,48.946,0,0,0-80.882-8.636,49.426,49.426,0,0,0-5.013,7.249,3.993,3.993,0,0,0-3.392,6.973c.03.025.064.043.095.067a48.869,48.869,0,0,0,41.946,65.769,3.941,3.941,0,0,0,1.2,1.742,4,4,0,0,0,5.639-.508,3.964,3.964,0,0,0,.68-1.216,49.783,49.783,0,0,0,8.146-1.3,48.817,48.817,0,0,0,36.931-51.847A49.344,49.344,0,0,0,7233.154,3618.582ZM7189.2,3678.4a4.015,4.015,0,0,0-5.641.509,3.966,3.966,0,0,0-.756,1.4,46.445,46.445,0,0,1-39.534-62.422c.042,0,.084.011.126.011.12,0,.241-.006.361-.016a3.987,3.987,0,0,0,2.623-6.64,47.057,47.057,0,0,1,4.769-6.9,46,46,0,0,1,24.487-15.3,46.945,46.945,0,0,1,11.226-1.371,46.5,46.5,0,0,1,41.092,24.926c-.043.046-.093.082-.133.13a3.987,3.987,0,0,0,2.964,6.56,46.694,46.694,0,0,1,2.224,10.614,46.411,46.411,0,0,1-42.048,50.4c-.165.015-.329.019-.493.032A3.976,3.976,0,0,0,7189.2,3678.4Z" fill="#17598d"/>
    </g>
    <g id="Group_374" data-name="Group 374" transform="translate(-7137.881 -3585.196)">
      <g id="Group_373" data-name="Group 373">
        <path id="Path_497" data-name="Path 497" d="M7217.1,3769.239c0,6.117-.01,12.234.011,18.351a1.9,1.9,0,0,1-1.186,1.923c-3.6,1.761-7.168,3.569-10.749,5.36q-5.806,2.9-11.613,5.808c-2.079,1.04-4.152,2.093-6.25,3.094a1.407,1.407,0,0,1-1.071,0c-2.264-1.081-4.505-2.21-6.751-3.328q-5.407-2.693-10.81-5.392-5.208-2.606-10.41-5.221a.911.911,0,0,0-.145-.072c-1.494-.44-1.693-1.529-1.688-2.922q.063-18,.012-35.992a1.961,1.961,0,0,1,1.235-2c3.679-1.8,7.325-3.675,10.988-5.511,3.26-1.634,6.53-3.25,9.792-4.882,2.389-1.195,4.8-2.353,7.145-3.627a2.672,2.672,0,0,1,2.745.215q4.42,2.227,8.85,4.439,4.617,2.319,9.229,4.644,4.4,2.208,8.808,4.406c.306.153.6.329.912.468a1.541,1.541,0,0,1,.947,1.564q0,4.915,0,9.831Zm-2.891-.01q0-8.714,0-17.425c0-.325-.018-.586-.37-.758-1.67-.819-3.328-1.661-4.99-2.494q-5.76-2.891-11.52-5.779-5.161-2.583-10.333-5.148a.55.55,0,0,0-.429.006q-5.878,2.935-11.749,5.888-3.866,1.939-7.736,3.875c-2.339,1.173-4.659,2.383-7.024,3.5a1.085,1.085,0,0,0-.721,1.189c.018,6.172.011,12.344.011,18.517q0,8,0,16a.677.677,0,0,0,.4.737q2.949,1.422,5.874,2.9c3.559,1.789,7.108,3.6,10.668,5.385q5.125,2.572,10.269,5.11a.6.6,0,0,0,.465,0q5.9-2.931,11.78-5.883,3.851-1.929,7.7-3.863c2.339-1.175,4.666-2.378,7.027-3.505a1.024,1.024,0,0,0,.7-1.1C7214.2,3780.663,7214.209,3774.946,7214.209,3769.229Z" fill="#17598d"/>
        <path id="Path_498" data-name="Path 498" d="M7173.784,3759.026c0-1.856,0-3.713,0-5.569a1.475,1.475,0,0,1,1.654-1.637q4.122,0,8.245,0a1.489,1.489,0,0,1,1.659,1.64q.007,5.6,0,11.193a1.48,1.48,0,0,1-1.609,1.638q-4.176.012-8.353,0a1.452,1.452,0,0,1-1.595-1.587C7173.779,3762.812,7173.784,3760.919,7173.784,3759.026Zm2.936-4.283v8.629h5.671v-8.629Z" fill="#17598d"/>
        <path id="Path_499" data-name="Path 499" d="M7179.565,3779.354c0,1.856,0,3.713,0,5.569a1.486,1.486,0,0,1-1.61,1.637q-4.178.007-8.354,0a1.485,1.485,0,0,1-1.6-1.587q-.006-5.65,0-11.3a1.471,1.471,0,0,1,1.555-1.579q4.232-.015,8.463,0a1.466,1.466,0,0,1,1.55,1.584C7179.569,3775.568,7179.565,3777.461,7179.565,3779.354Zm-8.645-4.35v8.613h5.708V3775Z" fill="#17598d"/>
        <path id="Path_500" data-name="Path 500" d="M7205.568,3779.3q0,2.784,0,5.569a1.513,1.513,0,0,1-1.664,1.7q-4.124,0-8.245,0a1.493,1.493,0,0,1-1.66-1.641q0-5.6,0-11.193a1.476,1.476,0,0,1,1.606-1.637q4.176-.011,8.354,0a1.491,1.491,0,0,1,1.609,1.638C7205.572,3775.584,7205.568,3777.44,7205.568,3779.3Zm-8.646-4.293v8.633h5.709V3775Z" fill="#17598d"/>
        <path id="Path_501" data-name="Path 501" d="M7194,3759.023c0-1.857,0-3.713,0-5.57a1.483,1.483,0,0,1,1.611-1.632q4.178-.008,8.354,0a1.485,1.485,0,0,1,1.6,1.589q.007,5.652,0,11.3a1.475,1.475,0,0,1-1.56,1.577q-4.231.015-8.463,0A1.458,1.458,0,0,1,7194,3764.7C7193.992,3762.808,7194,3760.915,7194,3759.023Zm2.922-4.286v8.615h5.716v-8.615Z" fill="#17598d"/>
        <path id="Path_502" data-name="Path 502" d="M7191.087,3766.255h-2.839v-14.4h2.839Z" fill="#17598d"/>
        <path id="Path_503" data-name="Path 503" d="M7182.476,3772.125h2.838v14.4h-2.838Z" fill="#17598d"/>
        <path id="Path_504" data-name="Path 504" d="M7188.264,3772.123h2.839v14.405h-2.839Z" fill="#17598d"/>
        <path id="Path_505" data-name="Path 505" d="M7168.028,3751.85h2.819v14.415h-2.819Z" fill="#17598d"/>
      </g>
      <path id="Path_506" data-name="Path 506" d="M7233.154,3754.094a3.995,3.995,0,0,0-2.619-7.274,4.076,4.076,0,0,0-.416.079,48.947,48.947,0,0,0-80.882-8.635,49.365,49.365,0,0,0-5.013,7.248,3.993,3.993,0,0,0-3.392,6.973c.03.025.064.043.095.068a48.869,48.869,0,0,0,41.946,65.769,3.947,3.947,0,0,0,1.2,1.742,3.969,3.969,0,0,0,6.319-1.724,49.708,49.708,0,0,0,8.146-1.3,48.817,48.817,0,0,0,36.931-51.846A49.343,49.343,0,0,0,7233.154,3754.094Zm-43.954,59.821a4.015,4.015,0,0,0-5.641.509,3.966,3.966,0,0,0-.756,1.4,46.445,46.445,0,0,1-39.534-62.422c.042,0,.084.012.126.012.12,0,.241-.006.361-.017a3.986,3.986,0,0,0,2.623-6.639,46.938,46.938,0,0,1,4.769-6.9,46.006,46.006,0,0,1,24.487-15.3,46.943,46.943,0,0,1,11.226-1.37,46.5,46.5,0,0,1,41.092,24.925c-.043.046-.093.083-.133.131a3.985,3.985,0,0,0,2.964,6.559,46.705,46.705,0,0,1,2.224,10.614,46.41,46.41,0,0,1-42.048,50.4c-.165.015-.329.02-.493.033A3.983,3.983,0,0,0,7189.2,3813.915Z" fill="#17598d"/>
    </g>
    <g id="Group_376" data-name="Group 376" transform="translate(-7137.881 -3585.196)">
      <g id="Group_375" data-name="Group 375">
        <path id="Path_507" data-name="Path 507" d="M7217.1,3904.751c0,6.117-.01,12.234.011,18.351a1.9,1.9,0,0,1-1.186,1.923c-3.6,1.761-7.168,3.569-10.749,5.36q-5.806,2.9-11.613,5.808c-2.079,1.039-4.152,2.093-6.25,3.094a1.4,1.4,0,0,1-1.071-.005c-2.264-1.08-4.505-2.209-6.751-3.328q-5.407-2.693-10.81-5.392-5.208-2.6-10.41-5.221a.911.911,0,0,0-.145-.072c-1.494-.439-1.693-1.529-1.688-2.922q.063-18,.012-35.991a1.961,1.961,0,0,1,1.235-2c3.679-1.8,7.325-3.675,10.988-5.511,3.26-1.634,6.53-3.25,9.792-4.882,2.389-1.2,4.8-2.354,7.145-3.627a2.669,2.669,0,0,1,2.745.215q4.42,2.228,8.85,4.439,4.617,2.319,9.229,4.643,4.4,2.209,8.808,4.406c.306.153.6.33.912.468a1.542,1.542,0,0,1,.947,1.564q0,4.916,0,9.831Zm-2.891-.011q0-8.712,0-17.425c0-.324-.018-.585-.37-.758-1.67-.819-3.328-1.66-4.99-2.494q-5.76-2.889-11.52-5.779-5.161-2.583-10.333-5.148a.552.552,0,0,0-.429.007q-5.878,2.934-11.749,5.888-3.866,1.939-7.736,3.875c-2.339,1.172-4.659,2.382-7.024,3.5a1.086,1.086,0,0,0-.721,1.189c.018,6.172.011,12.345.011,18.517q0,8,0,16a.675.675,0,0,0,.4.737q2.949,1.423,5.874,2.9c3.559,1.788,7.108,3.6,10.668,5.384q5.125,2.573,10.269,5.11a.6.6,0,0,0,.465,0q5.9-2.931,11.78-5.884,3.851-1.928,7.7-3.863c2.339-1.175,4.666-2.377,7.027-3.505a1.022,1.022,0,0,0,.7-1.1C7214.2,3916.175,7214.209,3910.457,7214.209,3904.74Z" fill="#17598d"/>
        <path id="Path_508" data-name="Path 508" d="M7173.784,3894.538c0-1.857,0-3.713,0-5.569a1.475,1.475,0,0,1,1.654-1.637q4.122,0,8.245,0a1.488,1.488,0,0,1,1.659,1.64q.007,5.6,0,11.192a1.48,1.48,0,0,1-1.609,1.638q-4.176.012-8.353,0a1.452,1.452,0,0,1-1.595-1.586C7173.779,3898.323,7173.784,3896.43,7173.784,3894.538Zm2.936-4.283v8.628h5.671v-8.628Z" fill="#17598d"/>
        <path id="Path_509" data-name="Path 509" d="M7179.565,3914.865c0,1.857,0,3.713,0,5.57a1.486,1.486,0,0,1-1.61,1.636q-4.178.009-8.354,0a1.484,1.484,0,0,1-1.6-1.586q-.006-5.652,0-11.3a1.47,1.47,0,0,1,1.555-1.579q4.232-.015,8.463,0a1.465,1.465,0,0,1,1.55,1.583C7179.569,3911.079,7179.565,3912.972,7179.565,3914.865Zm-8.645-4.349v8.613h5.708v-8.613Z" fill="#17598d"/>
        <path id="Path_510" data-name="Path 510" d="M7205.568,3914.808q0,2.785,0,5.57a1.512,1.512,0,0,1-1.664,1.694q-4.124.006-8.245,0a1.491,1.491,0,0,1-1.66-1.64q0-5.6,0-11.194a1.476,1.476,0,0,1,1.606-1.637q4.176-.011,8.354,0a1.491,1.491,0,0,1,1.609,1.638C7205.572,3911.095,7205.568,3912.952,7205.568,3914.808Zm-8.646-4.292v8.632h5.709v-8.632Z" fill="#17598d"/>
        <path id="Path_511" data-name="Path 511" d="M7194,3894.534c0-1.857,0-3.713,0-5.569a1.483,1.483,0,0,1,1.611-1.633q4.178-.006,8.354,0a1.485,1.485,0,0,1,1.6,1.589q.007,5.65,0,11.3a1.474,1.474,0,0,1-1.56,1.576q-4.231.015-8.463,0a1.459,1.459,0,0,1-1.544-1.588C7193.992,3898.32,7194,3896.427,7194,3894.534Zm2.922-4.286v8.616h5.716v-8.616Z" fill="#17598d"/>
        <path id="Path_512" data-name="Path 512" d="M7191.087,3901.767h-2.839v-14.4h2.839Z" fill="#17598d"/>
        <path id="Path_513" data-name="Path 513" d="M7182.476,3907.636h2.838v14.4h-2.838Z" fill="#17598d"/>
        <path id="Path_514" data-name="Path 514" d="M7188.264,3907.635h2.839v14.405h-2.839Z" fill="#17598d"/>
        <path id="Path_515" data-name="Path 515" d="M7168.028,3887.362h2.819v14.414h-2.819Z" fill="#17598d"/>
      </g>
      <path id="Path_516" data-name="Path 516" d="M7233.154,3889.6a3.984,3.984,0,0,0,.305-6.359,3.947,3.947,0,0,0-2.924-.914,4.074,4.074,0,0,0-.416.078,48.947,48.947,0,0,0-80.882-8.635,49.469,49.469,0,0,0-5.013,7.248,4.023,4.023,0,0,0-1.187-.088,4,4,0,0,0-2.205,7.062c.03.025.064.043.095.067a48.869,48.869,0,0,0,41.946,65.769,3.941,3.941,0,0,0,1.2,1.742,4,4,0,0,0,5.639-.508,3.977,3.977,0,0,0,.68-1.216,49.81,49.81,0,0,0,8.146-1.3,48.817,48.817,0,0,0,36.931-51.847A49.346,49.346,0,0,0,7233.154,3889.6Zm-43.954,59.822a4,4,0,0,0-6.4,1.91,46.445,46.445,0,0,1-39.534-62.422c.042,0,.084.012.126.012.12,0,.241-.006.361-.017a3.986,3.986,0,0,0,2.623-6.639,46.99,46.99,0,0,1,4.769-6.9,46,46,0,0,1,24.487-15.3,46.883,46.883,0,0,1,11.226-1.371,46.5,46.5,0,0,1,41.092,24.926c-.043.046-.093.082-.133.13a3.987,3.987,0,0,0,2.964,6.56,46.686,46.686,0,0,1,2.224,10.614,46.411,46.411,0,0,1-42.048,50.4c-.165.015-.329.019-.493.032A3.976,3.976,0,0,0,7189.2,3949.427Z" fill="#17598d"/>
    </g>
  </g>
  <g id="Group_380" data-name="Group 380" transform="translate(-6708.383 -3578.173)">
    <path id="Path_524" data-name="Path 524" d="M7447.9,3754.094a3.994,3.994,0,0,0-2.619-7.274,4.108,4.108,0,0,0-.415.079,48.947,48.947,0,0,0-80.882-8.635,49.365,49.365,0,0,0-5.013,7.248,3.993,3.993,0,0,0-3.392,6.973c.03.025.064.043.094.068a48.869,48.869,0,0,0,41.946,65.769,3.963,3.963,0,0,0,1.2,1.742,4,4,0,0,0,5.64-.509,3.972,3.972,0,0,0,.68-1.215,49.708,49.708,0,0,0,8.146-1.3,48.817,48.817,0,0,0,36.931-51.846A49.344,49.344,0,0,0,7447.9,3754.094Zm-43.953,59.821a4,4,0,0,0-6.4,1.911,46.445,46.445,0,0,1-39.534-62.422c.042,0,.084.012.126.012.12,0,.241-.006.361-.017a3.987,3.987,0,0,0,2.623-6.639,46.863,46.863,0,0,1,4.769-6.9,46.006,46.006,0,0,1,24.487-15.3,46.934,46.934,0,0,1,11.226-1.37,46.5,46.5,0,0,1,41.091,24.925c-.042.046-.092.083-.132.131a3.985,3.985,0,0,0,2.964,6.559,46.784,46.784,0,0,1,2.224,10.614,46.409,46.409,0,0,1-42.049,50.4c-.164.015-.328.02-.492.033A3.983,3.983,0,0,0,7403.949,3813.915Z" fill="#17598d"/>
    <g id="Group_379" data-name="Group 379">
      <path id="Path_525" data-name="Path 525" d="M7388.535,3800.179h29.738a3.8,3.8,0,0,0,3.8-3.8V3741.4a3.8,3.8,0,0,0-3.789-3.788h-29.752a3.795,3.795,0,0,0-3.789,3.788v20.76a15.985,15.985,0,0,0,0,31.255v2.966a3.795,3.795,0,0,0,3.789,3.795Zm29.738-61.218a2.428,2.428,0,0,1,2.442,2.441v54.981a2.436,2.436,0,0,1-2.428,2.435h-29.752a2.434,2.434,0,0,1-2.428-2.435v-2.721a15.9,15.9,0,0,0,14.752-6.244h15.38a1.919,1.919,0,0,0,1.918-1.918v-42.581a1.919,1.919,0,0,0-1.918-1.918h-25.671a1.919,1.919,0,0,0-1.918,1.918v18.889h-.551a16.239,16.239,0,0,0-1.993.123V3741.4a2.427,2.427,0,0,1,2.428-2.428Zm-24.086,19.215h3.231v6.625a16.214,16.214,0,0,0-3.231-1.795Zm3.912-1.36h-1.633v-2.959a.68.68,0,1,0-1.36,0v2.959h-1.6a.679.679,0,0,0-.68.68v4.993a15.773,15.773,0,0,0-2.8-.592v-18.978a.557.557,0,0,1,.557-.558h25.657a.558.558,0,0,1,.558.558v42.567a.558.558,0,0,1-.558.558h-14.454a15.96,15.96,0,0,0-3.02-20.155V3757.5a.68.68,0,0,0-.68-.68Zm-10,6.353a14.637,14.637,0,1,1-10.337,4.287,14.624,14.624,0,0,1,10.337-4.287Z" fill="#17598d" stroke="#17598d" stroke-width="0.488"/>
      <path id="Path_526" data-name="Path 526" d="M7401.112,3761.98h1.612v2.952a.68.68,0,1,0,1.36,0v-2.952h1.619a.681.681,0,0,0,.68-.681v-9.182a.679.679,0,0,0-.68-.68h-1.619v-2.952a.68.68,0,1,0-1.36,0v2.952h-1.612a.679.679,0,0,0-.68.68v9.182a.681.681,0,0,0,.68.681Zm.68-9.183h3.231v7.822h-3.231Z" fill="#17598d" stroke="#17598d" stroke-width="0.488"/>
      <path id="Path_527" data-name="Path 527" d="M7408.723,3772.183h1.619v2.952a.681.681,0,0,0,1.361,0v-2.952h1.612a.682.682,0,0,0,.68-.681v-9.182a.68.68,0,0,0-.68-.68H7411.7v-2.952a.681.681,0,1,0-1.361,0v2.952h-1.619a.68.68,0,0,0-.68.68v9.182a.682.682,0,0,0,.68.681Zm.68-9.183h3.231v7.822H7409.4Z" fill="#17598d" stroke="#17598d" stroke-width="0.488"/>
      <path id="Path_528" data-name="Path 528" d="M7403.4,3788.848a4.08,4.08,0,1,0,2.886,1.2A4.085,4.085,0,0,0,7403.4,3788.848Zm-2.721,4.081a1.387,1.387,0,1,0,.007-.014Z" fill="#17598d" stroke="#17598d" stroke-width="0.488"/>
      <path id="Path_529" data-name="Path 529" d="M7377.9,3772.407a.681.681,0,1,0,0,1.361h17.528l-4.231,2.115a.681.681,0,0,0,.307,1.286.7.7,0,0,0,.306-.068l6.8-3.4a.8.8,0,0,0,.163-.123.788.788,0,0,0,.1-.156.22.22,0,0,0,0-.062.606.606,0,0,0,0-.469.211.211,0,0,0,0-.061.8.8,0,0,0-.1-.157v-.034a.768.768,0,0,0-.163-.122l-6.8-3.4a.681.681,0,0,0-.613,1.217l4.231,2.109Z" fill="#17598d" stroke="#17598d" stroke-width="0.488"/>
      <path id="Path_530" data-name="Path 530" d="M7398.3,3783.175a.681.681,0,0,0,0-1.361h-17.522L7385,3779.7a.682.682,0,0,0-.613-1.218l-6.8,3.4a.752.752,0,0,0-.163.123.622.622,0,0,0-.109.156v.061a.608.608,0,0,0,0,.47v.061a.631.631,0,0,0,.109.156.068.068,0,0,0,0,.034.752.752,0,0,0,.163.123l6.8,3.4a.726.726,0,0,0,.307.075.681.681,0,0,0,.306-1.293l-4.224-2.108Z" fill="#17598d" stroke="#17598d" stroke-width="0.488"/>
    </g>
  </g>
  <g id="Group_382" data-name="Group 382" transform="translate(-6708.383 -3578.173)">
    <path id="Path_531" data-name="Path 531" d="M7447.9,3889.6a3.983,3.983,0,0,0,.306-6.359,3.948,3.948,0,0,0-2.925-.914,4.106,4.106,0,0,0-.415.078,48.947,48.947,0,0,0-80.882-8.635,49.469,49.469,0,0,0-5.013,7.248,4.023,4.023,0,0,0-1.187-.088,4,4,0,0,0-2.205,7.062c.03.025.064.043.094.067a48.869,48.869,0,0,0,41.946,65.769,3.957,3.957,0,0,0,1.2,1.742,4.008,4.008,0,0,0,2.569.931,3.941,3.941,0,0,0,3.751-2.655,49.81,49.81,0,0,0,8.146-1.3,48.817,48.817,0,0,0,36.931-51.847A49.347,49.347,0,0,0,7447.9,3889.6Zm-43.953,59.822a4,4,0,0,0-6.4,1.91,46.445,46.445,0,0,1-39.534-62.422c.042,0,.084.012.126.012.12,0,.241-.006.361-.017a3.987,3.987,0,0,0,2.623-6.639,46.915,46.915,0,0,1,4.769-6.9,46,46,0,0,1,24.487-15.3,46.874,46.874,0,0,1,11.226-1.371,46.5,46.5,0,0,1,41.091,24.926c-.042.046-.092.082-.132.13a3.987,3.987,0,0,0,2.964,6.56,46.765,46.765,0,0,1,2.224,10.614,46.411,46.411,0,0,1-42.049,50.4c-.164.015-.328.019-.492.032A3.976,3.976,0,0,0,7403.949,3949.427Z" fill="#17598d"/>
    <g id="Group_381" data-name="Group 381">
      <path id="Path_532" data-name="Path 532" d="M7388.535,3935.69h29.738a3.8,3.8,0,0,0,3.8-3.8v-54.98a3.8,3.8,0,0,0-3.789-3.789h-29.752a3.8,3.8,0,0,0-3.789,3.789v20.76a15.985,15.985,0,0,0,0,31.255v2.965a3.795,3.795,0,0,0,3.789,3.8Zm29.738-61.218a2.428,2.428,0,0,1,2.442,2.442v54.98a2.436,2.436,0,0,1-2.428,2.436h-29.752a2.434,2.434,0,0,1-2.428-2.436v-2.72a15.9,15.9,0,0,0,14.752-6.245h15.38a1.919,1.919,0,0,0,1.918-1.918v-42.58a1.919,1.919,0,0,0-1.918-1.919h-25.671a1.919,1.919,0,0,0-1.918,1.919v18.889h-.551a16.048,16.048,0,0,0-1.993.122v-20.528a2.429,2.429,0,0,1,2.428-2.429Zm-24.086,19.216h3.231v6.625a16.218,16.218,0,0,0-3.231-1.8Zm3.912-1.361h-1.633v-2.959a.68.68,0,1,0-1.36,0v2.959h-1.6a.68.68,0,0,0-.68.68V3898a15.947,15.947,0,0,0-2.8-.592v-18.977a.557.557,0,0,1,.557-.558h25.657a.556.556,0,0,1,.558.558V3921a.558.558,0,0,1-.558.558h-14.454a15.958,15.958,0,0,0-3.02-20.154v-8.394a.68.68,0,0,0-.68-.68Zm-10,6.353a14.639,14.639,0,1,1-10.337,4.288,14.62,14.62,0,0,1,10.337-4.288Z" fill="#17598d" stroke="#17598d" stroke-width="0.488"/>
      <path id="Path_533" data-name="Path 533" d="M7401.112,3897.491h1.612v2.952a.68.68,0,1,0,1.36,0v-2.952h1.619a.679.679,0,0,0,.68-.68v-9.183a.679.679,0,0,0-.68-.68h-1.619V3884a.68.68,0,1,0-1.36,0v2.952h-1.612a.679.679,0,0,0-.68.68v9.183a.679.679,0,0,0,.68.68Zm.68-9.183h3.231v7.823h-3.231Z" fill="#17598d" stroke="#17598d" stroke-width="0.488"/>
      <path id="Path_534" data-name="Path 534" d="M7408.723,3907.694h1.619v2.952a.681.681,0,0,0,1.361,0v-2.952h1.612a.68.68,0,0,0,.68-.68v-9.183a.68.68,0,0,0-.68-.68H7411.7V3894.2a.681.681,0,0,0-1.361,0v2.952h-1.619a.68.68,0,0,0-.68.68v9.183a.68.68,0,0,0,.68.68Zm.68-9.183h3.231v7.823H7409.4Z" fill="#17598d" stroke="#17598d" stroke-width="0.488"/>
      <path id="Path_535" data-name="Path 535" d="M7403.4,3924.359a4.08,4.08,0,1,0,2.886,1.2A4.085,4.085,0,0,0,7403.4,3924.359Zm-2.721,4.081a1.353,1.353,0,1,0,.007-.013Z" fill="#17598d" stroke="#17598d" stroke-width="0.488"/>
      <path id="Path_536" data-name="Path 536" d="M7377.9,3907.919a.68.68,0,1,0,0,1.36h17.528l-4.231,2.115a.681.681,0,0,0,.307,1.286.7.7,0,0,0,.306-.068l6.8-3.4a.768.768,0,0,0,.163-.122.8.8,0,0,0,.1-.157.211.211,0,0,0,0-.061.609.609,0,0,0,0-.47.211.211,0,0,0,0-.061.788.788,0,0,0-.1-.156v-.034a.772.772,0,0,0-.163-.123l-6.8-3.4a.682.682,0,0,0-.613,1.218l4.231,2.108Z" fill="#17598d" stroke="#17598d" stroke-width="0.488"/>
      <path id="Path_537" data-name="Path 537" d="M7398.3,3918.686a.68.68,0,0,0,0-1.36h-17.522l4.224-2.116a.681.681,0,1,0-.613-1.217l-6.8,3.4a.773.773,0,0,0-.163.122.631.631,0,0,0-.109.156v.062a.606.606,0,0,0,0,.469v.061a.618.618,0,0,0,.109.157.068.068,0,0,0,0,.034.78.78,0,0,0,.163.122l6.8,3.4a.726.726,0,0,0,.307.075.68.68,0,0,0,.306-1.292l-4.224-2.109Z" fill="#17598d" stroke="#17598d" stroke-width="0.488"/>
    </g>
  </g>
  <g id="Group_386" data-name="Group 386" transform="translate(-6704.28 -3578.173)">
    <path id="Path_545" data-name="Path 545" d="M7662.651,3889.6a3.985,3.985,0,0,0,.306-6.359,3.948,3.948,0,0,0-2.925-.914,4.106,4.106,0,0,0-.415.078,48.948,48.948,0,0,0-80.883-8.635,49.621,49.621,0,0,0-5.013,7.248,4.017,4.017,0,0,0-1.186-.088,4,4,0,0,0-2.206,7.062c.03.025.065.043.095.067a48.869,48.869,0,0,0,41.946,65.769,3.957,3.957,0,0,0,1.2,1.742,4,4,0,0,0,5.64-.508,3.977,3.977,0,0,0,.68-1.216,49.768,49.768,0,0,0,8.145-1.3,48.816,48.816,0,0,0,36.932-51.847A49.347,49.347,0,0,0,7662.651,3889.6Zm-43.954,59.822a4,4,0,0,0-6.4,1.91,46.447,46.447,0,0,1-39.535-62.422c.043,0,.085.012.127.012.12,0,.241-.006.361-.017a3.987,3.987,0,0,0,2.623-6.639,46.84,46.84,0,0,1,4.769-6.9,46,46,0,0,1,24.487-15.3,46.874,46.874,0,0,1,11.226-1.371,46.5,46.5,0,0,1,41.091,24.926c-.042.046-.092.082-.132.13a3.986,3.986,0,0,0,2.964,6.56,46.765,46.765,0,0,1,2.224,10.614,46.413,46.413,0,0,1-42.049,50.4c-.164.015-.328.019-.492.032A3.975,3.975,0,0,0,7618.7,3949.427Z" fill="#17598d"/>
    <g id="Group_385" data-name="Group 385">
      <path id="Path_546" data-name="Path 546" d="M7635.15,3889.136l-1.6-1.868a1.323,1.323,0,0,0-1-.46,1.377,1.377,0,0,0-.24.022,1.318,1.318,0,0,0-.758,2.152l2.6,3.028a1.314,1.314,0,0,0,2,0l6.173-7.126a1.316,1.316,0,1,0-1.99-1.724Z" fill="#17598d"/>
      <path id="Path_547" data-name="Path 547" d="M7644.067,3894.954a10.456,10.456,0,0,0,1.735-5.559,1.311,1.311,0,0,0-.371-.936,1.33,1.33,0,0,0-.923-.4,1.328,1.328,0,0,0-1.34,1.3,7.811,7.811,0,0,1-7.807,7.677h-.09a7.809,7.809,0,0,1,.089-15.618,1.318,1.318,0,0,0,0-2.635h0a10.355,10.355,0,0,0-5.79,1.763l-.41.275-.143-.472a3.894,3.894,0,0,0-3.712-2.762h-22.389a1.289,1.289,0,0,0-.579.142,1.511,1.511,0,0,0-.359.25l-12.425,12.427a1.284,1.284,0,0,0-.369.89l-.006.476-.011,0v29.684a3.906,3.906,0,0,0,3.9,3.9h6.312v4.577a3.906,3.906,0,0,0,3.9,3.9h32.239a3.9,3.9,0,0,0,3.9-3.9v-31.1l.215-.1A10.472,10.472,0,0,0,7644.067,3894.954Zm-42.472-12.875v6.694a1.245,1.245,0,0,1-1.242,1.243h-6.7Zm-1.833,16.8a1.312,1.312,0,0,0-.374.957l.019.612-.032-.016v22.285h-6.312a1.267,1.267,0,0,1-1.269-1.265v-28.8h8.557a3.882,3.882,0,0,0,3.877-3.877v-8.556H7625.3a1.27,1.27,0,0,1,1.267,1.265v2.131l-.056.089a10.406,10.406,0,0,0-1.012,2.113l-.086.246h-11.87v0l-.432.013h-.013a1.3,1.3,0,0,0-.911.371Zm12.045-8.321v6.7a1.242,1.242,0,0,1-1.242,1.241h-6.694Zm24.975,39.371a1.267,1.267,0,0,1-1.266,1.267h-32.241a1.269,1.269,0,0,1-1.267-1.267v-28.8h8.557a3.9,3.9,0,0,0,2.738-1.137,3.859,3.859,0,0,0,1.138-2.74V3888.7h10.491l-.012.469a10.451,10.451,0,0,0,10.441,10.5c.343,0,.683-.018,1.019-.051l.4-.04Z" fill="#17598d"/>
      <path id="Path_548" data-name="Path 548" d="M7631.284,3905.693a1.32,1.32,0,0,0-1.139-.658h-21.957a1.317,1.317,0,1,0,0,2.633h21.957a1.316,1.316,0,0,0,1.139-1.975Z" fill="#17598d"/>
      <path id="Path_549" data-name="Path 549" d="M7607.048,3912.965a1.321,1.321,0,0,0,1.14.658H7623a1.317,1.317,0,1,0,0-2.633h-14.81a1.316,1.316,0,0,0-1.14,1.975Z" fill="#17598d"/>
      <path id="Path_550" data-name="Path 550" d="M7624.139,3922.921a1.32,1.32,0,0,0-1.14-.658h-3.785a1.531,1.531,0,0,1-1.531-1.531v-.25a2.243,2.243,0,0,0-1.957-2.225,2.09,2.09,0,0,0-.287-.019,2.239,2.239,0,0,0-1.253.383l-5.748,3.867a1.317,1.317,0,0,0,1.471,2.185l5.135-3.454.126.508a4.173,4.173,0,0,0,4.045,3.17H7623a1.317,1.317,0,0,0,1.14-1.975Z" fill="#17598d"/>
      <path id="Path_551" data-name="Path 551" d="M7631.284,3922.92a1.321,1.321,0,0,0-1.139-.658h-1.95a1.317,1.317,0,0,0,0,2.633h1.95a1.317,1.317,0,0,0,1.139-1.975Z" fill="#17598d"/>
    </g>
  </g>
</svg>
