<svg id="Component_45_1" data-name="Component 45 – 1" xmlns="http://www.w3.org/2000/svg" width="130.445" height="133.777" viewBox="0 0 130.445 133.777">
  <path id="Path_1073" data-name="Path 1073" d="M1868.369,1373.406l.887-1.734-2.528-1.293-.957,1.872a4.917,4.917,0,0,0-3.615.744L1842.2,1356.32a6.25,6.25,0,0,0,.831-2.958l16.648-3.335-.557-2.784-16.655,3.337a6.308,6.308,0,0,0-1.173-1.733l9.3-14.138a5.291,5.291,0,0,0,1.647.285,5.381,5.381,0,0,0,5.374-5.376,5.311,5.311,0,0,0-.592-2.4l18.632-16.821a5.725,5.725,0,0,0,2.239.88l.7,7.546,2.826-.26-.693-7.528a5.762,5.762,0,0,0,2.949-2.334l16.607,5.39a5.1,5.1,0,0,0-.083.816,5.2,5.2,0,0,0,3.9,5.017l1.63,17.143a6.311,6.311,0,0,0-4.589,4.682h-3.5v2.838h3.5a6.3,6.3,0,1,0,7.435-7.581l-1.631-17.153a5.188,5.188,0,1,0-5.442-8.351l-16.937-5.5c.009-.129.02-.258.02-.39a5.741,5.741,0,0,0-11.437-.722l-32.356,4.013a5.372,5.372,0,1,0-4.964,7.419,5.3,5.3,0,0,0,2.343-.56l9.593,10.9a5.3,5.3,0,0,0,.465,6.483l-9.294,14.136a6.24,6.24,0,0,0-2.181-.4,6.3,6.3,0,1,0,3.526,11.517l19.967,16.68a5.307,5.307,0,0,0-.624,2.459,5.375,5.375,0,1,0,8.76-4.139Zm42.348-30.239a3.46,3.46,0,1,1-3.46-3.462A3.466,3.466,0,0,1,1910.717,1343.167Zm-5.324-30.628a2.367,2.367,0,1,1-2.367,2.367A2.37,2.37,0,0,1,1905.393,1312.539Zm-53.159,19.617a2.538,2.538,0,1,1,2.536-2.538A2.541,2.541,0,0,1,1852.234,1332.156Zm-11.126-20.432,32.376-4.016a5.952,5.952,0,0,0,.263.579l-18.623,16.813a5.243,5.243,0,0,0-5.234-.3l-9.593-10.9A5.342,5.342,0,0,0,1841.108,1311.724Zm37.719-9.016a2.907,2.907,0,1,1-2.905,2.906A2.909,2.909,0,0,1,1878.827,1302.708Zm-45.55,8.241a2.536,2.536,0,1,1,2.537,2.538A2.541,2.541,0,0,1,1833.277,1310.949Zm3.463,45.7a3.462,3.462,0,1,1,3.459-3.461A3.467,3.467,0,0,1,1836.74,1356.651Zm28.242,23.434a2.538,2.538,0,1,1,2.539-2.54A2.541,2.541,0,0,1,1864.982,1380.085Z" transform="translate(-1806.778 -1274.507)" fill="#17598d"/>
  <path id="Path_1074" data-name="Path 1074" d="M1883.931,1372.11a21.9,21.9,0,0,0,5.879,6.934l1.655-2.306a19.225,19.225,0,0,1-5.08-6.056c-1.593-2.736-8.146-13.647-8.211-13.756l-.068-.1a1.859,1.859,0,0,1,.633-2.334,2.361,2.361,0,0,1,2.917.064l8.872,10.054,2.129-1.879-.907-1.028v-15.944l8.1,8.982.1.1a4.029,4.029,0,0,1,.9,3.14v14.852h2.838v-14.852a6.691,6.691,0,0,0-1.771-5.192l-10.166-11.268v-13.633a4.817,4.817,0,0,0-4.069-4.8,96.886,96.886,0,0,0-20.4,0,4.769,4.769,0,0,0-4.053,4.8v36.889c0,2.411,1.652,4.056,4.458,4.405a84.405,84.405,0,0,0,9.268.445c1.81,0,3.6-.054,5.426-.143C1883.042,1370.6,1883.6,1371.539,1883.931,1372.11Zm-.109-19.392a5.133,5.133,0,0,0-6.81-.48,4.672,4.672,0,0,0-1.244,6.2l.33.549h-10.034v-26.349h22.848v25.851Zm-16.228-26.809a95.1,95.1,0,0,1,19.773,0,1.962,1.962,0,0,1,1.545,1.977v1.91h-22.848v-1.91A1.951,1.951,0,0,1,1867.594,1325.909Zm9.358,40.878a81.024,81.024,0,0,1-8.959-.428c-1.929-.241-1.929-1.217-1.929-1.584v-2.954H1877.8c.88,1.468,1.928,3.218,2.928,4.892C1879.468,1366.758,1878.214,1366.787,1876.952,1366.787Z" transform="translate(-1806.778 -1274.507)" fill="#17598d"/>
  <path id="Path_1075" data-name="Path 1075" d="M1933.867,1319.042a5.328,5.328,0,0,0-3.494-9.7,5.417,5.417,0,0,0-.554.1,65.291,65.291,0,0,0-107.892-11.519,65.82,65.82,0,0,0-6.687,9.668,5.328,5.328,0,0,0-4.526,9.3c.04.033.086.058.127.09a65.188,65.188,0,0,0,55.953,87.732,5.275,5.275,0,0,0,1.6,2.324,5.339,5.339,0,0,0,7.523-.679,5.272,5.272,0,0,0,.906-1.621,66.322,66.322,0,0,0,10.867-1.733,65.12,65.12,0,0,0,49.265-69.161A65.881,65.881,0,0,0,1933.867,1319.042Zm-58.632,79.8a5.341,5.341,0,0,0-8.534,2.551,61.958,61.958,0,0,1-52.736-83.27c.057,0,.113.016.17.016.16,0,.321-.008.481-.023a5.319,5.319,0,0,0,3.5-8.856,62.571,62.571,0,0,1,6.362-9.2,61.368,61.368,0,0,1,32.664-20.413,62.58,62.58,0,0,1,14.975-1.828,62.025,62.025,0,0,1,54.814,33.249c-.056.061-.123.11-.177.175a5.34,5.34,0,0,0,.678,7.522,5.366,5.366,0,0,0,1.466.872,5.3,5.3,0,0,0,1.81.356,62.3,62.3,0,0,1,2.967,14.158,61.91,61.91,0,0,1-56.09,67.227c-.22.02-.439.026-.658.043A5.312,5.312,0,0,0,1875.235,1398.841Z" transform="translate(-1806.778 -1274.507)" fill="#17598d"/>
</svg>
