<svg width="88" height="85" viewBox="0 0 88 85" fill="none" xmlns="http://www.w3.org/2000/svg">
<path d="M19.1741 18.125H67.1571C67.1841 18.148 67.2081 18.185 67.2391 18.193C68.4286 18.372 69.5039 19.0011 70.2429 19.9502C70.9819 20.8993 71.3281 22.0959 71.2101 23.293C71.2101 34.2263 71.2101 45.157 71.2101 56.085C71.2614 56.7628 71.1654 57.4437 70.9287 58.0809C70.692 58.7182 70.3202 59.2967 69.8388 59.7766C69.3574 60.2566 68.7779 60.6266 68.1399 60.8615C67.502 61.0963 66.8208 61.1903 66.1431 61.137C63.3691 61.137 60.5948 61.137 57.8201 61.137H57.1881C57.1881 62.621 57.1801 64.037 57.1881 65.46C57.1881 65.96 57.1381 66.4159 56.6141 66.6489C56.0901 66.8819 55.7141 66.598 55.3671 66.238C54.4411 65.285 53.5071 64.338 52.5531 63.366C52.3621 63.546 52.2281 63.666 52.1011 63.793C51.2484 64.643 50.3964 65.4947 49.5451 66.348C49.4177 66.5172 49.2375 66.6392 49.0331 66.6946C48.8286 66.75 48.6115 66.7357 48.4161 66.6539C48.2223 66.5699 48.0613 66.4247 47.9579 66.2405C47.8544 66.0563 47.8141 65.8433 47.8431 65.634C47.8511 64.334 47.8431 63.0429 47.8431 61.7469C47.8431 61.5559 47.8261 61.364 47.8161 61.137H33.7961C29.2141 61.137 24.6325 61.137 20.0511 61.137C19.04 61.1831 18.0408 60.903 17.201 60.338C16.3612 59.773 15.7253 58.953 15.3871 57.999C15.2871 57.709 15.2091 57.41 15.1211 57.115V22.179C15.1641 22.023 15.2081 21.868 15.2511 21.712C15.4384 20.9467 15.8159 20.2411 16.3485 19.6605C16.8812 19.08 17.5517 18.6433 18.2981 18.391C18.5841 18.284 18.8821 18.213 19.1741 18.125ZM57.1901 59.236C57.4011 59.249 57.5621 59.267 57.7221 59.267C60.5701 59.267 63.4181 59.267 66.2661 59.267C66.6831 59.3039 67.103 59.2482 67.4959 59.104C67.8889 58.9598 68.2451 58.7305 68.5392 58.4326C68.8332 58.1347 69.0579 57.7756 69.197 57.3809C69.3362 56.9861 69.3864 56.5654 69.3441 56.1489C69.3441 45.1436 69.3441 34.1387 69.3441 23.134C69.3885 22.7129 69.3384 22.287 69.1975 21.8877C69.0566 21.4883 68.8284 21.1255 68.5295 20.8254C68.2306 20.5254 67.8686 20.2958 67.4698 20.1533C67.071 20.0109 66.6454 19.9592 66.2241 20.002H20.1101C19.6888 19.9584 19.2632 20.0095 18.8641 20.1514C18.4651 20.2932 18.1028 20.5224 17.8035 20.8221C17.5043 21.1218 17.2757 21.4845 17.1345 21.8838C16.9933 22.2831 16.9429 22.7088 16.9871 23.13C16.9871 34.1353 16.9871 45.1404 16.9871 56.145C16.9437 56.5663 16.9949 56.992 17.1369 57.391C17.2789 57.79 17.5082 58.1523 17.808 58.4515C18.1077 58.7507 18.4705 58.9794 18.8698 59.1206C19.2691 59.2618 19.6949 59.3121 20.1161 59.2679C29.1521 59.2679 38.1888 59.2679 47.2261 59.2679C47.4191 59.2679 47.6131 59.2489 47.8491 59.2369V58.531C47.8491 55.031 47.8841 51.522 47.8351 48.019C47.8101 46.199 48.1351 44.351 47.4511 42.563C47.3101 42.193 47.1921 41.968 46.7851 41.906C46.4374 41.8778 46.1006 41.7714 45.7999 41.5947C45.4991 41.4181 45.2422 41.1757 45.0484 40.8857C44.8545 40.5958 44.7287 40.2658 44.6803 39.9204C44.6319 39.575 44.6623 39.223 44.7691 38.891C44.8298 38.7297 44.8258 38.5512 44.7579 38.3928C44.6901 38.2344 44.5637 38.1084 44.4051 38.041C44.0958 37.8799 43.8267 37.651 43.6181 37.3715C43.4095 37.0919 43.2668 36.7689 43.2004 36.4265C43.1341 36.0841 43.1459 35.7311 43.235 35.3939C43.3242 35.0567 43.4883 34.744 43.7151 34.479C43.829 34.3622 43.8941 34.2064 43.8971 34.0432C43.9 33.8801 43.8407 33.7218 43.7311 33.601C43.4975 33.3349 43.3279 33.0188 43.2354 32.677C43.143 32.3352 43.13 31.9767 43.1976 31.6292C43.2652 31.2816 43.4115 30.9541 43.6253 30.6719C43.8392 30.3896 44.1148 30.1601 44.4311 30.001C44.5802 29.9338 44.6987 29.8131 44.763 29.6627C44.8273 29.5123 44.8327 29.3432 44.7781 29.189C44.6672 28.8531 44.6341 28.4965 44.6816 28.146C44.729 27.7955 44.8556 27.4604 45.0519 27.1661C45.2481 26.8719 45.5088 26.6263 45.8141 26.4478C46.1195 26.2693 46.4614 26.1626 46.8141 26.136C46.9779 26.1317 47.1338 26.0647 47.2495 25.9487C47.3653 25.8328 47.4321 25.6767 47.4361 25.5129C47.4626 25.1655 47.5672 24.8285 47.7419 24.527C47.9166 24.2255 48.157 23.9672 48.4453 23.7714C48.7335 23.5755 49.0622 23.4473 49.4068 23.396C49.7515 23.3447 50.1033 23.3716 50.4361 23.475C50.5969 23.538 50.7756 23.5375 50.9362 23.4739C51.0967 23.4102 51.2272 23.288 51.3011 23.132C51.4593 22.8208 51.6859 22.5495 51.964 22.3384C52.242 22.1273 52.5642 21.9819 52.9065 21.9131C53.2487 21.8443 53.6021 21.8539 53.9401 21.9412C54.2781 22.0284 54.5919 22.1911 54.8581 22.417C54.9833 22.5359 55.1494 22.6022 55.3221 22.6022C55.4948 22.6022 55.6609 22.5359 55.7861 22.417C56.0522 22.1912 56.3659 22.0286 56.7038 21.9413C57.0417 21.854 57.395 21.8443 57.7371 21.9128C58.0793 21.9814 58.4015 22.1265 58.6796 22.3373C58.9577 22.5481 59.1846 22.8191 59.3431 23.13C59.4104 23.279 59.5306 23.3979 59.6803 23.4636C59.83 23.5294 59.9988 23.5373 60.1541 23.486C60.4939 23.3712 60.8556 23.3367 61.211 23.3851C61.5663 23.4336 61.9056 23.5637 62.2023 23.7651C62.499 23.9666 62.745 24.2341 62.9211 24.5465C63.0971 24.8589 63.1984 25.2079 63.2171 25.566C63.226 25.7113 63.2874 25.8484 63.3898 25.9518C63.4923 26.0552 63.6289 26.1178 63.7741 26.1279C64.1321 26.1465 64.4809 26.2476 64.7934 26.4231C65.1059 26.5986 65.3737 26.8437 65.576 27.1396C65.7782 27.4356 65.9095 27.7742 65.9594 28.1292C66.0094 28.4841 65.9768 28.8458 65.8641 29.186C65.8112 29.3407 65.8174 29.5095 65.8817 29.6598C65.946 29.8101 66.0637 29.9314 66.2121 30C66.5237 30.1573 66.7957 30.3831 67.0076 30.6604C67.2196 30.9377 67.3661 31.2594 67.4361 31.6013C67.5061 31.9433 67.4979 32.2967 67.412 32.635C67.3261 32.9733 67.1648 33.2878 66.9401 33.5549C66.8192 33.6773 66.7503 33.8417 66.7477 34.0137C66.745 34.1857 66.809 34.3521 66.9261 34.478C67.1541 34.7428 67.3189 35.056 67.4081 35.3938C67.4974 35.7316 67.5087 36.0853 67.4413 36.4281C67.3739 36.7709 67.2295 37.094 67.019 37.3729C66.8084 37.6518 66.5373 37.8792 66.2261 38.038C66.0687 38.1082 65.944 38.236 65.8777 38.3951C65.8113 38.5543 65.8082 38.7327 65.8691 38.894C65.9727 39.2269 66.0005 39.5787 65.9505 39.9237C65.9006 40.2687 65.7741 40.5981 65.5803 40.8879C65.3866 41.1777 65.1305 41.4206 64.8307 41.5986C64.531 41.7767 64.1953 41.8855 63.8481 41.917C63.6481 41.951 63.3611 42.066 63.3131 42.21C63.0486 42.8403 62.8801 43.5067 62.8131 44.187C62.7681 48.187 62.7871 52.181 62.7951 56.177C62.7951 56.668 62.7221 57.105 62.2191 57.307C62.0027 57.3846 61.7668 57.3893 61.5474 57.3203C61.328 57.2513 61.1372 57.1124 61.0041 56.9249C60.0611 55.9589 59.1041 55.01 58.0961 54.002C57.7771 54.395 57.2611 54.7369 57.2331 55.1169C57.1281 56.4749 57.1901 57.844 57.1901 59.236ZM64.1001 28.567C64.1001 28.139 63.8601 28.024 63.5071 27.974C62.9657 27.9249 62.4576 27.6912 62.0682 27.3119C61.6787 26.9326 61.4315 26.4309 61.3681 25.891C61.2681 25.267 61.1341 25.177 60.5391 25.316C60.017 25.4684 59.4584 25.4371 58.9565 25.2274C58.4546 25.0178 58.0397 24.6424 57.7811 24.1639C57.4701 23.6639 57.2961 23.632 56.8191 23.969C56.3996 24.3155 55.8732 24.5062 55.3291 24.5088C54.785 24.5113 54.2568 24.3256 53.8341 23.983C53.3391 23.631 53.1631 23.6669 52.8341 24.1899C52.5738 24.6568 52.164 25.0225 51.6705 25.228C51.1771 25.4336 50.6289 25.467 50.1141 25.323C49.5031 25.182 49.3781 25.2629 49.2671 25.8719C49.2063 26.4122 48.9627 26.9156 48.5768 27.2986C48.1909 27.6816 47.6858 27.9213 47.1451 27.978C46.5901 28.064 46.4671 28.244 46.5901 28.793C46.7571 29.3217 46.7306 29.8925 46.5153 30.4034C46.3001 30.9144 45.9101 31.3322 45.4151 31.582C44.9631 31.869 44.9261 32.068 45.2401 32.51C45.5986 32.9318 45.7961 33.4669 45.7976 34.0205C45.799 34.5741 45.6044 35.1102 45.2481 35.5339C44.9201 35.9989 44.9601 36.188 45.4481 36.496C45.9288 36.7507 46.3054 37.1653 46.5129 37.6681C46.7205 38.1709 46.7461 38.7304 46.5851 39.25C46.4601 39.806 46.5671 39.966 47.1321 40.073C47.6844 40.1228 48.2011 40.3665 48.5908 40.761C48.9805 41.1554 49.218 41.6752 49.2611 42.228C49.3431 42.74 49.5901 42.8619 50.0551 42.7629C50.5903 42.5853 51.1718 42.6084 51.6913 42.8279C52.2107 43.0474 52.6325 43.4483 52.8781 43.9559C53.1341 44.3559 53.4031 44.392 53.7781 44.124C54.2008 43.7513 54.745 43.5455 55.3086 43.5455C55.8722 43.5455 56.4164 43.7513 56.8391 44.124C57.2131 44.393 57.4841 44.371 57.7391 43.967C57.99 43.4519 58.4206 43.0462 58.9498 42.8267C59.479 42.6071 60.0702 42.5888 60.6121 42.775C61.0631 42.861 61.2881 42.713 61.3591 42.239C61.4005 41.6864 61.6364 41.1662 62.0248 40.771C62.4133 40.3758 62.9293 40.1309 63.4811 40.08C64.0571 39.972 64.1631 39.816 64.0361 39.265C63.8745 38.7454 63.8989 38.1859 64.1049 37.6823C64.3109 37.1786 64.6857 36.7624 65.1651 36.505C65.6841 36.183 65.7161 36.012 65.3541 35.505C65.018 35.0897 64.834 34.572 64.8327 34.0377C64.8315 33.5035 65.013 32.9849 65.3471 32.568C65.7261 32.043 65.6931 31.89 65.1291 31.538C64.6734 31.2775 64.3168 30.8735 64.1149 30.389C63.913 29.9046 63.8772 29.3669 64.0131 28.86C64.0481 28.75 64.0791 28.646 64.1001 28.567ZM49.7731 44.71V63.527C50.4491 62.836 51.0321 62.2329 51.6231 61.6379C52.3081 60.9489 52.7281 60.9489 53.4231 61.6489C54.0231 62.2489 54.6021 62.865 55.2931 63.58V56.9089C54.8641 57.3089 54.4421 57.54 53.9281 57.261C53.3931 56.97 53.4541 56.4539 53.4541 55.9609C53.4541 52.8983 53.4541 49.8347 53.4541 46.77V46.193C52.9997 46.1993 52.5526 46.078 52.1637 45.8429C51.7748 45.6078 51.4597 45.2683 51.2541 44.863C51.1978 44.7264 51.0899 44.6175 50.9538 44.5598C50.8177 44.5022 50.6644 44.5004 50.5271 44.5549C50.2871 44.6189 50.0401 44.657 49.7731 44.71ZM55.3601 45.563V54.229C56.0141 53.549 56.5601 52.969 57.1211 52.402C57.9401 51.573 58.2941 51.575 59.1101 52.389L60.8851 54.1639V44.692C60.7502 44.6887 60.6161 44.6705 60.4851 44.6379C60.3645 44.5772 60.2324 44.5429 60.0974 44.5374C59.9625 44.5318 59.828 44.5552 59.7028 44.6058C59.5777 44.6565 59.4648 44.7332 59.3717 44.8311C59.2786 44.9289 59.2075 45.0454 59.1631 45.173C58.9822 45.5072 58.7043 45.7789 58.3661 45.9524C58.0279 46.1259 57.6451 46.1931 57.2681 46.145C56.6159 46.0088 55.9773 45.8139 55.3601 45.563Z" fill="#17598d"/>
<path d="M56.24 66.86C56.0522 66.8404 55.8703 66.7828 55.7054 66.6907C55.5405 66.5985 55.3961 66.4737 55.281 66.324C54.63 65.653 53.975 64.987 53.311 64.312L52.552 63.54L52.476 63.61C52.368 63.71 52.276 63.794 52.193 63.881L51.872 64.199C51.126 64.943 50.381 65.6884 49.637 66.4351C49.491 66.6211 49.2883 66.7543 49.0596 66.8146C48.8309 66.8749 48.5888 66.8589 48.37 66.769C48.1543 66.6741 47.9748 66.5123 47.8579 66.3076C47.7411 66.1029 47.6931 65.8661 47.721 65.6321C47.728 64.4321 47.726 63.241 47.721 62.046V61.746C47.721 61.619 47.713 61.492 47.705 61.353V61.2621H29.869C26.595 61.2621 23.322 61.2621 20.05 61.2621C19.0122 61.3118 17.9861 61.0249 17.1246 60.4441C16.2631 59.8633 15.6122 59.0197 15.269 58.0391C15.198 57.8391 15.138 57.628 15.078 57.42C15.053 57.33 15.028 57.239 15 57.15V57.114V22.144L15.131 21.678C15.3243 20.8938 15.7117 20.1709 16.2577 19.5757C16.8036 18.9805 17.4904 18.5321 18.255 18.272C18.455 18.199 18.655 18.1421 18.855 18.0861C18.955 18.0601 19.043 18.033 19.137 18.005L19.173 18H67.204L67.24 18.031L67.271 18.063C68.4879 18.2518 69.5865 18.8987 70.3419 19.8712C71.0972 20.8437 71.4522 22.0683 71.334 23.2941V56.082C71.3893 56.7772 71.2927 57.4762 71.0511 58.1304C70.8096 58.7846 70.4287 59.3784 69.9348 59.8708C69.441 60.3633 68.846 60.7424 68.1911 60.9821C67.5362 61.2218 66.8371 61.3163 66.142 61.259C64.062 61.259 61.9814 61.259 59.9 61.259H57.312V62.402C57.312 63.435 57.312 64.4451 57.317 65.4551C57.3643 65.7135 57.3267 65.9803 57.2097 66.2156C57.0927 66.4508 56.9027 66.6418 56.668 66.76C56.534 66.8231 56.3881 66.8572 56.24 66.86ZM52.56 63.1901L53.49 64.1371C54.154 64.8121 54.809 65.479 55.46 66.15C55.845 66.55 56.134 66.7261 56.566 66.5341C56.998 66.3421 57.071 65.9971 57.066 65.4601C57.057 64.4491 57.059 63.438 57.061 62.405V61.0121H66.14C66.8015 61.0666 67.467 60.9766 68.0903 60.7485C68.7136 60.5204 69.2799 60.1597 69.75 59.691C70.2201 59.2224 70.5827 58.6572 70.8127 58.0345C71.0426 57.4119 71.1345 56.7468 71.082 56.0851V23.292C71.1957 22.1234 70.8571 20.9556 70.1359 20.0291C69.4147 19.1025 68.3658 18.4877 67.205 18.311C67.1667 18.2992 67.1322 18.2775 67.105 18.248H19.193L18.923 18.3251C18.73 18.3791 18.53 18.436 18.341 18.505C17.6142 18.7522 16.9613 19.1782 16.4423 19.7439C15.9233 20.3096 15.5549 20.9967 15.371 21.7421L15.245 22.193V57.093C15.271 57.178 15.295 57.263 15.32 57.349C15.377 57.549 15.435 57.755 15.505 57.954C15.8324 58.8849 16.4517 59.6851 17.2706 60.2356C18.0896 60.7861 19.0644 61.0574 20.05 61.009C23.3234 61.0144 26.5964 61.0144 29.869 61.009H47.94L47.957 61.3361C47.965 61.4791 47.973 61.611 47.973 61.743V62.0431C47.973 63.2431 47.973 64.434 47.973 65.631C47.9442 65.8153 47.9777 66.0039 48.0683 66.167C48.1589 66.33 48.3013 66.4582 48.473 66.531C48.6453 66.6043 48.8374 66.6167 49.0176 66.5659C49.1978 66.5152 49.3553 66.4045 49.464 66.2521C50.208 65.5054 50.9537 64.7597 51.701 64.015L52.021 63.696C52.109 63.608 52.2 63.524 52.311 63.421L52.56 63.1901ZM55.416 63.89L54.575 63.015C54.141 62.563 53.741 62.1471 53.333 61.7361C52.997 61.3981 52.745 61.2471 52.516 61.2471C52.287 61.2471 52.04 61.3961 51.711 61.7271C51.305 62.1351 50.904 62.547 50.472 62.989L49.648 63.833V44.6071L49.748 44.588C49.828 44.571 49.908 44.557 49.987 44.542C50.16 44.509 50.33 44.478 50.496 44.433C50.6613 44.3711 50.8441 44.3752 51.0065 44.4445C51.1688 44.5137 51.2983 44.6429 51.368 44.8051C51.5622 45.1916 51.862 45.5152 52.2326 45.7384C52.6032 45.9616 53.0295 46.0752 53.462 46.066L53.579 46.073V49.067C53.579 51.365 53.579 53.6627 53.579 55.9601V56.097C53.579 56.54 53.569 56.923 53.989 57.15C54.377 57.363 54.721 57.27 55.208 56.817L55.418 56.6171L55.416 63.89ZM52.516 60.9971C52.7113 61.0194 52.9 61.0808 53.071 61.1777C53.2419 61.2746 53.3916 61.405 53.511 61.561C53.919 61.972 54.321 62.39 54.754 62.842L55.166 63.27V57.182C54.9983 57.3488 54.7812 57.4572 54.547 57.4908C54.3128 57.5245 54.074 57.4818 53.866 57.369C53.313 57.069 53.32 56.551 53.325 56.093V55.959C53.325 53.661 53.325 51.3634 53.325 49.066V46.307C52.8695 46.2945 52.426 46.1589 52.0414 45.9146C51.6569 45.6702 51.3457 45.3261 51.141 44.9191C51.1199 44.8639 51.0877 44.8135 51.0466 44.7711C51.0055 44.7287 50.9563 44.695 50.9018 44.6721C50.8473 44.6492 50.7888 44.6376 50.7297 44.6379C50.6706 44.6383 50.6122 44.6506 50.558 44.6741C50.383 44.7201 50.211 44.752 50.029 44.786L49.894 44.812V63.219L50.289 62.813C50.721 62.371 51.123 61.959 51.53 61.55C51.6483 61.3955 51.7968 61.2666 51.9665 61.1711C52.1362 61.0757 52.3235 61.0158 52.517 60.995L52.516 60.9971ZM62.986 59.397C61.8 59.397 60.6143 59.397 59.429 59.397H57.721C57.611 59.397 57.499 59.389 57.372 59.379L57.065 59.359V59.2411C57.065 58.8581 57.06 58.4761 57.055 58.0961C57.043 57.1151 57.031 56.102 57.105 55.114C57.1896 54.7823 57.3855 54.4896 57.66 54.285C57.7785 54.173 57.8906 54.0545 57.996 53.9301L58.083 53.822L59.053 54.792C59.747 55.485 60.423 56.161 61.091 56.845C61.485 57.245 61.799 57.35 62.169 57.198C62.585 57.031 62.669 56.6871 62.669 56.1851V54.5851C62.661 51.1791 62.652 47.656 62.691 44.192C62.7321 43.6158 62.8644 43.0498 63.083 42.515C63.124 42.401 63.163 42.289 63.201 42.177C63.273 41.953 63.645 41.832 63.832 41.8C64.1624 41.7585 64.4806 41.6489 64.7665 41.4781C65.0524 41.3074 65.2998 41.0792 65.493 40.808C65.6639 40.5298 65.7751 40.2191 65.8195 39.8956C65.864 39.5722 65.8406 39.2431 65.751 38.9291C65.6847 38.7415 65.6907 38.5358 65.7678 38.3524C65.8449 38.169 65.9876 38.0209 66.168 37.937C66.4557 37.7825 66.707 37.5683 66.9052 37.3087C67.1033 37.0492 67.2438 36.7502 67.317 36.432C67.3715 36.1029 67.3559 35.7661 67.2715 35.4434C67.1871 35.1206 67.0357 34.8194 66.827 34.5591C66.6935 34.4116 66.6206 34.219 66.623 34.02C66.6254 33.821 66.7029 33.6303 66.84 33.4861C67.0452 33.2325 67.1941 32.9382 67.2769 32.6227C67.3596 32.3072 67.3743 31.9776 67.32 31.656C67.2445 31.3306 67.1011 31.0249 66.8991 30.7588C66.6971 30.4927 66.4411 30.2723 66.148 30.1121C65.9777 30.0297 65.8432 29.8881 65.7696 29.7139C65.696 29.5396 65.6883 29.3445 65.748 29.165C65.8399 28.8431 65.8646 28.5058 65.8206 28.174C65.7765 27.8421 65.6647 27.5229 65.492 27.2361C65.2856 26.9629 65.0252 26.7351 64.7271 26.5667C64.429 26.3982 64.0995 26.2929 63.759 26.2571C63.5878 26.2435 63.4272 26.1689 63.3061 26.0471C63.1851 25.9253 63.1116 25.7643 63.099 25.593C63.0834 25.2515 62.9884 24.9184 62.8216 24.62C62.6548 24.3216 62.4208 24.0662 62.138 23.874C61.8553 23.6819 61.5317 23.5582 61.1929 23.5129C60.854 23.4676 60.5093 23.5019 60.186 23.613C60.0057 23.6699 59.8109 23.6597 59.6375 23.5841C59.4642 23.5086 59.3241 23.3728 59.243 23.202C59.0833 22.9106 58.8637 22.6563 58.5986 22.4558C58.3335 22.2554 58.0289 22.1134 57.705 22.0391C57.3816 21.9856 57.0506 22.0013 56.7336 22.0848C56.4167 22.1684 56.121 22.3181 55.866 22.524C55.7188 22.6578 55.527 22.7319 55.328 22.7319C55.1291 22.7319 54.9372 22.6578 54.79 22.524C54.538 22.3083 54.2402 22.1527 53.9192 22.0691C53.5982 21.9855 53.2624 21.9761 52.9371 22.0415C52.6119 22.1069 52.3059 22.2455 52.0421 22.4468C51.7784 22.648 51.564 22.9066 51.415 23.203C51.328 23.3822 51.1773 23.5226 50.9924 23.5966C50.8075 23.6705 50.6016 23.6728 50.415 23.603C50.0986 23.5121 49.7664 23.4897 49.4406 23.5375C49.1148 23.5852 48.803 23.702 48.526 23.88C48.2584 24.0729 48.0347 24.3204 47.8696 24.606C47.7045 24.8916 47.6017 25.2088 47.568 25.537C47.5602 25.7276 47.481 25.9084 47.3461 26.0435C47.2113 26.1785 47.0307 26.2579 46.84 26.266C46.5119 26.2981 46.1944 26.3995 45.9082 26.5632C45.6221 26.727 45.3739 26.9495 45.18 27.2161C44.9998 27.5038 44.8824 27.8263 44.8356 28.1625C44.7887 28.4987 44.8134 28.841 44.908 29.167C44.9681 29.3463 44.9606 29.5415 44.8869 29.7157C44.8133 29.8899 44.6785 30.0312 44.508 30.113C44.217 30.2719 43.9624 30.4902 43.7609 30.7535C43.5594 31.0169 43.4153 31.3196 43.338 31.6421C43.286 31.9751 43.3044 32.3154 43.3919 32.6409C43.4794 32.9664 43.6341 33.2699 43.846 33.532C43.9713 33.6742 44.0391 33.8581 44.0361 34.0476C44.0332 34.2371 43.9597 34.4188 43.83 34.557C43.6215 34.8191 43.4704 35.1221 43.3865 35.4463C43.3026 35.7705 43.2878 36.1088 43.343 36.4391C43.4158 36.7558 43.5552 37.0534 43.7519 37.312C43.9486 37.5707 44.1982 37.7844 44.484 37.9391C44.6658 38.02 44.8103 38.1667 44.8882 38.3499C44.9661 38.533 44.9718 38.7389 44.904 38.926C44.8015 39.2411 44.7718 39.5754 44.8172 39.9037C44.8627 40.2319 44.9821 40.5455 45.1664 40.8209C45.3507 41.0963 45.5951 41.3262 45.8812 41.4934C46.1673 41.6606 46.4876 41.7606 46.818 41.786C47.295 41.861 47.435 42.139 47.583 42.524C47.9985 43.8483 48.1407 45.2432 48.001 46.624C47.984 47.085 47.967 47.561 47.974 48.024C48.008 50.498 48.001 53.014 47.994 55.446C47.994 56.478 47.992 57.5088 47.988 58.5381V59.3621L47.657 59.381C47.508 59.391 47.375 59.4 47.24 59.4C38.204 59.4 29.1673 59.4 20.13 59.4C19.692 59.4461 19.2492 59.3939 18.834 59.2471C18.4187 59.1003 18.0414 58.8626 17.7297 58.5515C17.4179 58.2404 17.1795 57.8637 17.0318 57.4487C16.8841 57.0338 16.8309 56.5912 16.876 56.1531V23.1371C16.8301 22.699 16.8825 22.2563 17.0294 21.8411C17.1763 21.4259 17.414 21.0486 17.7252 20.7369C18.0364 20.4253 18.4133 20.187 18.8282 20.0394C19.2432 19.8919 19.6859 19.8388 20.124 19.884H66.238C66.6763 19.839 67.1191 19.8924 67.5341 20.0403C67.9491 20.1882 68.3259 20.4269 68.6369 20.739C68.9478 21.0511 69.1852 21.4288 69.3316 21.8444C69.478 22.2599 69.5297 22.7029 69.483 23.141C69.483 34.1463 69.483 45.1513 69.483 56.156C69.5251 56.5887 69.4716 57.0254 69.3263 57.4351C69.181 57.8448 68.9475 58.2175 68.6422 58.527C68.3369 58.8364 67.9674 59.075 67.5597 59.2258C67.152 59.3767 66.7162 59.4362 66.283 59.4C65.1784 59.3967 64.0797 59.3947 62.987 59.394L62.986 59.397ZM57.315 59.121L57.391 59.126C57.511 59.135 57.616 59.1431 57.721 59.1431H59.43C61.706 59.1471 63.9843 59.1471 66.265 59.1431C66.6659 59.1814 67.0703 59.1299 67.4488 58.9924C67.8273 58.8549 68.1705 58.6347 68.4533 58.348C68.7361 58.0613 68.9515 57.7152 69.0837 57.3348C69.216 56.9545 69.2619 56.5494 69.218 56.149C69.218 45.1437 69.218 34.1387 69.218 23.134C69.2611 22.7296 69.2133 22.3207 69.0782 21.9371C68.9431 21.5536 68.724 21.205 68.437 20.9169C68.1501 20.6287 67.8023 20.4083 67.4193 20.2716C67.0363 20.135 66.6276 20.0856 66.223 20.1271H20.11C19.7057 20.085 19.2971 20.1336 18.914 20.2695C18.5309 20.4054 18.183 20.6252 17.8955 20.9126C17.6081 21.2 17.3884 21.5479 17.2525 21.931C17.1166 22.3141 17.068 22.7228 17.11 23.1271V56.1431C17.068 56.5474 17.1166 56.9559 17.2525 57.339C17.3884 57.7221 17.6081 58.0701 17.8955 58.3575C18.183 58.645 18.5309 58.8646 18.914 59.0005C19.2971 59.1364 19.7057 59.1851 20.11 59.1431C29.148 59.1431 38.1847 59.1431 47.22 59.1431C47.349 59.1431 47.479 59.134 47.62 59.125L47.72 59.119V58.531C47.72 57.501 47.722 56.4704 47.726 55.4391C47.733 53.0071 47.74 50.492 47.706 48.021C47.699 47.55 47.716 47.0701 47.733 46.6061C47.8706 45.2594 47.7345 43.8988 47.333 42.6061C47.196 42.2431 47.1 42.079 46.765 42.026C46.4003 41.9954 46.0472 41.8831 45.7319 41.6974C45.4166 41.5116 45.1472 41.2572 44.9437 40.953C44.7402 40.6488 44.6078 40.3028 44.5565 39.9404C44.5051 39.5781 44.5361 39.2087 44.647 38.86C44.7006 38.7246 44.6984 38.5735 44.6408 38.4397C44.5833 38.3059 44.4752 38.2003 44.34 38.146C44.0255 37.9724 43.751 37.7346 43.5344 37.4479C43.3178 37.1612 43.164 36.8321 43.083 36.4821C43.0213 36.1177 43.0367 35.7443 43.1281 35.3862C43.2196 35.0281 43.3851 34.6933 43.614 34.4031C43.7123 34.3079 43.7689 34.1777 43.7715 34.0409C43.7741 33.9041 43.7225 33.7718 43.628 33.673C43.3956 33.383 43.2264 33.0476 43.1315 32.6884C43.0366 32.3291 43.0181 31.9539 43.077 31.587C43.1609 31.2308 43.3186 30.8961 43.5399 30.6046C43.7613 30.3132 44.0413 30.0714 44.362 29.895C44.4888 29.842 44.59 29.7416 44.6442 29.6152C44.6983 29.4889 44.7011 29.3464 44.652 29.218C44.5492 28.8583 44.5237 28.4808 44.5769 28.1105C44.6302 27.7401 44.7611 27.3853 44.961 27.0691C45.1744 26.7739 45.4477 26.5271 45.7631 26.345C46.0784 26.1628 46.4287 26.0494 46.791 26.0121C46.8591 26.0124 46.9265 25.9991 46.9894 25.9731C47.0523 25.9472 47.1095 25.909 47.1575 25.8608C47.2056 25.8127 47.2437 25.7555 47.2695 25.6925C47.2953 25.6295 47.3084 25.5621 47.308 25.494C47.3373 25.1297 47.448 24.7765 47.6319 24.4606C47.8158 24.1447 48.0682 23.874 48.3706 23.6686C48.6729 23.4631 49.0175 23.3282 49.3789 23.2736C49.7404 23.2189 50.1095 23.2461 50.459 23.353C50.5937 23.411 50.7459 23.4136 50.8825 23.3602C51.0191 23.3069 51.1292 23.2019 51.189 23.068C51.3561 22.7418 51.5946 22.4576 51.8868 22.2365C52.179 22.0153 52.5174 21.8628 52.8766 21.7905C53.2359 21.7182 53.6069 21.728 53.9619 21.819C54.3169 21.91 54.6468 22.0799 54.927 22.316C55.0306 22.4188 55.1706 22.4764 55.3165 22.4764C55.4624 22.4764 55.6024 22.4188 55.706 22.316C55.9884 22.0885 56.316 21.9237 56.6671 21.8326C57.0182 21.7416 57.3846 21.7264 57.742 21.7881C58.0987 21.8708 58.4341 22.027 58.7269 22.2469C59.0196 22.4669 59.2632 22.7456 59.442 23.0651C59.495 23.192 59.5946 23.2938 59.7203 23.3496C59.846 23.4054 59.9883 23.4109 60.118 23.365C60.4745 23.2466 60.8535 23.212 61.2256 23.2637C61.5977 23.3154 61.9528 23.4521 62.2635 23.6632C62.5743 23.8743 62.8322 24.1541 63.0173 24.481C63.2024 24.8078 63.3098 25.1729 63.331 25.548C63.3354 25.6676 63.3846 25.7813 63.4689 25.8663C63.5532 25.9514 63.6664 26.0016 63.786 26.0071C64.1605 26.0473 64.5226 26.1645 64.8495 26.3514C65.1765 26.5383 65.4613 26.7908 65.686 27.093C65.8784 27.4076 66.0037 27.7586 66.0541 28.1239C66.1046 28.4892 66.079 28.8611 65.979 29.2161C65.9319 29.3452 65.9357 29.4873 65.9898 29.6136C66.0439 29.74 66.1441 29.841 66.27 29.896C66.5919 30.075 66.8728 30.3195 67.0944 30.6136C67.3161 30.9078 67.4737 31.2452 67.557 31.604C67.6182 31.9597 67.6032 32.3244 67.5128 32.6738C67.4225 33.0233 67.2589 33.3495 67.033 33.631C66.9809 33.6808 66.9392 33.7405 66.9103 33.8065C66.8814 33.8726 66.8659 33.9438 66.8647 34.0159C66.8635 34.088 66.8766 34.1595 66.9033 34.2264C66.9299 34.2934 66.9696 34.3545 67.02 34.406C67.2496 34.6944 67.4159 35.0281 67.5079 35.3851C67.5999 35.7422 67.6156 36.1145 67.554 36.478C67.4722 36.8297 67.3171 37.1601 67.0987 37.4478C66.8804 37.7354 66.6038 37.9736 66.287 38.147C66.1523 38.2036 66.0453 38.3111 65.9891 38.446C65.933 38.581 65.9322 38.7326 65.987 38.868C66.0836 39.2156 66.1069 39.5796 66.0552 39.9366C66.0036 40.2937 65.8782 40.636 65.687 40.942C65.4755 41.2421 65.2038 41.4948 64.8893 41.6842C64.5747 41.8736 64.2242 41.9954 63.86 42.042C63.6948 42.0589 63.5407 42.1328 63.424 42.251C63.386 42.364 63.346 42.479 63.306 42.594C63.0958 43.1039 62.9678 43.6441 62.927 44.1941C62.888 47.6561 62.897 51.178 62.905 54.583V56.183C62.905 56.692 62.828 57.1961 62.251 57.4291C62.0113 57.5144 61.7504 57.5203 61.507 57.4462C61.2636 57.372 61.0504 57.2216 60.899 57.0171C60.232 56.3341 59.558 55.66 58.864 54.967L58.088 54.191C58.004 54.284 57.912 54.374 57.823 54.462C57.584 54.697 57.358 54.9201 57.343 55.1321C57.269 56.1081 57.28 57.0711 57.293 58.0911C57.311 58.4291 57.315 58.772 57.316 59.118L57.315 59.121ZM55.234 54.5391V45.394L55.397 45.4451C55.602 45.5111 55.803 45.584 56.002 45.657C56.4139 45.8265 56.8436 45.949 57.283 46.022C57.6358 46.0682 57.9943 46.0058 58.3107 45.843C58.6271 45.6803 58.8864 45.425 59.054 45.1111C59.1059 44.9706 59.1866 44.8425 59.2911 44.7352C59.3956 44.628 59.5214 44.5439 59.6605 44.4884C59.7995 44.4329 59.9487 44.4072 60.0983 44.413C60.2479 44.4188 60.3947 44.4558 60.529 44.522C60.6008 44.5432 60.6751 44.5547 60.75 44.556C60.797 44.556 60.85 44.562 60.899 44.568L61.009 44.582V54.467L59.021 52.48C58.613 52.071 58.352 51.905 58.121 51.905C57.885 51.905 57.621 52.0761 57.212 52.4911C56.839 52.8681 56.473 53.251 56.077 53.665L55.234 54.5391ZM55.484 45.739V53.921L55.893 53.494C56.293 53.079 56.658 52.694 57.032 52.317C57.2948 51.9651 57.6837 51.7286 58.117 51.657C58.5465 51.7265 58.9331 51.9581 59.197 52.3041L60.758 53.865V44.8091H60.732C60.6328 44.8071 60.5344 44.7906 60.44 44.76C59.903 44.56 59.586 44.688 59.27 45.24C59.0778 45.5963 58.782 45.8861 58.4217 46.0707C58.0614 46.2553 57.6535 46.3262 57.252 46.274C56.7933 46.1998 56.3447 46.0729 55.915 45.896C55.775 45.837 55.63 45.782 55.485 45.734L55.484 45.739ZM57.284 44.426C57.0983 44.414 56.921 44.3441 56.777 44.2261C56.3765 43.8669 55.8575 43.6682 55.3195 43.6682C54.7815 43.6682 54.2625 43.8669 53.862 44.2261C53.7863 44.304 53.6925 44.362 53.589 44.395C53.4854 44.428 53.3753 44.4348 53.2685 44.415C53.1616 44.3953 53.0613 44.3494 52.9765 44.2815C52.8916 44.2136 52.8248 44.1259 52.782 44.026C52.5505 43.5399 52.1487 43.1555 51.6527 42.9458C51.1568 42.7361 50.6011 42.7156 50.091 42.8881C49.9869 42.9323 49.8734 42.9497 49.7608 42.9388C49.6482 42.928 49.5401 42.8891 49.4464 42.8258C49.3526 42.7625 49.2762 42.6768 49.2241 42.5764C49.172 42.476 49.1458 42.3641 49.148 42.251C49.109 41.7236 48.8834 41.2274 48.5115 40.8513C48.1397 40.4753 47.646 40.2439 47.119 40.199C46.8828 40.1828 46.6622 40.0752 46.504 39.899C46.4056 39.6872 46.3945 39.445 46.473 39.225C46.6277 38.7305 46.6041 38.1976 46.4064 37.7188C46.2087 37.2399 45.8494 36.8454 45.391 36.604C45.175 36.5032 45.0078 36.321 44.926 36.097C44.9202 35.9818 44.9373 35.8665 44.9763 35.7578C45.0152 35.6492 45.0753 35.5493 45.153 35.464C45.4937 35.0604 45.6795 34.5488 45.6771 34.0206C45.6747 33.4925 45.4843 32.9825 45.14 32.582C45.0644 32.4982 45.006 32.4003 44.9682 32.2939C44.9305 32.1876 44.9141 32.0748 44.92 31.962C44.9562 31.8568 45.0128 31.7599 45.0866 31.6766C45.1604 31.5934 45.2499 31.5256 45.35 31.4771C45.823 31.2406 46.1959 30.8429 46.4012 30.3556C46.6066 29.8683 46.631 29.3237 46.47 28.8201C46.4152 28.7138 46.3901 28.5947 46.3974 28.4753C46.4046 28.356 46.444 28.2408 46.5113 28.142C46.5786 28.0431 46.6713 27.9643 46.7797 27.9138C46.888 27.8633 47.0081 27.8429 47.127 27.855C47.6422 27.8024 48.1238 27.5746 48.4913 27.2097C48.8587 26.8448 49.0899 26.3648 49.146 25.85C49.204 25.528 49.271 25.32 49.435 25.213C49.599 25.106 49.819 25.1261 50.145 25.2001C50.6341 25.3403 51.1562 25.3101 51.6259 25.1146C52.0956 24.9191 52.4849 24.5698 52.73 24.124C52.895 23.86 53.046 23.676 53.249 23.636C53.3693 23.6298 53.4896 23.6483 53.6024 23.6904C53.7153 23.7326 53.8183 23.7974 53.905 23.881C54.307 24.2076 54.8098 24.3848 55.3277 24.3821C55.8456 24.3793 56.3466 24.197 56.745 23.8661C56.8305 23.7857 56.9313 23.7234 57.0415 23.683C57.1517 23.6426 57.2688 23.6249 57.386 23.631C57.586 23.671 57.729 23.846 57.886 24.097C58.1303 24.5541 58.5246 24.913 59.0025 25.1134C59.4805 25.3138 60.0128 25.3433 60.51 25.197C60.6206 25.1527 60.7391 25.1314 60.8583 25.1343C60.9774 25.1372 61.0947 25.1643 61.203 25.214C61.37 25.325 61.438 25.549 61.492 25.874C61.5523 26.3872 61.7873 26.8641 62.1574 27.2246C62.5276 27.5851 63.0104 27.8073 63.525 27.854C63.871 27.902 64.225 28.0261 64.225 28.5701V28.6021L64.199 28.696C64.183 28.756 64.165 28.8211 64.148 28.8881C64.019 29.3693 64.0531 29.8797 64.2448 30.3396C64.4366 30.7995 64.7753 31.183 65.208 31.4301C65.508 31.6171 65.689 31.765 65.729 31.967C65.769 32.169 65.661 32.367 65.462 32.64C65.145 33.0367 64.973 33.5297 64.9744 34.0375C64.9759 34.5452 65.1507 35.0372 65.47 35.432C65.5556 35.5207 65.6224 35.6257 65.6664 35.7408C65.7104 35.856 65.7307 35.9789 65.726 36.1021C65.686 36.3021 65.504 36.449 65.246 36.61C64.7889 36.8538 64.4313 37.2498 64.235 37.7292C64.0388 38.2087 64.0161 38.7417 64.171 39.2361C64.25 39.4527 64.2399 39.6918 64.143 39.901C64.0644 39.9902 63.9686 40.0628 63.8615 40.1144C63.7543 40.1659 63.6378 40.1954 63.519 40.201C62.9925 40.2467 62.4995 40.4787 62.1288 40.8555C61.7581 41.2322 61.5341 41.7288 61.497 42.256C61.4995 42.3643 61.4755 42.4717 61.4271 42.5687C61.3787 42.6657 61.3074 42.7495 61.2193 42.8126C61.1312 42.8758 61.029 42.9164 60.9216 42.9312C60.8142 42.9459 60.7049 42.9341 60.603 42.897C60.0863 42.7135 59.5198 42.728 59.0131 42.9376C58.5063 43.1472 58.0952 43.537 57.859 44.032C57.8105 44.1254 57.7431 44.2078 57.6612 44.2739C57.5793 44.34 57.4846 44.3884 57.383 44.416C57.3489 44.4209 57.3144 44.4226 57.28 44.421L57.284 44.426ZM55.328 43.4191C55.9119 43.4423 56.4728 43.6527 56.928 44.019C57.0405 44.1214 57.189 44.175 57.341 44.1681C57.4085 44.1458 57.4709 44.1103 57.5245 44.0636C57.5781 44.0169 57.6218 43.9598 57.653 43.896C57.9186 43.3612 58.3684 42.9404 58.9197 42.7111C59.471 42.4817 60.0865 42.4594 60.653 42.6481C60.7222 42.6703 60.7951 42.6782 60.8675 42.6715C60.9398 42.6648 61.0101 42.6435 61.074 42.609C61.1281 42.5587 61.1716 42.4981 61.202 42.4308C61.2324 42.3635 61.249 42.2909 61.251 42.217C61.2969 41.6386 61.5449 41.0947 61.9515 40.6808C62.3581 40.2668 62.8975 40.0092 63.475 39.953C63.745 39.902 63.882 39.8461 63.937 39.7621C63.992 39.6781 63.988 39.54 63.93 39.29C63.7636 38.744 63.7907 38.1573 64.0068 37.6289C64.2229 37.1006 64.6147 36.663 65.116 36.39C65.358 36.239 65.464 36.1401 65.484 36.0441C65.504 35.9481 65.441 35.809 65.27 35.568C64.9175 35.132 64.7246 34.5886 64.7231 34.028C64.7217 33.4673 64.9118 32.9228 65.262 32.485C65.44 32.239 65.505 32.1001 65.487 32.0081C65.469 31.9161 65.35 31.808 65.079 31.635C64.6011 31.3607 64.2272 30.9362 64.0154 30.4275C63.8037 29.9188 63.7659 29.3544 63.908 28.822C63.925 28.752 63.944 28.6831 63.961 28.6221L63.982 28.546C63.982 28.255 63.858 28.146 63.497 28.094C62.9287 28.0424 62.3954 27.7969 61.9867 27.3987C61.5779 27.0005 61.3185 26.4738 61.252 25.907C61.203 25.607 61.152 25.4671 61.072 25.4141C60.992 25.3611 60.851 25.368 60.572 25.433C60.0244 25.5889 59.4401 25.5543 58.9147 25.3348C58.3894 25.1154 57.954 24.7241 57.68 24.225C57.537 23.995 57.435 23.89 57.342 23.871C57.249 23.852 57.117 23.91 56.896 24.071C56.4562 24.4346 55.904 24.6345 55.3333 24.6368C54.7627 24.6392 54.2089 24.4439 53.766 24.084C53.538 23.922 53.401 23.856 53.304 23.884C53.207 23.912 53.104 24.016 52.949 24.26C52.6745 24.7488 52.2441 25.1314 51.7265 25.3466C51.2089 25.5618 50.6341 25.5971 50.094 25.447C49.806 25.38 49.655 25.3741 49.579 25.4241C49.503 25.4741 49.45 25.6111 49.398 25.8981C49.3305 26.4631 49.0738 26.9886 48.6696 27.3892C48.2655 27.7897 47.7376 28.0416 47.172 28.104C46.921 28.143 46.784 28.198 46.725 28.285C46.666 28.372 46.665 28.521 46.725 28.769C46.8966 29.323 46.8673 29.9196 46.6424 30.4541C46.4174 30.9886 46.0111 31.4266 45.495 31.691C45.295 31.818 45.195 31.9181 45.176 32.0131C45.157 32.1081 45.213 32.24 45.354 32.441C45.7268 32.8842 45.932 33.4441 45.9338 34.0232C45.9356 34.6022 45.734 35.1635 45.364 35.609C45.213 35.821 45.158 35.9531 45.177 36.0491C45.196 36.1451 45.302 36.249 45.53 36.394C46.0315 36.6634 46.4244 37.098 46.6418 37.624C46.8593 38.1501 46.888 38.7352 46.723 39.28C46.666 39.535 46.665 39.6801 46.723 39.7631C46.781 39.8461 46.914 39.903 47.175 39.953C47.7528 40.0075 48.2929 40.2639 48.7005 40.677C49.1081 41.0901 49.3572 41.6336 49.404 42.212C49.3964 42.2913 49.4104 42.3711 49.4445 42.443C49.4786 42.5149 49.5315 42.5762 49.5976 42.6205C49.6637 42.6648 49.7406 42.6903 49.8201 42.6945C49.8995 42.6986 49.9786 42.6812 50.049 42.644C50.6091 42.4595 51.217 42.4843 51.7602 42.7137C52.3034 42.9432 52.745 43.3619 53.003 43.8921C53.0346 43.9572 53.0788 44.0153 53.1331 44.0632C53.1873 44.1111 53.2505 44.1477 53.319 44.171C53.4689 44.1775 53.6153 44.1251 53.727 44.025C54.1818 43.6583 54.7406 43.4446 55.324 43.4141L55.328 43.4191Z" fill="#17598d"/>
<path d="M20.722 39.6458C20.722 36.6351 20.722 33.6238 20.722 30.6118C20.6792 29.9432 20.7795 29.2732 21.0162 28.6465C21.253 28.0198 21.6208 27.4507 22.095 26.9774C22.5692 26.5042 23.1389 26.1376 23.7661 25.9021C24.3933 25.6666 25.0636 25.5676 25.7321 25.6118C31.0994 25.6065 36.466 25.6065 41.832 25.6118C42.0331 25.6048 42.2344 25.6203 42.432 25.6578C42.6421 25.6931 42.832 25.8042 42.9656 25.9701C43.0992 26.136 43.1673 26.3451 43.157 26.5579C43.163 26.7803 43.0845 26.9966 42.9374 27.1636C42.7903 27.3305 42.5855 27.4356 42.364 27.4578C42.1463 27.482 41.927 27.4906 41.708 27.4838C36.3747 27.4838 31.0437 27.4838 25.7151 27.4838C25.2586 27.4522 24.801 27.5255 24.3772 27.698C23.9535 27.8705 23.5747 28.1375 23.2701 28.4788C22.8079 29.0301 22.5658 29.7328 22.5901 30.4518C22.5901 36.5665 22.5901 42.6811 22.5901 48.7958C22.5622 49.1946 22.6202 49.5947 22.7602 49.9691C22.9002 50.3436 23.1189 50.6836 23.4016 50.9663C23.6843 51.249 24.0243 51.4677 24.3987 51.6077C24.7731 51.7477 25.1733 51.8057 25.5721 51.7778C31.2867 51.7845 37.0014 51.7865 42.716 51.7838C42.9511 51.7749 43.1864 51.796 43.416 51.8468C43.6253 51.8909 43.8099 52.0133 43.9318 52.189C44.0538 52.3647 44.104 52.5804 44.0721 52.7919C44.0703 53.0052 43.9882 53.21 43.8422 53.3655C43.6961 53.521 43.4969 53.6158 43.2841 53.6309C43.1391 53.6485 42.993 53.6551 42.847 53.6508C37.0957 53.6508 31.3444 53.6508 25.5931 53.6508C24.516 53.7011 23.4551 53.3743 22.5931 52.7264C21.7312 52.0786 21.1221 51.1504 20.871 50.1018C20.7673 49.6394 20.7173 49.1667 20.722 48.6929C20.715 45.6689 20.722 42.6578 20.722 39.6458Z" fill="#17598d"/>
<path d="M33.1719 53.7701C30.6479 53.7701 28.1236 53.7684 25.5989 53.765C24.4949 53.8104 23.4092 53.4721 22.5263 52.8077C21.6435 52.1432 21.0179 51.1935 20.7559 50.12C20.6492 49.6486 20.5978 49.1663 20.6029 48.683C20.5929 46.452 20.5949 44.221 20.5959 41.99V36.636C20.5959 34.628 20.5959 32.6201 20.5959 30.6121C20.5496 29.9261 20.6507 29.2382 20.8925 28.5945C21.1343 27.9509 21.5111 27.3665 21.9976 26.8806C22.4841 26.3948 23.069 26.0188 23.7129 25.7779C24.3569 25.537 25.045 25.4368 25.7309 25.484C30.2029 25.484 34.6759 25.484 39.1499 25.484H41.8329C42.0427 25.4769 42.2527 25.4934 42.4589 25.5331C42.6981 25.5841 42.9116 25.718 43.0617 25.911C43.2119 26.1041 43.289 26.3439 43.2796 26.5883C43.2701 26.8327 43.1747 27.0658 43.0101 27.2467C42.8455 27.4276 42.6223 27.5446 42.3799 27.5771C42.183 27.5992 41.9849 27.6079 41.7869 27.6031H39.5759C34.9526 27.6031 30.3316 27.6031 25.7129 27.6031H25.7069C25.2695 27.571 24.8305 27.6401 24.4241 27.8052C24.0178 27.9703 23.655 28.227 23.3639 28.5551C22.9198 29.0828 22.6877 29.7568 22.7129 30.4461V36.5611C22.7129 40.6371 22.7129 44.7134 22.7129 48.7901C22.6869 49.1721 22.743 49.5552 22.8774 49.9137C23.0118 50.2722 23.2215 50.5978 23.4923 50.8684C23.7631 51.1391 24.0887 51.3486 24.4472 51.4829C24.8058 51.6173 25.1889 51.6732 25.5709 51.647C28.9969 51.647 32.4256 51.647 35.8569 51.647H42.7139C42.9612 51.6373 43.2087 51.6606 43.4499 51.7161C43.6872 51.7673 43.8963 51.9063 44.0352 52.1054C44.1742 52.3044 44.2326 52.5487 44.1989 52.7891C44.1952 53.0311 44.1015 53.2629 43.936 53.4395C43.7705 53.6161 43.5451 53.7247 43.3039 53.7441C43.164 53.7615 43.0229 53.7685 42.8819 53.765H33.1679L33.1719 53.7701ZM32.0469 25.7311H25.7319C25.0794 25.6861 24.4248 25.7813 23.8121 26.0104C23.1995 26.2395 22.6431 26.5972 22.1803 27.0594C21.7174 27.5215 21.3589 28.0774 21.129 28.6897C20.899 29.302 20.8028 29.9565 20.8469 30.609C20.8469 32.617 20.8469 34.6251 20.8469 36.6331V41.9871C20.8469 44.2181 20.8469 46.448 20.8539 48.678C20.8486 49.1421 20.8973 49.6052 20.9989 50.058C21.2397 51.0813 21.8321 51.9877 22.6728 52.6189C23.5134 53.2502 24.549 53.5663 25.5989 53.5121C29.9809 53.5181 34.3629 53.5181 38.7449 53.5121H42.8869C43.0152 53.5168 43.1437 53.5104 43.2709 53.4931C43.4558 53.4826 43.6296 53.4015 43.7565 53.2666C43.8834 53.1317 43.9537 52.9533 43.9529 52.7681C43.9829 52.586 43.941 52.3994 43.8359 52.2477C43.7308 52.096 43.5709 51.9911 43.3899 51.9551C43.1695 51.9057 42.9436 51.8851 42.7179 51.8941H35.8609C32.4249 51.8941 28.9962 51.8941 25.5749 51.8941C25.1595 51.9226 24.7428 51.8618 24.3528 51.7157C23.9629 51.5697 23.6087 51.3419 23.3142 51.0475C23.0197 50.7531 22.7917 50.399 22.6456 50.0091C22.4994 49.6192 22.4385 49.2025 22.4669 48.787C22.4629 44.7097 22.4629 40.6334 22.4669 36.558V30.443C22.4407 29.6941 22.6942 28.9623 23.1779 28.39C23.4916 28.0334 23.8834 27.754 24.3227 27.5736C24.7621 27.3933 25.2371 27.3167 25.7109 27.35H25.7169C30.3382 27.356 34.9589 27.356 39.5789 27.35H41.7909C41.9772 27.3564 42.1638 27.3484 42.3489 27.3261C42.5391 27.3082 42.7154 27.2191 42.8426 27.0767C42.9698 26.9343 43.0385 26.749 43.0349 26.558C43.0469 26.3727 42.9893 26.1896 42.8733 26.0446C42.7573 25.8996 42.5913 25.8031 42.4079 25.7741C42.2198 25.7386 42.0282 25.7242 41.8369 25.7311H39.1539H32.0469Z" fill="#17598d"/>
<path d="M33.9142 48.3913C32.5072 49.3713 31.4972 49.1813 29.7142 47.6003C28.9901 48.6171 27.9696 49.3855 26.7922 49.8004C26.6798 49.8615 26.556 49.8989 26.4285 49.9101C26.3011 49.9213 26.1727 49.9062 26.0513 49.8657C25.9299 49.8252 25.8182 49.7602 25.723 49.6746C25.6278 49.5891 25.5512 49.485 25.498 49.3686C25.4448 49.2522 25.4161 49.1262 25.4137 48.9982C25.4113 48.8703 25.4353 48.7432 25.4841 48.6249C25.5328 48.5067 25.6054 48.3997 25.6973 48.3106C25.7892 48.2216 25.8984 48.1524 26.0182 48.1074C26.4702 47.8734 26.9262 47.6434 27.3552 47.3724C27.6878 47.1602 27.9627 46.8691 28.1557 46.5251C28.3486 46.1811 28.4536 45.7947 28.4612 45.4003C28.5082 44.7353 28.7612 44.4004 29.2512 44.3214C29.7162 44.2454 30.0882 44.5083 30.3382 45.1213C30.6355 45.8736 31.1656 46.5111 31.8512 46.9404C32.3842 47.2744 32.6022 47.1833 32.6982 46.5833C32.7076 46.3809 32.7843 46.1875 32.9162 46.0336C33.0481 45.8798 33.2276 45.7745 33.4262 45.7343C33.6418 45.6966 33.8639 45.7287 34.0599 45.826C34.256 45.9233 34.4159 46.0808 34.5162 46.2753C34.7485 46.6115 35.0768 46.8697 35.4582 47.0163C36.982 47.5257 38.5756 47.7956 40.1822 47.8164C40.3182 47.7955 40.4571 47.804 40.5896 47.8414C40.722 47.8787 40.8449 47.944 40.9499 48.0329C41.0549 48.1218 41.1396 48.2323 41.1983 48.3568C41.257 48.4812 41.2884 48.6168 41.2902 48.7543C41.2902 49.3083 40.8492 49.6664 40.1642 49.6744C38.0175 49.6545 35.8951 49.2187 33.9142 48.3913Z" fill="#17598d"/>
<path d="M26.2982 50.0196C26.1228 50.0223 25.95 49.9772 25.7984 49.8891C25.6467 49.801 25.5218 49.6732 25.4372 49.5196C25.3623 49.4021 25.3127 49.2703 25.2917 49.1325C25.2707 48.9947 25.2787 48.8541 25.3152 48.7197C25.367 48.5597 25.451 48.4122 25.5622 48.2861C25.6733 48.16 25.8091 48.058 25.9613 47.9866L26.0893 47.9216C26.4893 47.7146 26.9052 47.5016 27.2892 47.2576C27.6066 47.0576 27.8689 46.7814 28.0521 46.454C28.2354 46.1267 28.3337 45.7587 28.3382 45.3836C28.3892 44.6606 28.6742 44.2836 29.2382 44.1896C29.6062 44.1306 30.1203 44.2316 30.4603 45.0606C30.749 45.7884 31.2621 46.4052 31.9253 46.8216C32.1553 46.9666 32.3143 47.0216 32.4003 46.9826C32.4863 46.9436 32.5422 46.8016 32.5832 46.5516C32.5957 46.3238 32.6835 46.1068 32.8328 45.9345C32.9822 45.7622 33.1846 45.6444 33.4083 45.5997C33.6471 45.5562 33.8935 45.5898 34.1121 45.6955C34.3306 45.8012 34.51 45.9735 34.6243 46.1877C34.8381 46.5049 35.1437 46.7491 35.5002 46.8876C36.9513 47.3678 38.4637 47.6372 39.9913 47.6877C40.0673 47.6877 40.1453 47.6877 40.2243 47.6877C40.5556 47.675 40.8787 47.7928 41.1243 48.0157C41.2207 48.1117 41.2965 48.2264 41.3471 48.3528C41.3976 48.4792 41.4219 48.6146 41.4183 48.7507C41.4183 49.3757 40.9243 49.7856 40.1673 49.7946H40.0402C37.9416 49.7616 35.8679 49.3341 33.9272 48.5346C32.5272 49.4896 31.4842 49.3057 29.7382 47.7867C29.0031 48.7663 27.9938 49.5058 26.8382 49.9117C26.6665 49.9809 26.4834 50.0174 26.2982 50.0196ZM29.3982 44.4277C29.3551 44.428 29.312 44.4314 29.2692 44.4377C28.8302 44.5107 28.6252 44.7986 28.5832 45.4026C28.5741 45.8164 28.463 46.2216 28.26 46.5823C28.057 46.943 27.7682 47.2481 27.4192 47.4706C27.0262 47.7206 26.6062 47.9356 26.1992 48.1446L26.0733 48.2116C25.9514 48.2672 25.8422 48.3472 25.7524 48.4466C25.6626 48.546 25.5941 48.6627 25.5513 48.7896C25.5253 48.8911 25.5208 48.9968 25.538 49.1001C25.5553 49.2035 25.5938 49.302 25.6512 49.3896C25.7633 49.5689 25.94 49.6982 26.1447 49.7509C26.3494 49.8036 26.5666 49.7756 26.7512 49.6727C27.9052 49.2688 28.906 48.5178 29.6163 47.5226L29.6962 47.4067L29.7963 47.5007C31.5373 49.0447 32.4822 49.2287 33.8412 48.2817L33.9012 48.2397L33.9662 48.2717C35.8943 49.071 37.9555 49.5004 40.0423 49.5376H40.1602C40.7782 49.5306 41.1602 49.2256 41.1602 48.7376C41.1633 48.6351 41.1455 48.533 41.1078 48.4376C41.0702 48.3421 41.0135 48.2555 40.9412 48.1827C40.7412 48.0051 40.4794 47.9131 40.2122 47.9266H39.9783C38.4273 47.8764 36.8916 47.6037 35.4183 47.1166C35.0102 46.9626 34.6586 46.6881 34.4102 46.3296C34.1352 45.9606 33.8743 45.7536 33.4473 45.8366C33.2732 45.8714 33.1161 45.9642 33.0016 46.0999C32.8872 46.2356 32.8222 46.4062 32.8172 46.5837C32.7792 46.8207 32.7073 47.1056 32.4903 47.2046C32.2733 47.3036 31.9963 47.1627 31.7803 47.0267C31.0728 46.5835 30.5255 45.9257 30.2182 45.1496C30.0242 44.6726 29.7482 44.4277 29.4022 44.4277H29.3982Z" fill="#17598d"/>
<path d="M32.923 38.7063C35.038 38.7063 37.154 38.7063 39.269 38.7063C39.924 38.7063 40.299 39.0133 40.34 39.5503C40.355 39.6827 40.3408 39.8167 40.2985 39.9431C40.2561 40.0694 40.1866 40.1851 40.0948 40.2817C40.0031 40.3783 39.8913 40.4537 39.7673 40.5025C39.6432 40.5513 39.51 40.5723 39.377 40.5642C38.777 40.5832 38.177 40.5692 37.577 40.5692C33.9297 40.5692 30.2824 40.5672 26.635 40.5632C26.3647 40.5716 26.0963 40.5154 25.852 40.3993C25.6698 40.306 25.5287 40.1483 25.456 39.9569C25.3834 39.7655 25.3845 39.5539 25.459 39.3632C25.5158 39.1583 25.643 38.9798 25.8181 38.8591C25.9932 38.7384 26.2053 38.6833 26.417 38.7032C27.8584 38.7032 29.299 38.7032 30.739 38.7032L32.923 38.7063Z" fill="#17598d"/>
<path d="M38.6232 40.7018C38.4472 40.7018 38.2712 40.7018 38.0982 40.7018H37.5722H35.5212C32.5572 40.7018 29.5935 40.6994 26.6302 40.6947C26.3391 40.7026 26.0503 40.6417 25.7872 40.5168C25.5788 40.4105 25.4172 40.2308 25.3337 40.0123C25.2502 39.7937 25.2508 39.5519 25.3352 39.3338C25.399 39.1033 25.5414 38.9023 25.7377 38.7657C25.934 38.6291 26.1719 38.5654 26.4102 38.5857C27.4402 38.5857 28.4692 38.5857 29.4972 38.5857H34.6522C36.1902 38.5857 37.7286 38.5857 39.2672 38.5857C39.9812 38.5857 40.4162 38.9368 40.4672 39.5458C40.4828 39.688 40.4687 39.8319 40.4258 39.9684C40.383 40.1049 40.3123 40.231 40.2182 40.3388C40.111 40.4522 39.9814 40.5423 39.8377 40.6032C39.694 40.6641 39.5393 40.6946 39.3832 40.6928C39.1292 40.6988 38.8752 40.7018 38.6232 40.7018ZM37.5722 40.4468H38.1002C38.5192 40.4518 38.9502 40.4528 39.3732 40.4388C39.4955 40.4413 39.617 40.4186 39.73 40.372C39.8431 40.3254 39.9453 40.2558 40.0302 40.1678C40.1014 40.0849 40.1546 39.9882 40.1864 39.8837C40.2183 39.7792 40.2281 39.6693 40.2152 39.5608C40.1692 38.9608 39.6752 38.8328 39.2692 38.8318C37.7312 38.8318 36.1962 38.8318 34.6542 38.8318H29.4992C28.4712 38.8318 27.4422 38.8318 26.4122 38.8318C26.2277 38.8129 26.0425 38.8599 25.8894 38.9646C25.7364 39.0694 25.6254 39.2249 25.5762 39.4037C25.5096 39.5668 25.5068 39.749 25.5685 39.914C25.6303 40.0789 25.7519 40.2145 25.9092 40.2937C26.1357 40.3978 26.3831 40.4482 26.6322 40.4408C29.5955 40.4488 32.5592 40.4511 35.5232 40.4478L37.5722 40.4468Z" fill="#17598d"/>
<path d="M32.9162 34.97C35.0312 34.97 37.1472 34.97 39.2622 34.97C39.4809 34.9397 39.7033 34.9855 39.8923 35.0997C40.0812 35.2138 40.2253 35.3895 40.3002 35.5971C40.344 35.7133 40.363 35.8373 40.356 35.9613C40.3491 36.0852 40.3163 36.2063 40.2598 36.3169C40.2033 36.4274 40.1244 36.5249 40.028 36.6031C39.9316 36.6813 39.82 36.7385 39.7002 36.7711C39.4891 36.824 39.2716 36.8466 39.0542 36.8381C34.9329 36.8421 30.8115 36.8421 26.6902 36.8381C26.5812 36.8381 26.4712 36.8431 26.3622 36.8381C26.2341 36.8391 26.1073 36.8139 25.9893 36.7641C25.8713 36.7143 25.7647 36.6411 25.6761 36.5487C25.5874 36.4563 25.5185 36.3467 25.4737 36.2268C25.4288 36.1068 25.4089 35.979 25.4152 35.8512C25.4184 35.7274 25.4472 35.6055 25.4996 35.4934C25.5521 35.3812 25.6271 35.281 25.72 35.1992C25.813 35.1173 25.9217 35.0555 26.0396 35.0177C26.1575 34.9798 26.282 34.9667 26.4052 34.9791C28.5762 34.9651 30.7462 34.971 32.9162 34.97Z" fill="#17598d"/>
<path d="M26.52 36.9622C26.464 36.9622 26.409 36.9622 26.354 36.9572C26.21 36.9561 26.0677 36.9261 25.9355 36.8688C25.8034 36.8116 25.6841 36.7283 25.5848 36.6239C25.4855 36.5196 25.4082 36.3963 25.3576 36.2615C25.307 36.1267 25.284 35.9832 25.29 35.8393C25.2942 35.6996 25.327 35.5623 25.3862 35.4357C25.4454 35.3092 25.5298 35.196 25.6343 35.1033C25.7389 35.0106 25.8612 34.9402 25.9939 34.8965C26.1266 34.8528 26.2669 34.8367 26.406 34.8492C27.924 34.8432 29.444 34.8442 30.963 34.8442H34.679C36.206 34.8442 37.734 34.8442 39.262 34.8442H39.271C39.5144 34.8139 39.7608 34.8678 39.9693 34.997C40.1778 35.1262 40.3358 35.3228 40.417 35.5542C40.4661 35.6855 40.4876 35.8255 40.48 35.9654C40.4724 36.1053 40.436 36.2421 40.373 36.3672C40.3084 36.493 40.2187 36.6041 40.1095 36.6939C40.0003 36.7837 39.8739 36.8501 39.738 36.8892C39.515 36.9457 39.285 36.97 39.055 36.9612C35.6217 36.9652 32.1883 36.9652 28.755 36.9612L26.52 36.9622ZM29.662 35.0932C28.5774 35.0932 27.4923 35.0952 26.407 35.0992C26.2999 35.0874 26.1915 35.0979 26.0886 35.13C25.9857 35.1622 25.8906 35.2152 25.8092 35.2858C25.7278 35.3564 25.6619 35.443 25.6155 35.5403C25.5692 35.6376 25.5435 35.7435 25.54 35.8512C25.5352 35.9631 25.5534 36.0747 25.5933 36.1792C25.6332 36.2838 25.6941 36.3791 25.7722 36.4593C25.8503 36.5394 25.944 36.6028 26.0475 36.6454C26.151 36.6881 26.2621 36.7091 26.374 36.7072C26.449 36.7132 26.527 36.7072 26.604 36.7122H28.752C32.186 36.7122 35.6193 36.7122 39.052 36.7122C39.2573 36.7208 39.4628 36.6996 39.662 36.6492C39.7656 36.6202 39.8622 36.5702 39.9458 36.5025C40.0294 36.4347 40.0982 36.3505 40.148 36.2552C40.1949 36.16 40.2218 36.0564 40.2272 35.9505C40.2325 35.8445 40.2161 35.7386 40.179 35.6392C40.1146 35.4566 39.9884 35.3024 39.8222 35.203C39.656 35.1037 39.4603 35.0656 39.269 35.0953H39.26C37.731 35.1013 36.203 35.0953 34.676 35.0953H29.659L29.662 35.0932Z" fill="#17598d"/>
<path d="M32.915 31.2288C35.015 31.2288 37.108 31.2288 39.205 31.2288C39.4326 31.1904 39.6666 31.232 39.8671 31.3464C40.0676 31.4609 40.2223 31.6412 40.305 31.8568C40.3494 31.9773 40.3675 32.1059 40.3581 32.234C40.3487 32.3621 40.3119 32.4868 40.2504 32.5995C40.1888 32.7122 40.1038 32.8104 40.0011 32.8876C39.8984 32.9647 39.7804 33.019 39.655 33.0468C39.4416 33.0904 39.2237 33.1086 39.006 33.1008C34.9213 33.1008 30.837 33.1008 26.753 33.1008C26.625 33.1008 26.497 33.1068 26.37 33.0958C26.2419 33.0972 26.1148 33.0724 25.9966 33.023C25.8784 32.9735 25.7716 32.9003 25.6826 32.8081C25.5937 32.7159 25.5245 32.6065 25.4793 32.4866C25.4342 32.3667 25.414 32.2388 25.42 32.1108C25.4231 31.987 25.4517 31.8651 25.5041 31.7528C25.5565 31.6405 25.6315 31.5402 25.7245 31.4583C25.8174 31.3763 25.9263 31.3144 26.0442 31.2765C26.1622 31.2386 26.2867 31.2254 26.41 31.2378C27.577 31.2218 28.744 31.2318 29.91 31.2318L32.915 31.2288Z" fill="#17598d"/>
<path d="M26.5582 33.2265C26.4914 33.2272 26.4246 33.2245 26.3581 33.2185C26.2141 33.2185 26.0715 33.1893 25.939 33.1326C25.8065 33.076 25.687 32.993 25.5875 32.8887C25.488 32.7845 25.4107 32.6612 25.3603 32.5262C25.3099 32.3912 25.2874 32.2474 25.2941 32.1035C25.2974 31.9636 25.3294 31.8258 25.3881 31.6988C25.4468 31.5718 25.531 31.4582 25.6355 31.3651C25.74 31.2719 25.8625 31.2012 25.9954 31.1574C26.1283 31.1136 26.2688 31.0976 26.4082 31.1104C27.2572 31.0994 28.1081 31.1015 28.9571 31.1035H34.6651C36.1791 31.1035 37.6942 31.1035 39.2092 31.1035H39.2222C39.4728 31.0704 39.7273 31.1223 39.9448 31.2511C40.1624 31.3798 40.3305 31.5778 40.4222 31.8134C40.4724 31.9485 40.4934 32.0927 40.4839 32.2364C40.4744 32.3801 40.4346 32.5201 40.3671 32.6474C40.2966 32.7772 40.1993 32.8906 40.0817 32.9801C39.9642 33.0695 39.829 33.133 39.6852 33.1665C39.4613 33.2133 39.2327 33.2327 39.0042 33.2244C35.7375 33.2244 32.4708 33.2244 29.2041 33.2244H26.5632L26.5582 33.2265ZM27.9961 31.3525C27.4671 31.3525 26.9372 31.3524 26.4082 31.3604C26.3007 31.3482 26.1918 31.3585 26.0885 31.3906C25.9851 31.4227 25.8896 31.4759 25.808 31.547C25.7264 31.618 25.6604 31.7052 25.6143 31.8031C25.5682 31.9009 25.5429 32.0073 25.5401 32.1154C25.535 32.2275 25.553 32.3394 25.593 32.4442C25.633 32.549 25.694 32.6444 25.7724 32.7246C25.8508 32.8047 25.9449 32.8679 26.0488 32.9102C26.1526 32.9525 26.264 32.973 26.3761 32.9704C26.4671 32.9784 26.5581 32.9765 26.6511 32.9765H29.1991C32.4658 32.9765 35.7325 32.9765 38.9992 32.9765C39.2071 32.9842 39.4152 32.9674 39.6192 32.9265C39.7291 32.9012 39.8324 32.8529 39.9224 32.7849C40.0124 32.7168 40.0869 32.6304 40.1412 32.5315C40.1919 32.4348 40.2217 32.3286 40.2286 32.2197C40.2355 32.1108 40.2193 32.0017 40.1811 31.8995C40.0431 31.5135 39.7631 31.3554 39.2161 31.3554H39.2052C37.6902 31.3604 36.1761 31.3554 34.6601 31.3554H28.9512L27.9961 31.3525Z" fill="#17598d"/>
<path d="M55.303 41.4967C53.8235 41.4942 52.378 41.0526 51.1498 40.2277C49.9216 39.4028 48.9659 38.2318 48.404 36.8631C47.8421 35.4944 47.6992 33.9897 47.9935 32.5397C48.2878 31.0898 49.006 29.7598 50.057 28.7185C51.108 27.6771 52.4445 26.9713 53.8972 26.6905C55.3498 26.4097 56.8531 26.5665 58.2165 27.1411C59.5799 27.7156 60.7421 28.6821 61.5556 29.9179C62.3691 31.1537 62.7973 32.6032 62.786 34.0827C62.7749 36.0576 61.9808 37.9473 60.5779 39.3372C59.175 40.7272 57.2779 41.5038 55.303 41.4967ZM55.303 39.6217C56.4109 39.625 57.4949 39.2997 58.4179 38.6868C59.3408 38.0739 60.0613 37.201 60.488 36.1785C60.9147 35.1561 61.0286 34.0301 60.8151 32.9429C60.6017 31.8558 60.0706 30.8563 59.289 30.0711C58.5074 29.2859 57.5105 28.7502 56.4243 28.5317C55.3381 28.3132 54.2116 28.4219 53.1872 28.8438C52.1628 29.2658 51.2865 29.9821 50.6694 30.9022C50.0522 31.8223 49.7218 32.9047 49.72 34.0126C49.7163 34.7482 49.8581 35.4774 50.1372 36.158C50.4162 36.8386 50.8271 37.4573 51.3461 37.9786C51.8652 38.4999 52.4821 38.9134 53.1615 39.1954C53.841 39.4774 54.5694 39.6222 55.305 39.6217H55.303Z" fill="#17598d"/>
<path d="M55.3331 41.6207H55.302C53.2869 41.6106 51.358 40.8021 49.9381 39.3722C48.5182 37.9424 47.7231 36.0078 47.7271 33.9927C47.7285 32.9968 47.9263 32.0109 48.3092 31.0916C48.6922 30.1722 49.2526 29.3374 49.9585 28.6349C50.6644 27.9324 51.502 27.3761 52.4232 26.9977C53.3444 26.6193 54.3312 26.4263 55.3271 26.4297H55.3601C56.359 26.4336 57.3473 26.635 58.2681 27.0223C59.1889 27.4096 60.024 27.9751 60.7254 28.6863C61.4268 29.3976 61.9807 30.2406 62.3551 31.1667C62.7295 32.0928 62.9171 33.0838 62.9071 34.0827C62.8941 36.0841 62.0909 37.9994 60.6723 39.4113C59.2536 40.8232 57.3345 41.6173 55.3331 41.6207ZM55.3331 26.6797C53.3849 26.6762 51.5151 27.4466 50.1351 28.8216C48.755 30.1966 47.9777 32.0635 47.9741 34.0116C47.9705 35.9598 48.7409 37.8296 50.116 39.2096C51.491 40.5897 53.3579 41.3671 55.306 41.3707H55.3351C56.7844 41.3657 58.2 40.9327 59.404 40.1259C60.608 39.3191 61.5468 38.1744 62.1023 36.8357C62.6579 35.4971 62.8056 34.0241 62.5267 32.6019C62.2479 31.1796 61.555 29.8715 60.535 28.8417C59.8595 28.1571 59.0547 27.6134 58.1674 27.2422C57.2801 26.8711 56.3279 26.6799 55.3661 26.6797H55.3331ZM55.328 39.7457H55.3071C53.7887 39.7433 52.3335 39.1379 51.2615 38.0625C50.1896 36.9872 49.5887 35.53 49.591 34.0116C49.5934 32.4933 50.1989 31.0381 51.2742 29.9661C52.3496 28.8942 53.8067 28.2933 55.3251 28.2957H55.3351C56.0869 28.2962 56.8312 28.4447 57.5257 28.7328C58.2201 29.021 58.8509 29.4431 59.3822 29.975C59.9135 30.507 60.3348 31.1383 60.6221 31.8331C60.9094 32.5278 61.057 33.2724 61.0566 34.0242C61.0561 34.776 60.9076 35.5204 60.6194 36.2148C60.3313 36.9092 59.9092 37.54 59.3773 38.0713C58.8453 38.6026 58.2139 39.0239 57.5192 39.3112C56.8244 39.5985 56.0799 39.7461 55.328 39.7457ZM55.328 28.5457C53.8781 28.5478 52.488 29.124 51.4618 30.1484C50.4356 31.1727 49.8568 32.5617 49.8521 34.0116C49.8431 34.7321 49.978 35.4471 50.2488 36.1148C50.5196 36.7825 50.9209 37.3894 51.4292 37.9001C51.9374 38.4108 52.5425 38.8149 53.2088 39.0889C53.8752 39.3629 54.5896 39.5012 55.3101 39.4957H55.3311C56.0501 39.4961 56.7621 39.355 57.4265 39.0802C58.091 38.8055 58.6948 38.4027 59.2035 37.8946C59.7122 37.3865 60.1159 36.7831 60.3915 36.1191C60.667 35.455 60.8091 34.7432 60.8096 34.0242C60.81 33.3052 60.6689 32.5932 60.3941 31.9288C60.1194 31.2643 59.7165 30.6605 59.2085 30.1518C58.7004 29.6431 58.0971 29.2394 57.433 28.9638C56.7689 28.6882 56.057 28.5462 55.3381 28.5457H55.328Z" fill="#17598d"/>
<path d="M44.8387 84.7641C35.8801 84.758 27.1539 81.9134 19.9128 76.6386C12.6718 71.3638 7.28843 63.93 4.53571 55.4048C1.78299 46.8796 1.80249 37.7013 4.59143 29.1879C7.38037 20.6745 12.7952 13.2638 20.0587 8.0198C27.3221 2.77581 36.0604 -0.0317774 45.019 0.000271354C53.9775 0.0323201 62.6955 2.90232 69.9212 8.19815C77.1469 13.494 82.5087 20.9433 85.2366 29.4765C87.9646 38.0096 87.9184 47.1877 85.1048 55.693C82.3266 64.1722 76.9331 71.5531 69.6989 76.776C62.4646 81.999 53.7614 84.7955 44.8387 84.7641ZM44.8318 1.98001C34.6665 1.97116 24.8708 5.7912 17.3951 12.6793C9.91946 19.5675 5.31224 29.0185 4.49085 39.1505C3.66945 49.2826 6.69412 59.3523 12.9626 67.3546C19.2312 75.357 28.2836 80.705 38.3176 82.3336C48.3515 83.9623 58.6308 81.7522 67.1086 76.1435C75.5865 70.5347 81.641 61.9387 84.0665 52.067C86.4921 42.1954 85.1108 31.7723 80.1976 22.8732C75.2845 13.9741 67.1999 7.25196 57.5538 4.04507C53.452 2.67564 49.1561 1.97702 44.8318 1.9761V1.98001Z" fill="#17598d"/>
<path d="M3.39451 42.7978C4.99338 42.7978 6.28951 41.5017 6.28951 39.9028C6.28951 38.3039 4.99338 37.0078 3.39451 37.0078C1.79565 37.0078 0.499512 38.3039 0.499512 39.9028C0.499512 41.5017 1.79565 42.7978 3.39451 42.7978Z" fill="#17598d"/>
<path d="M3.39261 43.3018C2.67505 43.3013 1.9761 43.0734 1.39609 42.6509C0.816086 42.2284 0.384884 41.633 0.164341 40.9502C-0.0562016 40.2674 -0.0547448 39.5322 0.168553 38.8502C0.39185 38.1683 0.825493 37.5747 1.4072 37.1546C1.98891 36.7344 2.68878 36.5093 3.40635 36.5117C4.12391 36.5141 4.82227 36.7438 5.40116 37.1679C5.98005 37.5919 6.40965 38.1884 6.62839 38.8718C6.84713 39.5553 6.84372 40.2904 6.61863 40.9717C6.39383 41.6497 5.96119 42.2397 5.38211 42.658C4.80304 43.0762 4.10693 43.3015 3.39261 43.3018ZM3.39261 37.5087C2.95024 37.5083 2.51635 37.6303 2.13889 37.861C1.76143 38.0917 1.45511 38.4222 1.2537 38.8161C1.05228 39.2099 0.963663 39.6517 0.997593 40.0928C1.03152 40.5339 1.18667 40.957 1.44596 41.3154C1.70524 41.6739 2.05853 41.9537 2.46683 42.1239C2.87513 42.2942 3.32257 42.3482 3.75968 42.2802C4.19679 42.2121 4.60659 42.0246 4.94382 41.7383C5.28105 41.452 5.53257 41.078 5.67063 40.6577C5.7694 40.3591 5.80835 40.0439 5.78531 39.7302C5.76228 39.4166 5.67768 39.1105 5.53635 38.8295C5.39502 38.5485 5.19975 38.2981 4.96164 38.0925C4.72353 37.887 4.44729 37.7305 4.14865 37.6317C3.90423 37.5503 3.64823 37.5087 3.3906 37.5087H3.39261Z" fill="#17598d"/>
<path d="M74.5112 16.0478C76.1101 16.0478 77.4062 14.7517 77.4062 13.1528C77.4062 11.5539 76.1101 10.2578 74.5112 10.2578C72.9123 10.2578 71.6162 11.5539 71.6162 13.1528C71.6162 14.7517 72.9123 16.0478 74.5112 16.0478Z" fill="#17598d"/>
<path d="M74.5095 16.5479C73.7919 16.5473 73.0929 16.3193 72.513 15.8967C71.933 15.4742 71.5018 14.8787 71.2813 14.1958C71.0609 13.5129 71.0625 12.7778 71.286 12.0958C71.5094 11.4139 71.9431 10.8203 72.5249 10.4003C73.1067 9.98025 73.8067 9.75527 74.5243 9.75783C75.2419 9.7604 75.9402 9.99027 76.519 10.4145C77.0978 10.8386 77.5273 11.4354 77.7459 12.1189C77.9644 12.8024 77.9608 13.5376 77.7355 14.2189C77.5105 14.8967 77.0778 15.4865 76.4987 15.9046C75.9197 16.3226 75.2237 16.5477 74.5095 16.5479ZM74.5095 10.7549C74.0671 10.7545 73.6332 10.8764 73.2558 11.1071C72.8783 11.3378 72.572 11.6683 72.3706 12.0622C72.1691 12.456 72.0805 12.8978 72.1144 13.3389C72.1483 13.78 72.3035 14.2031 72.5628 14.5615C72.8221 14.92 73.1754 15.1998 73.5837 15.37C73.992 15.5403 74.4394 15.5943 74.8765 15.5263C75.3137 15.4582 75.7235 15.2707 76.0607 14.9844C76.3979 14.6981 76.6494 14.3241 76.7875 13.9038C76.9058 13.5436 76.9371 13.1604 76.8788 12.7857C76.8205 12.411 76.6742 12.0554 76.4519 11.7482C76.2297 11.4409 75.9377 11.1907 75.6001 11.0181C75.2624 10.8454 74.8887 10.7552 74.5095 10.7549Z" fill="#17598d"/>
<path d="M59.8515 83.6025C61.4504 83.6025 62.7465 82.3064 62.7465 80.7075C62.7465 79.1086 61.4504 77.8125 59.8515 77.8125C58.2527 77.8125 56.9565 79.1086 56.9565 80.7075C56.9565 82.3064 58.2527 83.6025 59.8515 83.6025Z" fill="#17598d"/>
<path d="M59.8496 84.1046C59.3551 84.1083 58.8658 84.0041 58.4158 83.7992C57.9657 83.5943 57.5657 83.2938 57.2438 82.9185C56.9218 82.5432 56.6856 82.1022 56.5516 81.6262C56.4175 81.1503 56.389 80.6508 56.4678 80.1626C56.5467 79.6744 56.731 79.2094 57.008 78.7998C57.2851 78.3902 57.6481 78.046 58.0719 77.7911C58.4956 77.5363 58.9698 77.3769 59.4615 77.3241C59.9531 77.2713 60.4504 77.3265 60.9186 77.4856C61.773 77.7695 62.4799 78.3808 62.8843 79.1852C63.2886 79.9896 63.3574 80.9215 63.0755 81.7766C62.8504 82.4543 62.4177 83.0438 61.8386 83.4617C61.2596 83.8795 60.5637 84.1045 59.8496 84.1046ZM59.8496 78.3126C59.4072 78.3121 58.9733 78.4339 58.5958 78.6644C58.2183 78.895 57.9118 79.2255 57.7103 79.6193C57.5088 80.013 57.42 80.4548 57.4538 80.8959C57.4876 81.3369 57.6426 81.7602 57.9017 82.1187C58.1609 82.4772 58.5141 82.757 58.9223 82.9274C59.3305 83.0978 59.7779 83.1521 60.215 83.0842C60.6521 83.0164 61.062 82.829 61.3993 82.5428C61.7367 82.2567 61.9883 81.8829 62.1266 81.4626C62.2451 81.1024 62.2766 80.7191 62.2184 80.3444C62.1602 79.9696 62.014 79.614 61.7918 79.3066C61.5696 78.9993 61.2778 78.749 60.9402 78.5762C60.6026 78.4034 60.2288 78.3131 59.8496 78.3126Z" fill="#17598d"/>
</svg>
