<svg width="131" height="134" viewBox="0 0 131 134" fill="none" xmlns="http://www.w3.org/2000/svg">
<path d="M127.123 44.5299C128.19 43.8671 128.985 42.8455 129.366 41.6488C129.746 40.4521 129.687 39.1587 129.2 38.0015C128.712 36.8444 127.827 35.8993 126.705 35.3363C125.582 34.7732 124.296 34.6292 123.076 34.93C118.088 25.4338 110.837 17.3126 101.965 11.2847C93.092 5.25686 82.8708 1.50771 72.2048 0.368976C61.5388 -0.769759 50.7566 0.736881 40.8112 4.7557C30.8659 8.77451 22.064 15.1818 15.1834 23.411C12.6708 26.4285 10.4326 29.6643 8.49544 33.0799C7.33119 32.8307 6.11695 32.9786 5.04671 33.5003C3.97647 34.022 3.11185 34.8874 2.59102 35.9581C2.07019 37.0288 1.92322 38.243 2.17342 39.4071C2.42362 40.5711 3.05662 41.6179 3.97139 42.38C4.01139 42.413 4.05637 42.4368 4.09737 42.4688C0.578058 51.9207 -0.700098 62.0603 0.363484 72.0899C1.42707 82.1195 4.80337 91.7658 10.2268 100.269C15.6502 108.773 22.9727 115.902 31.6184 121.096C40.264 126.29 49.9969 129.407 60.0513 130.202C60.3641 131.107 60.9172 131.911 61.6514 132.526C62.1899 132.976 62.8116 133.315 63.4812 133.524C64.1507 133.733 64.8549 133.808 65.5536 133.745C66.2522 133.682 66.9317 133.482 67.5529 133.156C68.1742 132.831 68.7252 132.386 69.1744 131.847C69.5707 131.365 69.8778 130.816 70.0814 130.226C73.7451 129.95 77.3796 129.371 80.9473 128.493C96.0745 124.765 109.364 115.736 118.403 103.046C127.442 90.3568 131.632 74.8469 130.212 59.3319C129.754 54.2957 128.718 49.3289 127.123 44.5299Z" fill="white"/>
<path d="M127.123 44.5299C128.19 43.8671 128.985 42.8455 129.366 41.6488C129.746 40.4521 129.687 39.1587 129.2 38.0015C128.712 36.8444 127.827 35.8993 126.705 35.3363C125.582 34.7732 124.296 34.6292 123.076 34.93C118.088 25.4338 110.837 17.3126 101.965 11.2847C93.092 5.25686 82.8708 1.50771 72.2048 0.368976C61.5388 -0.769759 50.7566 0.736881 40.8112 4.7557C30.8659 8.77451 22.064 15.1818 15.1834 23.411C12.6708 26.4285 10.4326 29.6643 8.49544 33.0799C7.33119 32.8307 6.11695 32.9786 5.04671 33.5003C3.97647 34.022 3.11185 34.8874 2.59102 35.9581C2.07019 37.0288 1.92322 38.243 2.17342 39.4071C2.42362 40.5711 3.05662 41.6179 3.97139 42.38C4.01139 42.413 4.05637 42.4368 4.09737 42.4688C0.578058 51.9207 -0.700098 62.0603 0.363484 72.0899C1.42707 82.1195 4.80337 91.7658 10.2268 100.269C15.6502 108.773 22.9727 115.902 31.6184 121.096C40.264 126.29 49.9969 129.407 60.0513 130.202C60.3641 131.107 60.9172 131.911 61.6514 132.526C62.1899 132.976 62.8116 133.315 63.4812 133.524C64.1507 133.733 64.8549 133.808 65.5536 133.745C66.2522 133.682 66.9317 133.482 67.5529 133.156C68.1742 132.831 68.7252 132.386 69.1744 131.847C69.5707 131.365 69.8778 130.816 70.0814 130.226C73.7451 129.95 77.3796 129.371 80.9473 128.493C96.0745 124.765 109.364 115.736 118.403 103.046C127.442 90.3568 131.632 74.8469 130.212 59.3319C129.754 54.2957 128.718 49.3289 127.123 44.5299ZM68.4914 124.33C67.8144 123.765 67.0079 123.376 66.1439 123.198C65.2799 123.02 64.3853 123.06 63.5401 123.312C62.695 123.565 61.9255 124.022 61.3005 124.645C60.6755 125.267 60.2144 126.035 59.9585 126.879C50.4551 126.055 41.2704 123.047 33.1202 118.091C24.9699 113.134 18.0743 106.363 12.9704 98.304C7.86658 90.2453 4.6924 81.117 3.69539 71.6302C2.69838 62.1435 3.90541 52.5546 7.22237 43.6109C7.27837 43.6109 7.33444 43.6268 7.39144 43.6268C7.55144 43.6268 7.7124 43.6188 7.8724 43.6038C8.85802 43.5192 9.80051 43.1615 10.594 42.5706C11.3874 41.9798 12.0004 41.1794 12.364 40.2594C12.7276 39.3393 12.8273 38.3362 12.6522 37.3626C12.477 36.389 12.0339 35.4835 11.3724 34.7479C13.2139 31.4975 15.3427 28.4186 17.7334 25.5479C26.1485 15.4145 37.6009 8.25742 50.3974 5.13485C55.2974 3.92386 60.3259 3.31018 65.3734 3.30696C76.6717 3.33073 87.7489 6.44018 97.409 12.2999C107.069 18.1596 114.945 26.5469 120.186 36.556C120.13 36.618 120.063 36.6658 120.01 36.7298C119.561 37.2683 119.222 37.8902 119.013 38.5597C118.804 39.2291 118.728 39.9333 118.791 40.6319C118.854 41.3305 119.054 42.0096 119.38 42.6309C119.705 43.2522 120.15 43.8036 120.688 44.253C121.606 45.0277 122.764 45.4613 123.964 45.4808C125.499 50.0692 126.494 54.8206 126.931 59.639C128.408 75.9919 123.328 92.2615 112.809 104.869C102.29 117.476 87.1933 125.389 70.8404 126.866C70.6204 126.886 70.4024 126.892 70.1834 126.909C69.8872 125.901 69.2983 125.003 68.4914 124.33Z" fill="#17598d"/>
<path d="M76.2807 76.4727H51.9727V79.1517H76.2807V76.4727Z" fill="#17598d" stroke="#17598d" stroke-width="0.5"/>
<path d="M76.3242 67.0205C76.3412 66.1505 76.3392 65.2874 76.3372 64.3774V64.2773H51.9521V67.0125H76.1572C76.2082 67.0135 76.2672 67.0165 76.3242 67.0205Z" fill="#17598d" stroke="#17598d" stroke-width="0.5"/>
<path d="M76.3301 91.1212C76.3171 90.3022 76.3051 89.5293 76.3621 88.7323C76.3671 88.6613 76.368 88.6064 76.368 88.5634C76.2813 88.5551 76.1941 88.5527 76.1071 88.5563C69.8201 88.5803 63.3181 88.5773 57.5811 88.5753H51.9551V91.3322H76.3341L76.3301 91.1212Z" fill="#17598d" stroke="#17598d" stroke-width="0.5"/>
<path d="M89.108 32.5898L82.196 41.9758L79.691 39.1169L77.8711 40.9739L82.7911 45.874L91.342 34.2349L89.108 32.5898Z" fill="#17598d" stroke="#17598d" stroke-width="0.5"/>
<path d="M101.465 35.7871C100.959 32.2999 99.3983 29.051 96.9922 26.4766C94.5861 23.9022 91.45 22.1255 88.0049 21.3853C84.5598 20.6451 80.9706 20.9766 77.7194 22.3355C74.4682 23.6944 71.7107 26.0154 69.817 28.9871C69.5923 29.3916 69.2587 29.7251 68.8541 29.9497C68.4496 30.1744 67.9901 30.2812 67.528 30.2581C59.343 30.2371 50.907 30.2392 43.465 30.2412H37V104.598H91.3099V96.1983C91.3099 82.9703 91.31 69.2912 91.291 55.8052C91.259 55.3189 91.3756 54.8342 91.6257 54.4158C91.8758 53.9974 92.2473 53.6652 92.6909 53.4632C95.7961 51.7795 98.3055 49.1781 99.876 46.0142C101.446 42.8503 102.001 39.2784 101.465 35.7871ZM47.83 33.0811H53.855V44.1392L50.8729 40.4641L47.83 44.2752V33.0811ZM88.4359 101.743H39.7629V33.0061H45.016V52.3853L50.875 44.9602L56.6749 52.3142V33.0672H67.73L67.5239 34.0901C66.2549 40.4051 67.683 45.8091 71.767 50.1521C75.851 54.4951 81.1339 56.2591 87.4669 55.3931L88.437 55.2593L88.4359 101.743ZM84.396 52.8553H84.3619C81.4886 52.8551 78.6798 52.0023 76.2913 50.4051C73.9027 48.8078 72.0417 46.538 70.9438 43.8826C69.8459 41.2272 69.5605 38.3057 70.1237 35.4881C70.6868 32.6704 72.0733 30.0833 74.1075 28.054C76.1418 26.0247 78.7323 24.6443 81.5513 24.0879C84.3703 23.5316 87.291 23.8242 89.9437 24.9285C92.5964 26.0328 94.8619 27.8991 96.4534 30.2915C98.0448 32.684 98.8906 35.4948 98.8839 38.3682C98.8595 42.2028 97.3252 45.8735 94.6134 48.5848C91.9016 51.296 88.2307 52.8297 84.396 52.8533V52.8553Z" fill="#17598d" stroke="#17598d" stroke-width="0.5"/>
</svg>
