<svg width="131" height="134" viewBox="0 0 131 134" fill="none" xmlns="http://www.w3.org/2000/svg">
<path d="M127.122 44.5328C127.803 44.0697 128.368 43.4547 128.77 42.7362C129.173 42.0177 129.404 41.2154 129.443 40.3927C129.483 39.5699 129.33 38.7493 128.998 37.9954C128.667 37.2416 128.164 36.5752 127.53 36.0489C126.994 35.5963 126.373 35.2553 125.703 35.046C125.034 34.8367 124.329 34.7632 123.63 34.8299C123.444 34.8536 123.259 34.8871 123.076 34.93C118.088 25.4338 110.837 17.3126 101.965 11.2847C93.0919 5.25686 82.8708 1.50771 72.2048 0.368976C61.5388 -0.769759 50.7566 0.736881 40.8112 4.7557C30.8659 8.77451 22.0638 15.1818 15.1833 23.411C12.6706 26.4285 10.4324 29.6643 8.49532 33.0799C7.33107 32.8307 6.11683 32.9786 5.04659 33.5003C3.97635 34.022 3.11185 34.8874 2.59102 35.9581C2.07019 37.0288 1.9231 38.243 2.1733 39.4071C2.4235 40.5711 3.05662 41.6179 3.97139 42.38C4.01139 42.413 4.05637 42.4368 4.09737 42.4688C0.578058 51.9207 -0.700098 62.0603 0.363484 72.0899C1.42707 82.1195 4.80337 91.7658 10.2268 100.269C15.6502 108.773 22.9727 115.902 31.6184 121.096C40.264 126.29 49.9967 129.407 60.0512 130.202C60.3624 131.107 60.9139 131.91 61.6464 132.526C62.6082 133.328 63.8202 133.767 65.0722 133.767C66.1711 133.774 67.2444 133.436 68.1413 132.801C69.0382 132.166 69.7135 131.266 70.0722 130.227C73.7359 129.95 77.3706 129.37 80.9384 128.493C96.0657 124.765 109.355 115.736 118.394 103.047C127.433 90.357 131.623 74.847 130.203 59.3319C129.748 54.297 128.714 49.3312 127.122 44.5328Z" fill="white"/>
<path d="M127.122 44.5328C127.803 44.0697 128.368 43.4547 128.77 42.7362C129.173 42.0177 129.404 41.2154 129.443 40.3927C129.483 39.5699 129.33 38.7493 128.998 37.9954C128.667 37.2416 128.164 36.5752 127.53 36.0489C126.994 35.5963 126.373 35.2553 125.703 35.046C125.034 34.8367 124.329 34.7632 123.63 34.8299C123.444 34.8536 123.259 34.8871 123.076 34.93C118.088 25.4338 110.837 17.3126 101.965 11.2847C93.0919 5.25686 82.8708 1.50771 72.2048 0.368976C61.5388 -0.769759 50.7566 0.736881 40.8112 4.7557C30.8659 8.77451 22.0638 15.1818 15.1833 23.411C12.6706 26.4285 10.4324 29.6643 8.49532 33.0799C7.33107 32.8307 6.11683 32.9786 5.04659 33.5003C3.97635 34.022 3.11185 34.8874 2.59102 35.9581C2.07019 37.0288 1.9231 38.243 2.1733 39.4071C2.4235 40.5711 3.05662 41.6179 3.97139 42.38C4.01139 42.413 4.05637 42.4368 4.09737 42.4688C0.578058 51.9207 -0.700098 62.0603 0.363484 72.0899C1.42707 82.1195 4.80337 91.7658 10.2268 100.269C15.6502 108.773 22.9727 115.902 31.6184 121.096C40.264 126.29 49.9967 129.407 60.0512 130.202C60.3624 131.107 60.9139 131.91 61.6464 132.526C62.1848 132.976 62.8062 133.315 63.4758 133.524C64.1453 133.734 64.8496 133.809 65.5483 133.746C66.247 133.683 66.9265 133.483 67.5478 133.158C68.1691 132.832 68.7202 132.387 69.1694 131.848C69.5651 131.365 69.8722 130.817 70.0764 130.227C73.7402 129.951 77.3746 129.371 80.9423 128.493C96.0696 124.765 109.359 115.736 118.398 103.047C127.437 90.357 131.627 74.847 130.207 59.3319C129.75 54.2968 128.715 49.331 127.122 44.5328ZM68.4904 124.333C67.8134 123.767 67.0068 123.379 66.1428 123.201C65.2788 123.023 64.3842 123.063 63.539 123.315C62.6939 123.567 61.9245 124.025 61.2995 124.648C60.6745 125.27 60.2132 126.038 59.9572 126.882C50.4539 126.058 41.2694 123.05 33.1191 118.094C24.9688 113.137 18.073 106.366 12.9692 98.3072C7.86536 90.2485 4.6913 81.1199 3.69429 71.6331C2.69729 62.1464 3.90443 52.5576 7.22139 43.6138C7.27739 43.6138 7.33334 43.63 7.39034 43.63C7.55034 43.63 7.7113 43.622 7.8713 43.608C8.85711 43.5235 9.79984 43.1657 10.5935 42.5748C11.3871 41.9839 12.0001 41.1832 12.3637 40.263C12.7274 39.3428 12.8271 38.3396 12.6518 37.3658C12.4765 36.392 12.033 35.4864 11.3713 34.7508C13.2129 31.5005 15.3418 28.4216 17.7324 25.5509C26.1475 15.4173 37.5998 8.26021 50.3964 5.13778C55.2965 3.92682 60.3248 3.31314 65.3723 3.30989C76.6705 3.33421 87.7475 6.44415 97.4074 12.3038C107.067 18.1634 114.943 26.5502 120.185 36.5589C120.129 36.6209 120.062 36.669 120.009 36.734C119.56 37.2724 119.221 37.8939 119.012 38.5633C118.803 39.2327 118.727 39.9368 118.79 40.6353C118.853 41.3338 119.053 42.0131 119.379 42.6344C119.704 43.2556 120.149 43.8066 120.687 44.2559C121.127 44.6229 121.621 44.9174 122.153 45.128C122.731 45.3516 123.344 45.472 123.963 45.484C125.498 50.0724 126.493 54.8236 126.93 59.6419C128.407 75.9948 123.326 92.2643 112.807 104.872C102.288 117.479 87.1921 125.392 70.8393 126.869C70.6193 126.889 70.4013 126.895 70.1823 126.912C69.8861 125.903 69.2974 125.005 68.4904 124.331V124.333Z" fill="#28A040"/>
<path d="M70.7207 42.2256C71.4647 41.1026 72.0916 40.1256 72.7486 39.1726C73.4826 38.1056 74.3435 38.0975 75.0725 39.1555C75.7725 40.1675 76.4346 41.2016 77.1936 42.3486C77.9406 41.2186 78.6056 40.1837 79.3006 39.1697C80.0306 38.1047 80.9005 38.1007 81.6245 39.1577C82.3015 40.1397 82.9486 41.1425 83.6616 42.2165C84.3976 41.1085 85.0448 40.0977 85.7298 39.1167C86.4518 38.0777 87.2558 38.0695 87.9697 39.1025C88.7337 40.2025 89.4547 41.3395 90.2547 42.5515C91.0417 41.3605 91.7496 40.2616 92.4876 39.1836C93.2256 38.1056 94.0776 38.0975 94.8106 39.1555C95.4866 40.1325 96.1276 41.1356 96.8506 42.2266C97.5616 41.1556 98.1946 40.1846 98.8506 39.2266C99.6506 38.0566 100.451 38.0266 101.215 39.1726C103.051 41.9306 104.88 44.6936 106.665 47.4836C106.941 47.948 107.087 48.4782 107.087 49.0185C107.107 63.7006 107.111 78.3821 107.097 93.0635C107.097 94.4635 106.811 94.7427 105.433 94.7427C78.4693 94.7427 51.5067 94.7427 24.5447 94.7427C24.0034 94.7788 23.4604 94.7034 22.9492 94.5215C22.4381 94.3395 21.9695 94.0548 21.5728 93.6848C21.176 93.3148 20.8595 92.8673 20.6424 92.3701C20.4252 91.8729 20.3123 91.3365 20.3106 90.7939C20.3089 90.2514 20.4184 89.7141 20.6323 89.2156C20.8463 88.717 21.1603 88.2678 21.5547 87.8953C21.9491 87.5227 22.4156 87.235 22.9256 87.0498C23.4355 86.8646 23.978 86.7859 24.5196 86.8186C24.8376 86.8126 25.1557 86.7836 25.5957 86.7576V85.4197C25.5957 77.9517 25.5347 70.4826 25.6187 63.0146C25.7047 55.2646 28.9946 49.0656 35.0706 44.3076C35.2416 44.1726 35.4147 44.0406 35.7197 43.8076C34.5757 42.6176 33.5348 41.3556 32.3128 40.3076C31.8163 39.9026 31.4342 39.375 31.2041 38.7771C30.974 38.1791 30.9039 37.5315 31.0008 36.8982C31.0976 36.2649 31.3581 35.6676 31.7564 35.1658C32.1546 34.6639 32.677 34.2748 33.2717 34.0366C34.8478 33.2827 36.3814 32.443 37.8657 31.5215C38.0172 31.4079 38.1422 31.2631 38.2324 31.0967C38.3227 30.9303 38.3761 30.7465 38.3887 30.5576C38.3749 29.6162 38.7326 28.7071 39.3841 28.0273C40.0356 27.3476 40.9285 26.9517 41.8696 26.9255C45.9136 26.8842 49.958 26.8842 54.0027 26.9255C56.1637 26.9515 57.4576 28.6156 57.4026 31.2146C59.1086 32.1506 60.8156 33.1936 62.6116 34.0466C63.194 34.2891 63.7047 34.6768 64.0947 35.1726C64.4848 35.6684 64.7413 36.2558 64.8399 36.8789C64.9384 37.502 64.8757 38.1399 64.6577 38.7319C64.4398 39.3239 64.0738 39.8501 63.5947 40.2605C62.3855 41.3827 61.2338 42.5657 60.1446 43.8047L62.2317 45.4355C62.8917 44.4355 63.5245 43.4836 64.1555 42.5286C64.9175 41.3746 65.6556 40.2046 66.4456 39.0676C67.1206 38.0916 67.9456 38.0946 68.6226 39.0676C69.2996 40.0406 69.9457 41.0516 70.7207 42.2256ZM27.8696 86.8157H29.2207C34.7587 86.8157 40.297 86.8157 45.8357 86.8157C46.6137 86.8157 47.2596 86.9985 47.2976 87.8965C47.3386 88.8675 46.6667 89.1045 45.8457 89.1045H44.8626C38.1586 89.1045 31.4548 89.1045 24.7508 89.1045C23.3968 89.1045 22.6197 89.7236 22.6067 90.7556C22.5937 91.7876 23.3836 92.4376 24.7066 92.4726C24.8526 92.4726 24.9976 92.4726 25.1436 92.4726C40.3376 92.4726 55.531 92.4726 70.7237 92.4726C71.1235 92.4895 71.5242 92.4613 71.9177 92.3887C72.3034 92.3296 72.6524 92.1271 72.8953 91.8218C73.1381 91.5164 73.2567 91.1307 73.2276 90.7417C73.2415 90.351 73.1055 89.9697 72.8472 89.6763C72.5889 89.3828 72.2279 89.1993 71.8386 89.1636C71.2598 89.1029 70.6774 89.0831 70.0957 89.1045C68.1277 89.0965 67.9697 88.9455 67.9697 86.9905C67.9697 79.2315 67.9526 71.4717 67.9746 63.7117C68.0483 59.3864 66.8224 55.1385 64.4556 51.5176C59.0826 43.3176 49.3557 40.1175 40.6887 43.7095C36.8847 45.3479 33.6443 48.0655 31.3682 51.5259C29.092 54.9862 27.8798 59.0378 27.8816 63.1797C27.8416 70.6797 27.8726 78.1896 27.8726 85.6936L27.8696 86.8157ZM63.9097 47.0996C68.6347 52.2996 70.4777 58.3996 70.3037 65.2996C70.1337 72.0336 70.2666 78.7747 70.2666 85.5127V86.8376C71.9856 86.7006 73.4315 86.8886 74.5415 88.1296C75.0312 88.7158 75.3596 89.4196 75.4942 90.1714C75.6287 90.9232 75.5646 91.6969 75.3086 92.4165H104.794V91.0845C104.794 77.6085 104.778 64.1325 104.82 50.6565C104.864 49.4288 104.498 48.2216 103.779 47.2256C102.502 45.4366 101.341 43.5656 100.046 41.6016C99.3457 42.6626 98.7515 43.5707 98.1455 44.4727C97.2645 45.7907 96.4457 45.8006 95.5777 44.5066C94.9587 43.5856 94.3447 42.6606 93.6497 41.6186C92.8737 42.7896 92.2017 43.8187 91.5137 44.8367C90.6517 46.1147 89.8587 46.1216 89.0037 44.8606C88.3037 43.8206 87.6096 42.7705 86.8396 41.6155C86.1216 42.7035 85.5096 43.6447 84.8816 44.5757C84.0816 45.7627 83.2428 45.7645 82.4378 44.5825C81.7888 43.6285 81.1546 42.6635 80.4546 41.6155C79.7376 42.7005 79.1016 43.6737 78.4546 44.6377C77.6026 45.9067 76.7837 45.9196 75.9397 44.6716C75.2747 43.6896 74.6316 42.6935 73.9666 41.6855C73.8719 41.7641 73.7832 41.8494 73.7007 41.9407C73.1147 42.8187 72.5396 43.7037 71.9466 44.5757C71.1386 45.7637 70.3036 45.7665 69.4986 44.5815C68.8506 43.6285 68.2227 42.6605 67.5227 41.6025L63.9097 47.0996ZM52.4756 40.0996C53.2756 37.1636 54.1126 34.1176 54.9356 31.0686C55.2716 29.8226 54.8126 29.2017 53.5056 29.1687C52.3056 29.1357 51.1057 29.1597 49.8997 29.1597C47.3867 29.1597 44.8736 29.1455 42.3606 29.1675C41.2746 29.1775 40.5786 29.7405 40.7796 30.5205C41.6236 33.7845 42.5377 37.0316 43.3797 40.1016L52.4756 40.0996ZM54.6487 40.9536C55.7127 41.4386 56.6178 41.8997 57.5628 42.2537C57.7311 42.2995 57.9077 42.3062 58.0791 42.2734C58.2505 42.2407 58.4119 42.1694 58.5515 42.0647C59.7975 40.8487 61.0006 39.5866 62.1926 38.3166C62.3434 38.1952 62.461 38.0377 62.5347 37.8586C62.6083 37.6796 62.6357 37.4848 62.614 37.2925C62.5924 37.1001 62.5225 36.9162 62.4109 36.7581C62.2993 36.5999 62.1496 36.4726 61.9756 36.3877C60.2756 35.3877 58.5196 34.4706 56.6856 33.4636C55.9866 36.0346 55.3237 38.4725 54.6487 40.9575V40.9536ZM39.1597 33.4665C37.3837 34.4395 35.6846 35.3386 34.0196 36.2966C33.8198 36.3697 33.6434 36.4949 33.5086 36.6594C33.3737 36.8239 33.2854 37.0215 33.2529 37.2317C33.2205 37.4419 33.2451 37.657 33.324 37.8545C33.4029 38.052 33.5333 38.2246 33.7017 38.3545C34.8707 39.5995 36.0516 40.8325 37.2566 42.0415C37.4506 42.2365 37.8567 42.4496 38.0567 42.3716C39.1177 41.9496 40.1428 41.4386 41.2088 40.9446L39.1597 33.4665Z" fill="#28A040" stroke="#28A040" stroke-width="0.5"/>
<path d="M49.1228 59.509V65.438C49.9108 65.438 50.6938 65.429 51.4768 65.438C51.979 65.3963 52.4842 65.4654 52.9568 65.6404C53.4293 65.8153 53.8577 66.0918 54.2117 66.4504C54.5657 66.809 54.8368 67.2408 55.0056 67.7155C55.1744 68.1903 55.2371 68.6964 55.189 69.198C55.196 70.326 55.2058 71.455 55.1838 72.582C55.1967 73.0296 55.1196 73.4753 54.9573 73.8925C54.7949 74.3098 54.5505 74.6903 54.2385 75.0114C53.9266 75.3326 53.5535 75.588 53.1411 75.7624C52.7288 75.9369 52.2856 76.0269 51.8379 76.0271C50.9709 76.0701 50.1 76.0342 49.2 76.0342C49.1 76.3782 49.0998 76.7339 48.9268 76.8969C48.6485 77.2055 48.2765 77.414 47.8679 77.49C47.5529 77.501 46.9838 77.1582 46.9458 76.9092C46.8038 75.9612 46.1958 76.0192 45.5198 76.0342C44.5018 76.0552 43.4819 76.0452 42.4629 76.0342C41.6689 76.0242 41.0829 75.7129 41.1169 74.8239C41.1489 74.0059 41.707 73.7241 42.46 73.7241C43.152 73.7241 43.8429 73.7241 44.5349 73.7241H46.6929V67.7832C45.9099 67.7832 45.1248 67.7922 44.3408 67.7832C43.8476 67.8212 43.3521 67.7518 42.8882 67.58C42.4243 67.4083 42.0031 67.1381 41.6536 66.7881C41.304 66.438 41.0345 66.0164 40.8635 65.5522C40.6925 65.088 40.624 64.5923 40.6628 64.0991C40.6478 62.9711 40.6398 61.8421 40.6628 60.7151C40.64 60.2487 40.7142 59.7826 40.8809 59.3464C41.0476 58.9102 41.3032 58.5134 41.6313 58.1811C41.9595 57.8489 42.353 57.5884 42.7871 57.4162C43.2212 57.2441 43.6862 57.1641 44.1528 57.1811C44.9528 57.1491 45.753 57.1811 46.553 57.1811L46.3948 56.8869C46.9428 56.4869 47.4578 55.863 48.0498 55.78C48.4258 55.727 48.916 56.48 49.355 56.873L49.189 57.1779C50.384 57.1779 51.5789 57.1779 52.7739 57.1779C53.5819 57.1779 54.2899 57.4091 54.2739 58.3611C54.2579 59.2961 53.5738 59.5241 52.7498 59.5151C51.5578 59.4941 50.3668 59.509 49.1228 59.509ZM46.7229 59.52C45.8091 59.464 44.8925 59.4787 43.981 59.5639C43.7543 59.6278 43.5467 59.7468 43.377 59.9101C43.2072 60.0734 43.0804 60.2759 43.0078 60.5C42.8962 61.8024 42.8926 63.1119 42.9968 64.415C43.0455 64.6305 43.1473 64.8303 43.2927 64.9966C43.4382 65.1628 43.6228 65.2903 43.8298 65.3672C44.7921 65.4469 45.7586 65.4618 46.7229 65.4121V59.52ZM49.1108 73.7199C50.0548 73.7199 50.8879 73.7299 51.7209 73.7199C51.8773 73.7324 52.0344 73.7109 52.1816 73.6567C52.3288 73.6025 52.4625 73.5171 52.5735 73.4062C52.6844 73.2954 52.7699 73.1618 52.8242 73.0146C52.8785 72.8675 52.9003 72.7105 52.8879 72.5542C52.9566 71.3548 52.9456 70.152 52.855 68.9541C52.8031 68.7092 52.6918 68.4808 52.531 68.289C52.3702 68.0972 52.1649 67.9478 51.9329 67.854C50.9955 67.7546 50.0513 67.7369 49.1108 67.801V73.7199Z" fill="#28A040" stroke="#28A040" stroke-width="0.5"/>
<path d="M52.1147 89.0996C51.3757 89.1336 50.6728 88.8996 50.6508 87.9746C50.6318 87.1356 51.2139 86.8066 52.0329 86.8086C53.0919 86.8086 53.6798 87.2017 53.6328 87.9817C53.5708 88.8667 52.9647 89.1086 52.1147 89.0996Z" fill="#28A040" stroke="#28A040" stroke-width="0.5"/>
<path d="M84.1466 70.2158C81.7466 70.2158 79.3464 70.2039 76.9464 70.2229C76.0784 70.2299 75.3466 70.0049 75.3556 69.0229C75.3666 68.1049 76.0944 67.8789 76.9034 67.8789C81.7374 67.8789 86.5707 67.8789 91.4034 67.8789C92.2334 67.8789 93.0135 68.0519 92.9815 69.0859C92.9495 70.1199 92.1675 70.2218 91.3365 70.2178C88.9445 70.2078 86.5456 70.2158 84.1466 70.2158Z" fill="#28A040" stroke="#28A040" stroke-width="0.5"/>
<path d="M84.1321 56.8948C81.7641 56.8948 79.3952 56.8819 77.0322 56.9019C76.1882 56.9089 75.4001 56.7749 75.3681 55.7769C75.3361 54.7789 76.115 54.5879 76.968 54.5899C81.778 54.5972 86.5879 54.5972 91.3972 54.5899C92.2252 54.5899 93.02 54.7088 92.997 55.7608C92.973 56.7928 92.1902 56.902 91.3572 56.897C88.9382 56.886 86.5381 56.8948 84.1321 56.8948Z" fill="#28A040" stroke="#28A040" stroke-width="0.5"/>
<path d="M84.0298 77.009C81.6618 77.009 79.2929 76.9951 76.9299 77.0171C76.1049 77.0241 75.3939 76.8241 75.3679 75.9031C75.3399 74.8921 76.11 74.7031 76.959 74.7031C81.769 74.7091 86.5786 74.7091 91.3879 74.7031C92.2119 74.7031 93.0118 74.8191 92.9878 75.8711C92.9698 76.9081 92.1878 77.014 91.3538 77.009C88.9128 77.002 86.4708 77.009 84.0298 77.009Z" fill="#28A040" stroke="#28A040" stroke-width="0.5"/>
<path d="M84.1384 84.0251C81.7334 84.0251 79.3293 84.0122 76.9253 84.0332C76.1043 84.0402 75.3913 83.855 75.3613 82.926C75.3313 81.997 76.0104 81.7412 76.8484 81.7422C81.7664 81.7522 86.6843 81.7291 91.6023 81.7791C91.8555 81.8088 92.1003 81.8885 92.3225 82.0137C92.5446 82.1388 92.7398 82.3069 92.8965 82.5081C93.0595 82.7201 92.8914 83.4021 92.6474 83.6541C92.3056 83.908 91.8856 84.0339 91.4604 84.01C89.0204 84.041 86.5794 84.0251 84.1384 84.0251Z" fill="#28A040" stroke="#28A040" stroke-width="0.5"/>
<path d="M84.1842 63.6951C81.8162 63.6951 79.4473 63.6842 77.0843 63.7012C76.2113 63.7072 75.3602 63.6082 75.3692 62.5252C75.3772 61.5112 76.1912 61.4072 77.0262 61.4102C81.8349 61.4222 86.6439 61.4222 91.4532 61.4102C92.2012 61.4102 92.8681 61.5102 93.0001 62.4102C93.1101 63.1652 92.5742 63.6781 91.6192 63.6851C89.1392 63.7101 86.6612 63.6931 84.1842 63.6951Z" fill="#28A040" stroke="#28A040" stroke-width="0.5"/>
</svg>
