<svg width="131" height="134" viewBox="0 0 131 134" fill="none" xmlns="http://www.w3.org/2000/svg">
<path d="M127.123 44.5299C128.095 43.8632 128.819 42.8932 129.18 41.7716C129.542 40.6499 129.522 39.4399 129.122 38.3311C128.723 37.2223 127.967 36.2772 126.974 35.6436C125.98 35.0101 124.804 34.724 123.63 34.8299C123.444 34.853 123.259 34.8865 123.076 34.93C118.088 25.4338 110.837 17.3126 101.965 11.2847C93.0919 5.25686 82.8708 1.50771 72.2048 0.368976C61.5388 -0.769759 50.7566 0.736881 40.8112 4.7557C30.8659 8.77451 22.0638 15.1818 15.1833 23.411C12.6705 26.4284 10.4323 29.6642 8.49532 33.0799C7.33107 32.8307 6.11707 32.9789 5.04683 33.5006C3.97659 34.0223 3.11185 34.8874 2.59102 35.9581C2.07019 37.0288 1.9231 38.243 2.1733 39.4071C2.4235 40.5711 3.05662 41.6179 3.97139 42.38C4.01139 42.414 4.05637 42.438 4.09737 42.4701C0.578058 51.922 -0.700098 62.0615 0.363484 72.0911C1.42707 82.1208 4.80337 91.7667 10.2268 100.27C15.6502 108.774 22.9727 115.903 31.6184 121.097C40.264 126.291 49.997 129.408 60.0515 130.203C60.3627 131.108 60.914 131.911 61.6464 132.527C62.1849 132.977 62.8065 133.316 63.476 133.525C64.1456 133.734 64.8499 133.809 65.5485 133.746C66.2472 133.683 66.9265 133.483 67.5478 133.158C68.1691 132.832 68.7202 132.387 69.1694 131.848C69.5656 131.366 69.8727 130.817 70.0764 130.227C73.7401 129.951 77.3745 129.371 80.9423 128.494C96.0695 124.765 109.359 115.737 118.398 103.047C127.437 90.3578 131.627 74.8479 130.207 59.3328C129.751 54.2965 128.716 49.3295 127.123 44.5299Z" fill="white"/>
<path d="M127.123 44.5299C128.095 43.8632 128.819 42.8932 129.18 41.7716C129.542 40.6499 129.522 39.4399 129.122 38.3311C128.723 37.2223 127.967 36.2772 126.974 35.6436C125.98 35.0101 124.804 34.724 123.63 34.8299C123.444 34.853 123.259 34.8865 123.076 34.93C118.088 25.4338 110.837 17.3126 101.965 11.2847C93.0919 5.25686 82.8708 1.50771 72.2048 0.368976C61.5388 -0.769759 50.7566 0.736881 40.8112 4.7557C30.8659 8.77451 22.0638 15.1818 15.1833 23.411C12.6705 26.4284 10.4323 29.6642 8.49532 33.0799C7.33107 32.8307 6.11707 32.9789 5.04683 33.5006C3.97659 34.0223 3.11185 34.8874 2.59102 35.9581C2.07019 37.0288 1.9231 38.243 2.1733 39.4071C2.4235 40.5711 3.05662 41.6179 3.97139 42.38C4.01139 42.414 4.05637 42.438 4.09737 42.4701C0.578058 51.922 -0.700098 62.0615 0.363484 72.0911C1.42707 82.1208 4.80337 91.7667 10.2268 100.27C15.6502 108.774 22.9727 115.903 31.6184 121.097C40.264 126.291 49.997 129.408 60.0515 130.203C60.3627 131.108 60.914 131.911 61.6464 132.527C62.1849 132.977 62.8065 133.316 63.476 133.525C64.1456 133.734 64.8499 133.809 65.5485 133.746C66.2472 133.683 66.9265 133.483 67.5478 133.158C68.1691 132.832 68.7202 132.387 69.1694 131.848C69.5656 131.366 69.8727 130.817 70.0764 130.227C73.7401 129.951 77.3745 129.371 80.9423 128.494C96.0695 124.765 109.359 115.737 118.398 103.047C127.437 90.3578 131.627 74.8479 130.207 59.3328C129.751 54.2965 128.716 49.3295 127.123 44.5299ZM68.4914 124.33C67.8144 123.765 67.0078 123.376 66.1438 123.198C65.2798 123.02 64.3854 123.06 63.5402 123.312C62.6951 123.565 61.9255 124.022 61.3005 124.645C60.6755 125.267 60.2144 126.035 59.9585 126.879C50.4551 126.055 41.2703 123.047 33.1201 118.091C24.9698 113.134 18.0743 106.363 12.9704 98.3043C7.86658 90.2455 4.69252 81.117 3.69551 71.6302C2.69851 62.1435 3.90541 52.5546 7.22237 43.6109C7.27837 43.6109 7.33432 43.627 7.39132 43.627C7.55132 43.627 7.71252 43.6188 7.87252 43.6038C8.85833 43.5196 9.801 43.1621 10.5947 42.5714C11.3884 41.9806 12.0015 41.18 12.3652 40.2598C12.7288 39.3397 12.8284 38.3364 12.653 37.3626C12.4777 36.3889 12.0344 35.4833 11.3725 34.7479C13.214 31.4975 15.3427 28.4186 17.7334 25.5479C26.1485 15.4144 37.6009 8.25735 50.3974 5.13485C55.2974 3.92355 60.326 3.30956 65.3735 3.30599C76.6719 3.33029 87.7489 6.44029 97.4089 12.3001C107.069 18.16 114.945 26.547 120.186 36.556C120.13 36.617 120.063 36.6661 120.01 36.7301C119.561 37.2685 119.222 37.8902 119.013 38.5597C118.803 39.2291 118.728 39.9333 118.791 40.6319C118.854 41.3305 119.054 42.0099 119.38 42.6312C119.705 43.2525 120.15 43.8036 120.688 44.253C121.127 44.62 121.622 44.9142 122.155 45.1248C122.732 45.3482 123.345 45.4686 123.964 45.4801C125.499 50.0684 126.494 54.8196 126.931 59.638C128.408 75.991 123.328 92.2606 112.809 104.868C102.29 117.476 87.1932 125.389 70.8403 126.866C70.6203 126.886 70.4023 126.892 70.1833 126.909C69.887 125.901 69.2983 125.004 68.4914 124.33Z" fill="#17598d"/>
<path d="M99.5148 74.9724C101.315 77.1724 102.199 79.4623 100.721 81.9993C99.2428 84.5363 96.8508 84.9363 94.1898 84.4253C93.4038 88.6483 90.9719 89.9585 87.4149 89.8255C87.5097 90.6669 87.3947 91.5186 87.0807 92.305C86.7667 93.0913 86.2632 93.7876 85.6149 94.3323C84.9516 94.8874 84.1712 95.2851 83.3322 95.4951C82.4932 95.7052 81.6175 95.7224 80.7709 95.5454C80.7255 95.72 80.692 95.8974 80.6708 96.0764C80.6753 96.9105 80.4827 97.7337 80.1085 98.479C79.7343 99.2244 79.189 99.8709 78.5175 100.366C77.8459 100.86 77.0671 101.189 76.2443 101.325C75.4214 101.461 74.578 101.401 73.7828 101.149C72.7526 100.84 71.7714 100.386 70.8688 99.8003C68.9838 98.6733 67.1548 97.4533 65.3138 96.2793C62.6728 98.7663 58.7568 98.9723 56.1798 95.2713C54.2908 97.2203 52.0659 98.0043 49.4999 96.8323C47.1279 95.7493 46.1797 93.7323 46.3087 91.0723C44.7124 91.0722 43.181 90.4407 42.0487 89.3155C41.4963 88.7306 41.0766 88.0337 40.8178 87.272C40.5589 86.5103 40.467 85.7017 40.5487 84.9014C37.9917 84.7414 36.0597 83.6845 35.1017 81.2625C34.1247 78.7935 35.1879 76.7573 36.6759 74.7473C35.1209 73.6893 33.6427 72.6474 32.1207 71.6805C31.7853 71.5439 31.4106 71.5407 31.0729 71.6714C30.1974 71.9847 29.2609 72.0896 28.3378 71.9778C27.4146 71.866 26.5302 71.5406 25.7548 71.0274C24.3548 70.1414 22.9307 69.2865 21.5377 68.3865C20.8585 67.9913 20.2692 67.4587 19.8073 66.823C19.3453 66.1874 19.0209 65.4624 18.8546 64.6944C18.6884 63.9264 18.6839 63.1321 18.8417 62.3623C18.9994 61.5925 19.3159 60.8641 19.7709 60.2234C24.2249 53.3661 28.6981 46.5215 33.1908 39.6895C33.5991 39.0065 34.1419 38.4137 34.7865 37.9471C35.4311 37.4804 36.164 37.1498 36.9403 36.9751C37.7166 36.8005 38.5203 36.7855 39.3026 36.9312C40.0849 37.0768 40.8294 37.3799 41.4909 37.8223C42.9419 38.7013 44.3768 39.6095 45.8068 40.5225C46.5799 40.9694 47.2292 41.6024 47.6954 42.364C48.1617 43.1256 48.4302 43.9915 48.4767 44.8833C48.475 45.1872 48.5702 45.4837 48.7482 45.73C48.9261 45.9763 49.1779 46.1597 49.4669 46.2535C53.1529 47.9185 56.8298 49.6014 60.6158 51.3264C60.8788 51.0264 61.1609 50.7264 61.4159 50.4014C62.9816 48.2696 65.1291 46.6348 67.601 45.6934C70.0728 44.752 72.7636 44.544 75.3507 45.0943C77.8227 45.5134 80.3153 45.8012 82.8178 45.9563C84.2003 45.9697 85.5798 45.8258 86.9298 45.5274C87.1246 45.4526 87.2988 45.3325 87.4379 45.177C87.577 45.0216 87.6771 44.8352 87.7299 44.6333C87.8651 43.7726 88.1902 42.9529 88.682 42.2337C89.1738 41.5144 89.8199 40.9137 90.5729 40.4754C91.9839 39.6024 93.3728 38.7003 94.7968 37.8443C95.4445 37.4173 96.1711 37.1242 96.9337 36.982C97.6964 36.8398 98.4798 36.8515 99.2379 37.0164C99.996 37.1813 100.714 37.496 101.348 37.9422C101.983 38.3883 102.522 38.9568 102.934 39.6143C107.5 46.5363 112.036 53.4782 116.542 60.4395C116.965 61.0667 117.257 61.7731 117.399 62.5161C117.542 63.2592 117.533 64.0234 117.372 64.7627C117.212 65.5021 116.903 66.2012 116.465 66.8181C116.027 67.4351 115.469 67.957 114.824 68.3523C113.343 69.3293 111.83 70.2525 110.313 71.1785C109.535 71.6914 108.64 72.0009 107.712 72.0791C106.783 72.1574 105.85 72.0019 104.997 71.6265C104.731 71.4794 104.425 71.421 104.123 71.46C103.822 71.499 103.541 71.6333 103.321 71.8433C102.087 72.8803 100.828 73.8964 99.5148 74.9724ZM66.7658 93.9243C68.4958 95.0313 70.0829 96.0515 71.6759 97.0635C72.28 97.4777 72.9065 97.8579 73.5529 98.2024C73.8623 98.4248 74.2139 98.5816 74.5861 98.6634C74.9582 98.7451 75.3433 98.75 75.7174 98.6778C76.0916 98.6055 76.4468 98.4576 76.7618 98.2432C77.0769 98.0288 77.345 97.7525 77.5494 97.4309C77.7539 97.1094 77.8905 96.7493 77.9511 96.3731C78.0116 95.9969 77.9945 95.6124 77.9012 95.243C77.808 94.8735 77.6402 94.527 77.4083 94.2246C77.1765 93.9223 76.8855 93.6703 76.5529 93.4844C76.2785 93.2718 75.9915 93.0759 75.6937 92.8975C74.9164 92.3955 74.1372 91.8955 73.3558 91.3975C72.5608 90.8975 72.1848 90.2124 72.7438 89.3614C73.3028 88.5104 74.0818 88.5964 74.8668 89.0974C76.4268 90.0924 77.9668 91.1183 79.5668 92.0613C80.1906 92.4375 80.8769 92.6989 81.5929 92.8333C82.0882 92.9473 82.6061 92.9094 83.0795 92.7246C83.5529 92.5398 83.9596 92.2167 84.2467 91.7974C84.5319 91.3995 84.6873 90.9234 84.6918 90.4339C84.6963 89.9444 84.5497 89.4653 84.2719 89.0623C83.8396 88.3858 83.2795 87.8003 82.6229 87.3384C80.8779 86.1384 79.0547 85.0453 77.2787 83.8853C77.1001 83.8034 76.9425 83.6822 76.8175 83.5305C76.6925 83.3789 76.6035 83.201 76.5573 83.01C76.511 82.8191 76.5085 82.62 76.5502 82.428C76.5918 82.236 76.6765 82.056 76.7977 81.9014C76.897 81.7449 77.028 81.6109 77.1823 81.5081C77.3365 81.4052 77.5106 81.3357 77.6932 81.3042C77.8759 81.2728 78.0631 81.2799 78.2428 81.3252C78.4225 81.3705 78.5908 81.4531 78.7367 81.5674C78.9367 81.6784 79.1308 81.8104 79.3258 81.9344C81.5708 83.3624 83.7739 84.8654 86.0829 86.1824C86.9782 86.6826 87.9904 86.9352 89.0158 86.9143C89.4231 86.8942 89.8186 86.7706 90.1649 86.5552C90.5113 86.3398 90.7971 86.0399 90.9952 85.6834C91.1934 85.3269 91.2974 84.9257 91.2975 84.5179C91.2976 84.11 91.1937 83.7089 90.9957 83.3523C90.6169 82.6882 90.0836 82.1254 89.4408 81.7115C86.6818 79.8715 83.8739 78.1043 81.0829 76.3113C80.9107 76.2247 80.7584 76.1031 80.6361 75.9541C80.5138 75.8052 80.4241 75.6323 80.3727 75.4466C80.3213 75.2608 80.3092 75.0664 80.3375 74.8758C80.3658 74.6851 80.4338 74.5027 80.537 74.3399C80.6401 74.1771 80.7761 74.0377 80.9364 73.9307C81.0967 73.8237 81.2778 73.7514 81.4677 73.7185C81.6576 73.6857 81.8523 73.693 82.0392 73.74C82.2261 73.787 82.4011 73.8728 82.5529 73.9915C82.8179 74.1505 83.0739 74.3235 83.3329 74.4915C86.7376 76.6835 90.1436 78.8742 93.5509 81.0635C95.4139 82.2525 97.4509 82.0765 98.3109 80.6895C99.1559 79.3315 98.4879 77.5473 96.6569 76.3013C88.9509 71.0546 81.2431 65.8095 73.5338 60.5655C73.3428 60.4355 73.1339 60.3293 72.9459 60.1973C72.5788 59.9015 72.1164 59.7494 71.6454 59.7693C71.1743 59.7892 70.7268 59.9798 70.3859 60.3055C69.3639 61.1785 68.3997 62.1243 67.4547 63.0833C65.9947 64.5663 64.6887 66.2223 63.1107 67.5613C59.8597 70.3203 56.1109 69.9084 53.3109 66.6714C51.8899 65.0264 51.9437 63.7814 53.2257 62.0384C55.2257 59.3264 57.1077 56.5325 59.1327 53.6385L47.6039 48.5203C43.0612 55.4663 38.4919 62.4544 33.8959 69.4844L38.1188 72.3843C39.5318 70.3433 40.4999 67.8934 43.3339 67.4414C46.1449 66.9924 48.0979 68.2104 49.4569 70.5764C52.7049 68.6314 56.3248 69.2765 58.2648 73.2525C59.2675 72.8366 60.3714 72.7285 61.4357 72.9422C62.4999 73.1559 63.4764 73.6817 64.2408 74.4524C66.0008 76.1614 66.1709 78.2834 65.5409 80.5264C70.8579 81.5084 71.9678 86.6163 69.3278 89.9353C68.4059 91.2202 67.5508 92.5516 66.7658 93.9243ZM88.5057 48.4153C85.9287 48.5103 83.6318 48.7224 81.3458 48.6394C79.3798 48.5402 77.4247 48.2854 75.4989 47.8775C70.1249 46.8115 65.9568 48.5964 62.8248 53.0044C62.3328 53.6954 61.8248 54.3784 61.3478 55.0774C59.3588 57.9664 57.3599 60.8493 55.4169 63.7683C55.3343 63.9511 55.2968 64.1509 55.308 64.3511C55.3191 64.5513 55.3785 64.7461 55.4808 64.9185C56.9808 66.8475 59.1908 67.2185 61.0438 65.6385C62.6788 64.2465 64.0438 62.5384 65.5848 61.0384C66.7323 59.8485 67.9751 58.7546 69.3009 57.7674C70.0232 57.2297 70.9005 56.9413 71.8009 56.9458C72.7013 56.9503 73.576 57.2474 74.2929 57.7923C75.2149 58.4203 76.0708 59.1444 76.9608 59.8194C78.8116 61.3438 80.9701 62.4503 83.2882 63.063C85.6064 63.6757 88.0294 63.7802 90.3917 63.3694C91.6197 63.1514 92.3137 63.3484 92.5497 64.2444C92.7747 65.1024 92.2627 65.7975 91.0587 66.0445C89.8717 66.2865 88.6588 66.3955 87.2938 66.5855L97.1618 73.3184L102.117 69.2464L88.5057 48.4153ZM21.3868 63.4524C21.4272 63.9703 21.5883 64.4714 21.8573 64.9158C22.1263 65.3602 22.4958 65.7356 22.9359 66.0115C24.3659 66.9215 25.7979 67.8294 27.2509 68.7024C27.6029 68.9642 28.007 69.1471 28.4359 69.2388C28.8649 69.3305 29.3084 69.329 29.7367 69.2342C30.165 69.1393 30.568 68.9533 30.9181 68.689C31.2682 68.4247 31.5572 68.0883 31.7658 67.7024C36.2731 60.8458 40.7621 53.979 45.2328 47.1023C45.4834 46.7666 45.6581 46.3805 45.7452 45.9707C45.8323 45.5609 45.8298 45.1372 45.7374 44.7285C45.6451 44.3199 45.4652 43.936 45.2103 43.6035C44.9554 43.271 44.6315 42.9976 44.2609 42.8023C42.8709 41.9023 41.4658 41.0248 40.0458 40.1695C39.6907 39.9143 39.2858 39.7368 38.8575 39.6487C38.4293 39.5606 37.9871 39.5639 37.5602 39.6582C37.1332 39.7526 36.731 39.9359 36.3798 40.1963C36.0285 40.4567 35.7363 40.7884 35.5219 41.1695C31.0385 47.9955 26.5717 54.8328 22.1217 61.6814C21.8227 62.2479 21.5767 62.8407 21.3868 63.4524ZM97.7347 39.6663C97.3336 39.7217 96.9431 39.8377 96.5768 40.0103C94.9198 40.9923 93.2679 41.9883 91.6769 43.0723C91.36 43.2817 91.0887 43.5531 90.8793 43.8699C90.6698 44.1867 90.5264 44.5425 90.4579 44.916C90.3893 45.2896 90.397 45.6732 90.4804 46.0437C90.5637 46.4143 90.7209 46.764 90.9428 47.0723C95.4548 54.0183 99.9882 60.9517 104.543 67.8723C104.757 68.232 105.043 68.5437 105.382 68.7881C105.722 69.0326 106.108 69.2045 106.517 69.2932C106.926 69.382 107.349 69.3857 107.759 69.304C108.17 69.2223 108.559 69.057 108.903 68.8184C110.393 67.9331 111.862 67.0127 113.31 66.0574C113.656 65.8597 113.958 65.5917 114.194 65.2705C114.431 64.9494 114.597 64.5819 114.683 64.1924C114.77 63.8029 114.773 63.3998 114.694 63.0088C114.615 62.6178 114.455 62.2477 114.224 61.9224C109.716 54.9744 105.187 48.041 100.636 41.1223C100.328 40.6411 99.896 40.2519 99.3854 39.9956C98.8748 39.7394 98.3046 39.6256 97.7347 39.6663ZM52.0287 94.5813C52.5052 94.5381 52.963 94.3744 53.3588 94.1055C53.7545 93.8366 54.0753 93.4716 54.2909 93.0445C56.2059 90.0115 58.1439 86.9933 60.0729 83.9693C60.9649 82.5693 61.8957 81.1963 62.7357 79.7693C63.1107 79.1504 63.2246 78.4079 63.0521 77.7051C62.8797 77.0023 62.4352 76.397 61.8163 76.022C61.1974 75.647 60.4549 75.5332 59.7521 75.7056C59.0493 75.878 58.4437 76.3226 58.0687 76.9414C56.6887 79.1244 55.3188 81.3133 53.9288 83.4903C52.4758 85.7653 50.9709 88.0085 49.5529 90.3045C49.2644 90.7317 49.1019 91.2314 49.0841 91.7466C49.0663 92.2618 49.1937 92.7716 49.452 93.2178C49.7103 93.664 50.0889 94.0284 50.5446 94.2696C51.0002 94.5107 51.5145 94.6188 52.0287 94.5813ZM55.6339 75.2674C55.6937 74.6395 55.5357 74.0103 55.1864 73.4851C54.8371 72.96 54.3178 72.5709 53.7157 72.3833C53.1136 72.1957 52.4653 72.2211 51.8795 72.4549C51.2938 72.6887 50.8063 73.1166 50.4989 73.6673C48.2989 77.0186 46.1158 80.3802 43.9498 83.7515C42.9208 85.3455 43.1497 86.9215 44.5177 87.8055C45.9107 88.7055 47.5449 88.2684 48.5709 86.6734C50.7809 83.238 52.9774 79.794 55.1608 76.3413C55.3525 75.9993 55.511 75.6397 55.6339 75.2674ZM40.4088 82.2534C41.0458 81.8685 41.8959 81.6315 42.2819 81.0745C43.8819 78.7665 45.3957 76.3944 46.8297 73.9744C47.1379 73.3849 47.2098 72.7 47.0306 72.0594C46.8515 71.4187 46.4351 70.8706 45.8659 70.5264C45.3202 70.1435 44.6476 69.9859 43.9887 70.0867C43.3297 70.1875 42.735 70.5389 42.3287 71.0674C40.7397 73.3824 39.1899 75.7353 37.8019 78.1743C36.7989 79.9393 38.2738 82.0964 40.4088 82.2534ZM61.1808 95.5484C61.8698 95.1244 62.7809 94.8553 63.2069 94.2483C64.7749 92.0173 66.2308 89.7034 67.6298 87.3614C67.945 86.7588 68.0221 86.0598 67.8456 85.4031C67.6691 84.7464 67.2522 84.18 66.6774 83.8167C66.1025 83.4534 65.412 83.3198 64.743 83.4422C64.0741 83.5646 63.4757 83.934 63.0668 84.4773C61.5358 86.7363 60.0359 89.0234 58.6669 91.3824C57.6409 93.1514 59.0058 95.2954 61.1808 95.5484Z" fill="#17598d" stroke="#17598d" stroke-width="0.5"/>
</svg>
