<svg width="131" height="134" viewBox="0 0 131 134" fill="none" xmlns="http://www.w3.org/2000/svg">
<path d="M127.123 44.533C128.095 43.8664 128.818 42.8964 129.18 41.7747C129.542 40.6531 129.521 39.4431 129.122 38.3343C128.723 37.2255 127.967 36.2804 126.973 35.6468C125.979 35.0133 124.804 34.7271 123.63 34.8331C123.444 34.8568 123.259 34.89 123.076 34.9329C118.088 25.4369 110.837 17.3162 101.964 11.2884C93.0912 5.26069 82.8703 1.51162 72.2044 0.372892C61.5385 -0.765834 50.7563 0.740699 40.8111 4.75937C30.8658 8.77803 22.0636 15.185 15.1829 23.4139C12.6702 26.4314 10.432 29.6674 8.49491 33.0831C7.33066 32.8339 6.11666 32.9818 5.04642 33.5035C3.97618 34.0252 3.11144 34.8906 2.59061 35.9613C2.06978 37.0319 1.92268 38.2462 2.17289 39.4102C2.42309 40.5743 3.05621 41.6208 3.97098 42.3829C4.01098 42.4169 4.05596 42.441 4.09696 42.473C0.577863 51.9249 -0.700116 62.0646 0.363561 72.0941C1.42724 82.1236 4.80349 91.7695 10.2268 100.273C15.6502 108.777 22.9727 115.906 31.6182 121.1C40.2637 126.294 49.9967 129.411 60.0511 130.206C60.3624 131.111 60.9136 131.914 61.646 132.53C62.1845 132.98 62.8061 133.319 63.4756 133.528C64.1452 133.737 64.8495 133.813 65.5481 133.75C66.2468 133.687 66.9261 133.486 67.5474 133.16C68.1687 132.835 68.7198 132.39 69.169 131.851C69.5651 131.369 69.8722 130.82 70.076 130.23C73.7398 129.954 77.3742 129.374 80.9419 128.496C96.0693 124.768 109.359 115.74 118.398 103.05C127.437 90.3602 131.627 74.8502 130.207 59.335C129.751 54.299 128.716 49.3323 127.123 44.533Z" fill="white"/>
<path d="M127.123 44.5313C127.804 44.0681 128.368 43.4529 128.771 42.7344C129.173 42.0159 129.404 41.2136 129.443 40.3909C129.483 39.5682 129.33 38.7477 128.999 37.9939C128.667 37.2401 128.164 36.5736 127.531 36.0471C126.995 35.5947 126.374 35.2541 125.704 35.0449C125.034 34.8358 124.329 34.7623 123.631 34.8291C123.445 34.8528 123.26 34.8863 123.077 34.9292C118.089 25.433 110.838 17.312 101.965 11.2842C93.0924 5.25641 82.8711 1.50755 72.2051 0.368916C61.5391 -0.76972 50.7568 0.736987 40.8116 4.75588C30.8663 8.77477 22.0643 15.182 15.1839 23.4112C12.671 26.4281 10.4327 29.6636 8.49588 33.0791C7.33163 32.8299 6.11764 32.9781 5.0474 33.4998C3.97716 34.0215 3.11242 34.8869 2.59159 35.9575C2.07076 37.0282 1.92366 38.2425 2.17386 39.4065C2.42407 40.5706 3.05719 41.6171 3.97196 42.3792C4.01196 42.4132 4.05694 42.4373 4.09794 42.4693C0.57884 51.9212 -0.699139 62.0608 0.364537 72.0904C1.42821 82.1199 4.80447 91.7658 10.2278 100.269C15.6512 108.773 22.9736 115.902 31.6192 121.096C40.2647 126.29 49.9976 129.407 60.052 130.202C60.3633 131.107 60.9146 131.91 61.647 132.526C62.1854 132.976 62.8073 133.315 63.4768 133.524C64.1464 133.733 64.8505 133.809 65.5491 133.746C66.2478 133.683 66.9273 133.482 67.5486 133.157C68.1699 132.831 68.7207 132.386 69.17 131.847C69.5661 131.365 69.8732 130.816 70.0769 130.226C73.7407 129.95 77.3751 129.37 80.9429 128.493C96.0702 124.765 109.36 115.736 118.399 103.046C127.438 90.3566 131.628 74.8465 130.208 59.3313C129.751 54.2959 128.716 49.3298 127.123 44.5313ZM68.491 124.331C67.8141 123.766 67.0074 123.377 66.1433 123.199C65.2793 123.021 64.3848 123.06 63.5396 123.313C62.6943 123.565 61.9248 124.023 61.2998 124.646C60.6749 125.268 60.2138 126.036 59.958 126.88C50.4547 126.056 41.2699 123.048 33.1197 118.092C24.9694 113.136 18.0738 106.364 12.97 98.3054C7.86617 90.2467 4.69211 81.1184 3.6951 71.6316C2.6981 62.1449 3.905 52.5561 7.22196 43.6123C7.27796 43.6123 7.3339 43.6272 7.3909 43.6272C7.5509 43.6272 7.71211 43.6202 7.87211 43.6052C8.85792 43.5207 9.80041 43.1629 10.594 42.572C11.3877 41.9812 12.0009 41.1807 12.3645 40.2605C12.7282 39.3403 12.828 38.3368 12.6526 37.3631C12.4773 36.3893 12.0339 35.4839 11.3721 34.7483C13.2142 31.4983 15.3428 28.4194 17.7329 25.5484C26.1482 15.4152 37.6005 8.25842 50.397 5.13625C55.297 3.92494 60.3256 3.31072 65.3731 3.30715C76.6714 3.33145 87.7485 6.44145 97.4085 12.3013C107.068 18.1611 114.944 26.5482 120.186 36.5571C120.13 36.6181 120.063 36.6672 120.01 36.7312C119.561 37.2697 119.221 37.8916 119.012 38.5611C118.803 39.2305 118.728 39.9345 118.791 40.6331C118.854 41.3317 119.054 42.011 119.379 42.6323C119.705 43.2537 120.15 43.8047 120.688 44.2542C121.606 45.0292 122.763 45.4628 123.964 45.4812C125.498 50.0696 126.494 54.8208 126.931 59.6392C128.407 75.9922 123.327 92.2621 112.808 104.87C102.289 117.477 87.1928 125.39 70.8399 126.867C70.6199 126.886 70.4019 126.892 70.1829 126.91C69.8867 125.902 69.298 125.005 68.491 124.331Z" fill="#17598d"/>
<path d="M89.0874 50.8181C89.2504 50.6181 89.4165 50.428 89.5745 50.228C90.2265 49.402 90.8294 48.5279 91.5374 47.7549C92.613 46.6053 94.0815 45.9022 95.6514 45.7849C97.2213 45.6676 98.778 46.145 100.012 47.1221C100.709 47.6791 101.27 48.3854 101.657 49.189C102.043 49.9925 102.243 50.8724 102.243 51.7639C102.255 53.3561 101.687 54.8982 100.644 56.1011C98.8656 58.3181 97.1324 60.5709 95.3794 62.8069C93.4904 65.2149 91.6284 67.6439 89.6934 70.0149C89.1643 70.6496 88.8947 71.4608 88.9385 72.2859C88.9725 80.9612 88.9752 89.6367 88.9465 98.312C89.0124 100.088 88.4201 101.826 87.2835 103.192C86.6793 103.895 85.9274 104.455 85.0813 104.833C84.2353 105.212 83.316 105.398 82.3894 105.38C77.4264 105.404 72.4635 105.393 67.5005 105.394C57.3992 105.394 47.2991 105.396 37.2004 105.401C36.0265 105.404 34.861 105.201 33.7573 104.801C33.4622 104.646 33.18 104.468 32.9133 104.268C32.2524 103.877 31.6826 103.35 31.2417 102.721C30.8008 102.092 30.4989 101.377 30.3565 100.622C30.2322 99.9311 30.1902 99.2279 30.2315 98.5271C30.2235 93.4658 30.2235 88.404 30.2315 83.342C30.2315 75.832 30.2315 68.322 30.2315 60.812C30.2315 54.894 30.2294 48.9761 30.2254 43.0581C30.2327 42.9132 30.2173 42.7679 30.1795 42.6279L30.0884 43.052H30.0515C29.9864 42.6739 29.9714 42.2889 30.0073 41.907C30.0964 41.5487 30.2807 41.2212 30.5405 40.959C31.6695 39.824 32.8484 38.7379 33.9844 37.6089C37.6424 33.9702 41.2941 30.3242 44.9395 26.6709C45.2185 26.3919 45.4645 26.0791 45.7515 25.8091C45.8847 25.68 46.053 25.593 46.2354 25.5591C46.5527 25.5335 46.8715 25.5284 47.1895 25.5439C58.9048 25.5439 70.6201 25.5467 82.3355 25.552C83.6208 25.5009 84.8902 25.8509 85.9678 26.5535C87.0453 27.256 87.8776 28.2762 88.3494 29.4729C88.6661 30.1645 88.7942 30.9279 88.7205 31.685L88.8745 31.4651L88.9566 31.478V50.769L89.0874 50.8181ZM75.6765 67.9519C75.3785 67.9027 75.0779 67.8695 74.7764 67.852C64.0157 67.852 53.2551 67.852 42.4944 67.852C41.5064 67.852 40.5185 67.8521 39.5305 67.8301C39.3594 67.8411 39.189 67.799 39.0427 67.7095C38.8965 67.62 38.7815 67.4874 38.7134 67.3301C38.6362 67.1068 38.6044 66.8703 38.6199 66.6345C38.6353 66.3987 38.6978 66.1684 38.8035 65.957C38.8245 65.908 38.9126 65.8909 38.9666 65.8569C39.3449 65.6329 39.7851 65.5366 40.2224 65.582C41.6278 65.582 43.0328 65.582 44.4375 65.582C47.0075 65.582 49.5775 65.5681 52.1475 65.5691C55.1665 65.5691 58.1854 65.581 61.2044 65.583C64.4644 65.583 67.7254 65.578 70.9854 65.583C72.9854 65.583 74.9854 65.599 76.9854 65.613C77.1442 65.6248 77.3036 65.5973 77.4492 65.5327C77.5949 65.4682 77.7226 65.3685 77.8206 65.2429C79.0826 63.6262 80.3469 62.0113 81.6135 60.3979C83.1705 58.4119 84.7206 56.4211 86.2896 54.4441C86.5336 54.1495 86.6627 53.7765 86.6533 53.394C86.6433 46.4654 86.6375 39.5366 86.6355 32.6079C86.7225 31.5816 86.4838 30.5539 85.9534 29.6709C85.5322 28.9569 84.8708 28.4161 84.0874 28.145C83.2906 27.9022 82.4614 27.7825 81.6284 27.79C70.7264 27.7974 59.8244 27.7992 48.9224 27.7959C48.4674 27.7959 48.0135 27.8311 47.5425 27.8511V28.2319C47.5425 31.0319 47.5575 33.8321 47.5315 36.6321C47.5463 37.2907 47.4596 37.9478 47.2744 38.5801C46.8456 39.8967 46.0068 41.0414 44.8806 41.8472C43.7545 42.6529 42.4 43.0773 41.0154 43.0581C38.2594 43.0951 35.5036 43.0671 32.7476 43.0681H32.3345V44.583C32.3345 58.7497 32.3345 72.9163 32.3345 87.083C32.3345 91.059 32.3345 95.0347 32.3345 99.01C32.3118 99.6704 32.4618 100.325 32.7695 100.91C33.1114 101.597 33.6459 102.171 34.3081 102.559C34.9703 102.948 35.7316 103.135 36.4985 103.099C38.4305 103.086 40.3633 103.092 42.2983 103.091C46.855 103.087 51.4118 103.084 55.9685 103.082C64.7412 103.082 73.514 103.082 82.2874 103.082C82.7041 103.095 83.1212 103.061 83.5305 102.982C84.4403 102.758 85.2456 102.229 85.812 101.483C86.3784 100.736 86.6715 99.8185 86.6423 98.8821C86.6423 94.1381 86.6423 89.3942 86.6423 84.6509C86.6383 81.3455 86.6268 78.0407 86.6074 74.7361C86.6074 74.5171 86.5764 74.2989 86.5554 74.0359C86.3034 74.3489 86.0955 74.5999 85.8945 74.8569C84.6279 76.4716 83.3648 78.0874 82.1055 79.7041C80.8055 81.3611 79.4963 83.0101 78.2053 84.6721C77.1753 85.9971 76.1724 87.3439 75.1314 88.6599C74.9282 88.902 74.6678 89.0896 74.3735 89.2051C73.3905 89.6051 72.3885 89.9619 71.3945 90.3379C71.2805 90.3809 71.1735 90.4381 71.0635 90.4951V90.5879L71.7175 90.7881H70.2915C70.4952 90.8777 70.716 90.9219 70.9385 90.918C73.6065 90.918 76.2735 90.908 78.9385 90.908C79.1907 90.9076 79.4422 90.9324 79.6895 90.9819C79.8371 91.0037 79.973 91.0748 80.075 91.1838C80.1769 91.2928 80.2387 91.4333 80.2505 91.582C80.3416 92.0617 80.2446 92.558 79.9795 92.968C79.6485 93.0228 79.3146 93.0584 78.9795 93.0749C77.1465 93.0799 75.3135 93.062 73.4795 93.063C69.8248 93.063 66.1697 93.0669 62.5144 93.0749C55.0044 93.0749 47.4941 93.0749 39.9834 93.0749C39.7754 93.0749 39.5684 93.042 39.3604 93.03C39.196 93.0177 39.0406 92.9502 38.9194 92.8384C38.7983 92.7265 38.7187 92.577 38.6934 92.4141C38.4934 91.4551 38.7164 90.932 39.7764 90.896H39.9085C47.5385 90.902 55.1692 90.9066 62.8005 90.9099C63.0295 90.9099 63.2586 90.8729 63.4876 90.8589C63.6766 90.8479 63.7255 90.7589 63.7495 90.5669C63.8445 89.8059 63.9785 89.0491 64.0816 88.2881C64.1476 87.7881 64.1814 87.2881 64.2324 86.7881C64.2524 86.5771 64.2595 86.3651 64.2725 86.1531H64.3355L64.4356 86.3689C64.5566 85.4569 64.6694 84.5861 64.7874 83.7161C64.8684 83.1211 64.9774 82.5289 65.0354 81.9309C65.0744 81.5209 64.9426 81.066 65.4356 80.823C65.4356 80.823 65.4355 80.8029 65.4495 80.7429C65.3418 80.6891 65.2279 80.649 65.1104 80.623C64.6104 80.577 64.1044 80.5171 63.6003 80.5161C55.7613 80.5051 47.9216 80.507 40.0816 80.4809C39.641 80.4258 39.2106 80.3081 38.8035 80.1311C38.7515 80.1151 38.7034 80.0159 38.6914 79.9499C38.6644 79.7339 38.6634 79.5141 38.6414 79.2971C38.6347 79.1616 38.6561 79.0261 38.7041 78.8992C38.7521 78.7723 38.8258 78.6565 38.9204 78.5593C39.0151 78.4621 39.1288 78.3856 39.2544 78.3342C39.38 78.2829 39.5148 78.2579 39.6504 78.261C39.8364 78.268 40.0235 78.2549 40.2095 78.2549C47.6875 78.2549 55.165 78.2549 62.6423 78.2549C64.2233 78.2549 65.8045 78.2551 67.3855 78.2351C67.5371 78.2182 67.6764 78.1441 67.7754 78.0281C68.1094 77.6381 68.4193 77.228 68.7363 76.822L73.1365 71.1999C73.9545 70.1429 74.7803 69.0919 75.6733 67.9519H75.6765ZM67.7324 81.6269C67.7864 81.6759 67.8534 81.7469 67.9324 81.8069C69.4324 82.9749 70.9215 84.1479 72.4255 85.3069C72.8835 85.6599 73.3695 85.979 73.8565 86.293C73.9089 86.3119 73.9653 86.3172 74.0203 86.3081C74.0753 86.299 74.1269 86.2758 74.1704 86.241C74.6554 85.647 75.1215 85.0411 75.5945 84.4331C77.4112 82.1091 79.2284 79.7855 81.0464 77.4629C82.4194 75.7099 83.8024 73.9629 85.1704 72.2109C85.8104 71.3889 86.4114 70.538 87.0554 69.72C87.6774 68.927 88.3465 68.1709 88.9695 67.3789C90.1755 65.8459 91.3595 64.296 92.5615 62.76C94.5095 60.272 96.4609 57.7866 98.4155 55.3039C99.0876 54.5786 99.6189 53.7346 99.9824 52.8149C100.162 52.0931 100.166 51.3389 99.9954 50.615L99.9434 50.9839C99.8983 50.6717 99.8269 50.364 99.7295 50.064C99.4098 49.3253 98.8498 48.7163 98.1404 48.3359C97.5137 47.9818 96.802 47.8066 96.0825 47.8291C95.1832 47.8152 94.3113 48.1399 93.6404 48.739C93.2406 49.1278 92.8729 49.5483 92.5405 49.9961C91.2885 51.5961 90.0584 53.207 88.8054 54.803C87.5324 56.426 86.2394 58.0319 84.9614 59.6509C82.7061 62.5102 80.4537 65.3718 78.2044 68.2351C76.8294 69.9871 75.4675 71.7489 74.0945 73.5019C72.8225 75.1259 71.5415 76.742 70.2695 78.365C69.4205 79.443 68.5864 80.5269 67.7324 81.6269ZM44.9065 29.7119C41.2532 33.3532 37.6108 36.9828 33.9795 40.6001L34.0425 40.6831C34.1265 40.6831 34.2104 40.6941 34.2944 40.6941C36.7084 40.6941 39.1224 40.6849 41.5354 40.6999C41.9974 40.7019 42.4552 40.613 42.8828 40.438C43.3104 40.263 43.6993 40.0053 44.0274 39.6799C44.4846 39.2599 44.8449 38.7454 45.0833 38.1721C45.3216 37.5988 45.4323 36.9805 45.4075 36.3601C45.3875 34.2541 45.4075 32.148 45.4075 30.042C45.4075 29.872 45.3795 29.702 45.3645 29.532H45.2454L45.1284 30.008L44.9065 29.7119ZM72.0064 87.738L70.4255 86.532C69.8095 86.061 69.1924 85.591 68.5794 85.116C68.2074 84.829 67.8545 84.516 67.4695 84.248C67.0385 83.948 66.9555 83.998 66.8755 84.512C66.6462 85.9853 66.4187 87.4585 66.1934 88.9319C66.1354 89.3159 66.0935 89.703 66.0335 90.1851L72.0064 87.738Z" fill="#17598d" stroke="#17598d" stroke-width="0.75"/>
<path d="M59.478 53.0234C65.966 53.0234 72.4542 53.0234 78.9429 53.0234C79.1624 53.0239 79.3816 53.0431 79.5979 53.0806C79.8034 53.11 79.9895 53.2181 80.1167 53.3821C80.244 53.5461 80.3026 53.7531 80.28 53.9595C80.2685 54.2646 80.2183 54.5671 80.1309 54.8596C80.1043 54.909 80.0668 54.9515 80.0213 54.9841C79.9757 55.0167 79.9232 55.0384 79.8679 55.0476C79.5097 55.0985 79.1486 55.1265 78.7869 55.1316C66.2822 55.1356 53.7773 55.1378 41.272 55.1384C40.8803 55.1097 40.4868 55.1602 40.115 55.2866C39.881 55.3806 39.5429 55.2385 39.2569 55.1775C38.7689 55.0775 38.6571 54.7185 38.6331 54.2705C38.5831 53.4955 38.8329 53.1195 39.6199 53.0625C40.3509 53.0095 41.0891 53.0305 41.8201 53.0295C47.7054 53.0295 53.5899 53.0295 59.4739 53.0295L59.478 53.0234Z" fill="#17598d" stroke="#17598d" stroke-width="0.75"/>
</svg>
